<svg width="311" height="320" viewBox="0 0 311 320" fill="none" xmlns="http://www.w3.org/2000/svg">
<path fill-rule="evenodd" clip-rule="evenodd" d="M155.074 0C83.2137 0 24.9593 58.2544 24.9593 130.115V223.218V292.789V300C24.9593 311.046 33.9136 320 44.9593 320H265.189C276.235 320 285.189 311.046 285.189 300V293.666V223.218V130.115C285.189 58.2545 226.935 0 155.074 0Z" fill="#97826D" fill-opacity="0.2"/>
<g clip-path="url(#clip0_1517_16944)">
<g style="mix-blend-mode:multiply" opacity="0.5">
<path d="M198.418 80.4956H15.136C7.30644 80.4956 0.95932 86.8399 0.95932 94.6661V193.066C0.95932 200.892 7.30644 207.237 15.136 207.237H198.418C206.248 207.237 212.595 200.892 212.595 193.066V94.6661C212.595 86.8399 206.248 80.4956 198.418 80.4956Z" fill="#D8DCE2"/>
</g>
<path opacity="0.8" d="M205.879 71.8306H22.5971C14.7675 71.8306 8.42037 78.1749 8.42037 86.001V184.401C8.42037 192.227 14.7675 198.572 22.5971 198.572H205.879C213.709 198.572 220.056 192.227 220.056 184.401V86.001C220.056 78.1749 213.709 71.8306 205.879 71.8306Z" fill="white"/>
<path d="M8.42037 132.693V84.159C8.42037 77.3497 12.886 71.8306 18.4006 71.8306H210.076C215.59 71.8306 220.056 77.3497 220.056 84.159V186.243C220.056 193.052 215.59 198.572 210.076 198.572H18.4006C12.886 198.572 8.42037 193.052 8.42037 186.243V170.803" stroke="#E9E9E9" stroke-width="3" stroke-miterlimit="10"/>
<path d="M16.7925 85.6216H211.691" stroke="#F7F7F7" stroke-width="3" stroke-miterlimit="10"/>
<path d="M44.1727 78.7295V190.031" stroke="#F7F7F7" stroke-width="3" stroke-miterlimit="10"/>
<path d="M66.2659 78.7295V190.031" stroke="#F7F7F7" stroke-width="3" stroke-miterlimit="10"/>
<path d="M88.3661 78.7295V190.031" stroke="#F7F7F7" stroke-width="3" stroke-miterlimit="10"/>
<path d="M110.459 78.7295V190.031" stroke="#F7F7F7" stroke-width="3" stroke-miterlimit="10"/>
<path d="M132.56 78.7295V190.031" stroke="#F7F7F7" stroke-width="3" stroke-miterlimit="10"/>
<path d="M154.653 78.7295V190.031" stroke="#F7F7F7" stroke-width="3" stroke-miterlimit="10"/>
<path d="M176.753 78.7295V190.031" stroke="#F7F7F7" stroke-width="3" stroke-miterlimit="10"/>
<path d="M198.846 78.7295V190.031" stroke="#F7F7F7" stroke-width="3" stroke-miterlimit="10"/>
<path d="M16.7925 109.899H211.691" stroke="#F7F7F7" stroke-width="3" stroke-miterlimit="10"/>
<path d="M16.7925 133.431H211.691" stroke="#F7F7F7" stroke-width="3" stroke-miterlimit="10"/>
<path d="M16.7925 158.461H211.691" stroke="#F7F7F7" stroke-width="3" stroke-miterlimit="10"/>
<path d="M16.7925 182.738H211.691" stroke="#F7F7F7" stroke-width="3" stroke-miterlimit="10"/>
<path d="M22.252 183.008H69.7929C69.7929 73.7279 57.4935 62.0203 44.8077 62.4135C32.1218 62.8068 22.252 95.5976 22.252 183.008Z" fill="#7DDA75"/>
<path d="M59.364 182.042C60.3371 182.366 61.3103 182.684 62.2835 183.008H64.9201C58.3632 180.835 51.8132 178.661 45.2563 176.495C37.6158 173.963 29.9753 171.431 22.3417 168.899C22.3417 169.189 22.3348 169.479 22.3279 169.769C23.7842 170.252 25.2405 170.735 26.6968 171.217C37.5882 174.826 48.4726 178.434 59.364 182.042Z" fill="#27B63E"/>
<path d="M58.9498 177.461C62.1455 179.337 65.3687 181.179 68.5919 183.008H69.7929C69.7929 182.925 69.7929 182.842 69.7929 182.752C61.4207 178.006 53.1315 173.108 44.9319 168.051C37.4294 163.422 30.0098 158.661 22.6661 153.784C22.6592 154.108 22.6454 154.432 22.6385 154.756C23.9568 155.633 25.275 156.516 26.6002 157.385C37.2155 164.339 48.0033 171.031 58.9429 177.461H58.9498Z" fill="#27B63E"/>
<path d="M66.5765 106.753C66.542 106.429 66.5006 106.112 66.4661 105.794C64.1608 104.759 61.8556 103.725 59.5572 102.69C49.4251 98.1433 39.293 93.59 29.154 89.0435L29.009 88.9814C28.9469 89.2574 28.8917 89.5265 28.8296 89.8093C33.2192 91.7824 37.6158 93.7555 42.0055 95.7217C50.1981 99.3989 58.3839 103.076 66.5765 106.753Z" fill="#27B63E"/>
<path d="M68.2123 125.36C68.1847 124.98 68.164 124.594 68.1364 124.222C66.1279 122.524 64.1194 120.834 62.0902 119.158C51.7649 110.638 41.2117 102.407 30.4308 94.4732C29.6923 93.9282 28.9469 93.397 28.2084 92.8589C28.1532 93.1555 28.091 93.4384 28.0358 93.742C33.4539 97.702 38.8167 101.738 44.1175 105.85C52.2894 112.183 60.3164 118.689 68.2054 125.36H68.2123Z" fill="#27B63E"/>
<path d="M68.8197 136.129C68.8059 135.826 68.7921 135.508 68.7783 135.205C64.0021 133.114 59.2328 131.024 54.4566 128.927C44.6282 124.622 34.7929 120.31 24.9644 116.005C24.9368 116.295 24.9092 116.584 24.8816 116.874C27.5182 118.026 30.1547 119.185 32.7913 120.337C44.8008 125.601 56.8102 130.865 68.8266 136.129H68.8197Z" fill="#27B63E"/>
<path d="M69.5513 158.109C69.5444 157.751 69.5375 157.399 69.5306 157.04C65.9485 154.163 62.3249 151.348 58.66 148.575C52.3239 143.787 45.8844 139.137 39.431 134.515C34.3857 130.9 29.3334 127.292 24.2811 123.684C24.2535 124.001 24.2259 124.318 24.2052 124.643C28.3395 127.602 32.4807 130.555 36.615 133.515C47.7617 141.483 58.8877 149.506 69.5582 158.109H69.5513Z" fill="#27B63E"/>
<path d="M64.9132 94.7422C64.8372 94.3076 64.7682 93.8867 64.6923 93.4659C64.0987 92.9692 63.5121 92.4518 62.9116 91.955C53.9183 84.4766 44.642 77.3568 35.1104 70.582C34.9792 70.8304 34.8481 71.0788 34.7239 71.334C38.6442 74.1212 42.53 76.9498 46.3675 79.8542C52.6828 84.649 58.8601 89.6232 64.9201 94.7353L64.9132 94.7422Z" fill="#27B63E"/>
<path d="M54.0977 159.351C59.3571 161.296 64.575 163.38 69.6755 165.705C69.6755 165.401 69.6686 165.098 69.6617 164.794C65.6379 162.973 61.5519 161.289 57.4314 159.717C50.7779 157.178 44.0415 154.873 37.3121 152.542C32.4876 150.872 27.67 149.189 22.8938 147.402C22.88 147.692 22.8731 147.981 22.8593 148.271C26.5657 149.651 30.2928 150.982 34.0268 152.279C40.7286 154.611 47.4442 156.881 54.0977 159.344V159.351Z" fill="#27B63E"/>
<path d="M49.218 182.69L44.8077 62.4067" stroke="#50E64D" stroke-miterlimit="10"/>
<path d="M166.055 183.008H207.211C207.211 108.306 193.684 95.1222 182.226 100.572C169.685 106.533 166.055 123.256 166.055 183.008Z" fill="#27B63E"/>
<path d="M207.067 170.183C207.06 169.872 207.053 169.555 207.046 169.245C202.463 171.777 197.887 174.308 193.304 176.833C189.584 178.889 185.857 180.945 182.137 183.001H183.855C191.302 178.889 198.75 174.771 206.197 170.659L207.067 170.183Z" fill="#7DDA75"/>
<path d="M201.766 165.478C203.443 164.436 205.134 163.429 206.818 162.408C206.804 162.09 206.79 161.773 206.777 161.456C205.693 162.111 204.596 162.753 203.519 163.422C197.445 167.154 191.44 170.997 185.505 174.943C181.543 177.578 177.63 180.276 173.73 183.008H175.138C178.037 180.987 180.956 178.993 183.89 177.02C189.777 173.067 195.74 169.217 201.773 165.478H201.766Z" fill="#7DDA75"/>
<path d="M198.232 119.227C199.191 118.792 200.158 118.378 201.117 117.951C201.041 117.675 200.958 117.413 200.882 117.144C200.772 117.192 200.655 117.24 200.544 117.288C193.808 120.262 187.161 123.435 180.618 126.809C176.263 129.051 171.963 131.39 167.704 133.811C167.67 134.143 167.642 134.481 167.608 134.819C171.169 132.79 174.758 130.817 178.389 128.906C184.904 125.477 191.523 122.249 198.232 119.22V119.227Z" fill="#7DDA75"/>
<path d="M193.635 129.872C196.631 127.982 199.654 126.133 202.691 124.298C202.629 124.008 202.566 123.725 202.497 123.436C200.24 124.795 197.99 126.168 195.754 127.554C188.321 132.183 181.005 136.992 173.806 141.973C171.438 143.615 169.092 145.278 166.759 146.954C166.738 147.299 166.724 147.651 166.711 148.003C168.388 146.795 170.079 145.595 171.77 144.408C178.934 139.379 186.229 134.529 193.635 129.865V129.872Z" fill="#7DDA75"/>
<path d="M192.42 101.648C189.032 104.242 185.684 106.899 182.392 109.617C178.044 113.211 173.785 116.923 169.616 120.724C169.52 121.173 169.43 121.635 169.34 122.104C176.946 115.115 184.856 108.472 193.055 102.193C192.842 102 192.628 101.821 192.414 101.648H192.42Z" fill="#7DDA75"/>
<path d="M190.681 142.49C195.306 140.317 199.985 138.268 204.72 136.35C204.685 136.067 204.644 135.777 204.609 135.501C200.724 137.068 196.865 138.723 193.055 140.469C186.022 143.691 179.12 147.195 172.315 150.879C170.355 151.942 168.402 153.018 166.455 154.108C166.441 154.432 166.435 154.756 166.421 155.081C167.615 154.412 168.809 153.735 170.01 153.08C176.794 149.348 183.669 145.788 190.674 142.49H190.681Z" fill="#7DDA75"/>
<path d="M193.98 161.056C198.122 159.165 202.29 157.337 206.48 155.571C206.466 155.274 206.445 154.985 206.425 154.695C203.091 156.095 199.764 157.537 196.465 159.02C189.225 162.277 182.068 165.712 174.972 169.279C171.998 170.776 169.037 172.301 166.083 173.833C166.083 174.15 166.083 174.46 166.076 174.785C168.229 173.667 170.376 172.542 172.536 171.446C179.617 167.851 186.754 164.367 193.973 161.063L193.98 161.056Z" fill="#7DDA75"/>
<path d="M192.828 154.226C197.141 151.473 201.462 148.72 205.776 145.967C205.748 145.657 205.721 145.34 205.693 145.036C202.132 147.306 198.577 149.576 195.016 151.845C188.114 156.247 181.205 160.655 174.303 165.057L166.124 170.273C166.124 170.604 166.124 170.935 166.117 171.266L172.115 167.437C179.017 163.036 185.926 158.627 192.828 154.226Z" fill="#7DDA75"/>
<path d="M186.637 182.794V99.4819" stroke="#50E64D" stroke-miterlimit="10"/>
<path d="M189.48 148.906V182.932H154.86V113.273L189.48 148.906Z" fill="#C7FFC6"/>
<path d="M189.48 148.906V153.08L154.86 117.405V113.273L189.48 148.906Z" fill="#27B63E"/>
<path d="M128.135 90.7686H90.8577V183.001H128.135V90.7686Z" fill="#C7FFC6"/>
<path d="M128.135 91.7549V97.5362L90.8577 139.061V133.287L128.135 91.7549Z" fill="#27B63E"/>
<path d="M92.5694 129.624H55.7197V183.008H92.5694V129.624Z" fill="#27B63E"/>
<path d="M88.235 131.969H51.2472L91.1476 87.5122H128.142L88.235 131.969Z" fill="#C7FFC6"/>
<path d="M88.235 131.969L90.4643 135.267L130.365 90.8168L128.142 87.5122L88.235 131.969Z" fill="#7DDA75"/>
<path d="M90.4643 135.267H53.518L51.2472 131.969H88.1867L90.4643 135.267Z" fill="#3C3D72"/>
<path d="M192.503 152.052H189.48V148.906L192.503 152.052Z" fill="#3C3D72"/>
<path d="M192.503 147.237V152.052L154.86 113.273V108.451L192.503 147.237Z" fill="#7DDA75"/>
<path d="M154.86 110.065H128.135V183.008H154.86V110.065Z" fill="#27B63E"/>
<path d="M154.86 108.451H128.135V113.266H154.86V108.451Z" fill="#3C3D72"/>
<path d="M140.911 119.268C146.653 119.268 151.305 123.918 151.305 129.658V173.48H130.51V129.658C130.51 123.918 135.162 119.268 140.904 119.268H140.911Z" fill="#3C3D72"/>
<path d="M141.85 120.606C147.074 120.606 151.305 124.836 151.305 130.058V173.487H132.394V130.058C132.394 124.836 136.625 120.606 141.85 120.606Z" fill="white"/>
<path d="M141.85 122.745C145.873 122.745 149.138 126.008 149.138 130.03V171.348H134.568V130.03C134.568 126.008 137.833 122.745 141.857 122.745H141.85Z" fill="#F2CB6D"/>
<path d="M142.94 122.828C139.434 123.352 136.742 126.374 136.742 130.03V171.348H134.568V130.03C134.568 126.008 137.833 122.745 141.857 122.745C142.222 122.745 142.588 122.773 142.94 122.828Z" fill="#D2881D"/>
<mask id="mask0_1517_16944" style="mask-type:luminance" maskUnits="userSpaceOnUse" x="134" y="122" width="16" height="50">
<path d="M141.85 122.745C145.873 122.745 149.138 126.008 149.138 130.03V171.348H134.568V130.03C134.568 126.008 137.833 122.745 141.857 122.745H141.85Z" fill="white"/>
</mask>
<g mask="url(#mask0_1517_16944)">
<g style="mix-blend-mode:lighten" opacity="0.5">
<path d="M130.289 147.657L155.053 124.835" stroke="#F4D79A" stroke-width="30" stroke-miterlimit="10"/>
</g>
<g style="mix-blend-mode:lighten" opacity="0.5">
<path d="M130.289 162.035L155.053 139.213" stroke="#F4D79A" stroke-width="10" stroke-miterlimit="10"/>
</g>
<g style="mix-blend-mode:lighten" opacity="0.5">
<path d="M130.289 169.63L155.053 146.809" stroke="#F4D79A" stroke-width="10" stroke-miterlimit="10"/>
</g>
</g>
<path d="M140.697 172.321H143.016V121.773H140.697V172.321Z" fill="white"/>
<path d="M133.491 145.891V148.209H150.215V145.891H133.491Z" fill="white"/>
<g style="mix-blend-mode:multiply" opacity="0.9">
<path d="M151.312 130.058V134.391C149.463 131.562 146.26 129.692 142.616 129.692C137.529 129.692 133.298 133.349 132.394 138.171V130.058C132.394 124.836 136.632 120.606 141.85 120.606C147.068 120.606 151.305 124.842 151.305 130.058H151.312Z" fill="#C7FFC6"/>
</g>
<path d="M124.816 138.854H98.2567V183.008H124.816V138.854Z" fill="#27B63E"/>
<path d="M122.828 140.717H98.2567V183.008H122.828V140.717Z" fill="white"/>
<path d="M120.819 142.684H100.251V183.008H120.819V142.684Z" fill="#D23817"/>
<path d="M116.899 166.361C117.285 166.361 117.603 166.043 117.603 165.657V164.298C117.603 163.912 117.285 163.594 116.899 163.594C116.512 163.594 116.195 163.912 116.195 164.298V165.657C116.195 166.043 116.512 166.361 116.899 166.361Z" fill="#F2CB6D"/>
<path d="M116.899 167.692C116.678 167.692 116.499 167.513 116.499 167.292C116.499 167.071 116.678 166.892 116.899 166.892C117.12 166.892 117.299 167.071 117.299 167.292C117.299 167.513 117.12 167.692 116.899 167.692Z" fill="#3C3D72"/>
<path d="M117.9 169.914V176.93C116.506 176.93 115.367 178.061 115.367 179.462H104.054C104.054 178.061 102.916 176.93 101.521 176.93V169.914C102.916 169.914 104.054 168.782 104.054 167.382H115.367C115.367 168.782 116.506 169.914 117.9 169.914Z" fill="#E15938"/>
<path d="M116.809 171.003V175.833C115.429 175.833 113.931 177.323 113.931 178.503H105.483C105.483 177.323 103.985 175.833 102.605 175.833V171.003C103.985 171.003 105.483 169.513 105.483 168.333H113.931C113.931 169.513 115.429 171.003 116.809 171.003Z" stroke="#D23817" stroke-miterlimit="10"/>
<path d="M106.297 163.594H104.054C104.054 162.2 102.922 161.062 101.521 161.062V149.755C102.922 149.755 104.054 148.616 104.054 147.223H106.297C106.297 148.616 107.429 149.755 108.831 149.755V161.062C107.429 161.062 106.297 162.2 106.297 163.594Z" fill="#E15938"/>
<path d="M105.573 161.98H104.772C104.772 161.083 103.502 159.814 102.605 159.814V151.011C103.509 151.011 104.772 149.741 104.772 148.844H105.573C105.573 149.748 106.843 151.011 107.74 151.011V159.814C106.843 159.814 105.573 161.083 105.573 161.98Z" stroke="#D23817" stroke-miterlimit="10"/>
<path d="M115.36 163.594H113.117C113.117 162.2 111.985 161.062 110.584 161.062V149.755C111.985 149.755 113.117 148.616 113.117 147.223H115.36C115.36 148.616 116.492 149.755 117.893 149.755V161.062C116.492 161.062 115.36 162.2 115.36 163.594Z" fill="#E15938"/>
<path d="M114.635 161.98H113.834C113.834 161.083 112.564 159.814 111.667 159.814V151.011C112.564 151.011 113.834 149.741 113.834 148.844H114.635C114.635 149.748 115.905 151.011 116.802 151.011V159.814C115.905 159.814 114.635 161.083 114.635 161.98Z" stroke="#D23817" stroke-miterlimit="10"/>
<path d="M111.239 146.726C111.239 147.574 110.556 148.257 109.707 148.257C108.858 148.257 108.175 147.574 108.175 146.726C108.175 145.877 108.858 145.194 109.707 145.194C110.556 145.194 111.239 145.877 111.239 146.726Z" stroke="#3C3D72" stroke-miterlimit="10"/>
<path d="M110.535 145.195C110.535 145.65 110.163 146.022 109.707 146.022C109.252 146.022 108.879 145.65 108.879 145.195C108.879 144.739 109.252 144.367 109.707 144.367C110.163 144.367 110.535 144.739 110.535 145.195Z" fill="#F2CB6D"/>
<path d="M112.634 164.325H106.774V165.422H112.634V164.325Z" fill="#A62400"/>
<path d="M120.826 142.684H118.921V183.008H120.826V142.684Z" fill="#A62400"/>
<path d="M151.312 170.355H129.288V173.487H151.312V170.355Z" fill="#C7FFC6"/>
<path d="M151.312 170.355H147.088V173.487H151.312V170.355Z" fill="#7DDA75"/>
<path d="M180.929 150.914V173.48H163.598V150.914C163.598 146.367 167.477 142.683 172.26 142.683C177.043 142.683 180.929 146.367 180.929 150.914Z" fill="#27B63E"/>
<path d="M178.9 151.403V173.487H162.776V151.403C162.776 146.953 166.386 143.345 170.838 143.345C175.29 143.345 178.906 146.953 178.906 151.403H178.9Z" fill="white"/>
<path d="M170.831 145.188C174.358 145.188 177.215 148.051 177.215 151.569V171.631H164.447V151.569C164.447 148.044 167.311 145.188 170.831 145.188Z" fill="#F2CB6D"/>
<path d="M177.222 151.562V171.624H175.545V151.562C175.545 148.327 173.129 145.643 169.996 145.243C170.272 145.201 170.548 145.181 170.831 145.181C174.358 145.181 177.222 148.037 177.222 151.562Z" fill="#D2881D"/>
<g opacity="0.4">
<mask id="mask1_1517_16944" style="mask-type:luminance" maskUnits="userSpaceOnUse" x="164" y="145" width="14" height="27">
<path d="M170.831 145.188C174.358 145.188 177.215 148.051 177.215 151.569V171.631H164.447V151.569C164.447 148.044 167.311 145.188 170.831 145.188Z" fill="white"/>
</mask>
<g mask="url(#mask1_1517_16944)">
<path d="M159.339 165.291L180.252 146.084" stroke="#F4D79A" stroke-width="20" stroke-miterlimit="10"/>
<path d="M160.602 173.646L178.644 157.295" stroke="#F4D79A" stroke-width="5" stroke-miterlimit="10"/>
</g>
</g>
<path d="M171.68 143.849H169.982V172.935H171.68V143.849Z" fill="white"/>
<path d="M178.893 158.082H162.77V159.786H178.893V158.082Z" fill="white"/>
<g style="mix-blend-mode:multiply" opacity="0.9">
<path d="M178.893 151.403V152.873C177.05 150.824 174.123 149.499 170.824 149.499C167.525 149.499 164.605 150.824 162.763 152.866V151.403C162.763 146.953 166.372 143.345 170.824 143.345C175.276 143.345 178.893 146.953 178.893 151.403Z" fill="#C7FFC6"/>
</g>
<path d="M168.85 170.355H162.141V173.487H168.85V170.355Z" fill="#27B63E"/>
<path d="M184.255 170.355H166.697V173.487H184.255V170.355Z" fill="#C7FFC6"/>
<path d="M65.1616 150.914V173.48H82.4925V150.914C82.4925 146.367 78.6136 142.683 73.8305 142.683C69.0474 142.683 65.1616 146.367 65.1616 150.914Z" fill="#3C3D72"/>
<path d="M67.1908 151.403V173.487H83.3139V151.403C83.3139 146.953 79.7041 143.345 75.2523 143.345C70.8006 143.345 67.1839 146.953 67.1839 151.403H67.1908Z" fill="white"/>
<path d="M75.2523 145.188C78.7792 145.188 81.6367 148.044 81.6367 151.569V171.631H68.868V151.569C68.868 148.044 71.7254 145.188 75.2523 145.188Z" fill="#F2CB6D"/>
<path d="M68.868 151.562V171.624H70.5452V151.562C70.5452 148.327 72.9609 145.643 76.0944 145.243C75.8183 145.201 75.5422 145.181 75.2592 145.181C71.7323 145.181 68.868 148.037 68.868 151.562Z" fill="#D2881D"/>
<g opacity="0.4">
<mask id="mask2_1517_16944" style="mask-type:luminance" maskUnits="userSpaceOnUse" x="68" y="145" width="14" height="27">
<path d="M75.2523 145.188C78.7792 145.188 81.6367 148.044 81.6367 151.569V171.631H68.868V151.569C68.868 148.044 71.7254 145.188 75.2523 145.188Z" fill="white"/>
</mask>
<g mask="url(#mask2_1517_16944)">
<path d="M66.6594 162.407L84.7012 146.063" stroke="#F4D79A" stroke-width="20" stroke-miterlimit="10"/>
<path d="M65.0512 173.508L83.0999 157.157" stroke="#F4D79A" stroke-width="5" stroke-miterlimit="10"/>
</g>
</g>
<path d="M74.4034 172.928H76.1013V143.842H74.4034V172.928Z" fill="white"/>
<path d="M83.3139 158.082H67.1908V159.786H83.3139V158.082Z" fill="white"/>
<g style="mix-blend-mode:multiply" opacity="0.9">
<path d="M67.1908 151.403V152.873C69.0336 150.824 71.9601 149.499 75.2592 149.499C78.5584 149.499 81.4779 150.824 83.3208 152.866V151.403C83.3208 146.953 79.711 143.345 75.2592 143.345C70.8075 143.345 67.1908 146.953 67.1908 151.403Z" fill="#C7FFC6"/>
</g>
<path d="M77.2401 173.487H83.9488V170.355H77.2401V173.487Z" fill="#7DDA75"/>
<path d="M61.828 173.487H79.3866V170.355H61.828V173.487Z" fill="#C7FFC6"/>
<path d="M98.2567 135.985H124.705V106.354L98.2567 135.985Z" fill="#27B63E"/>
<path d="M122.828 108.458V135.978H98.2567L109.003 123.939L122.828 108.458Z" fill="white"/>
<path d="M120.957 113.756V133.804H103.06L118.921 116.039L120.957 113.756Z" fill="#F2CB6D"/>
<path d="M120.957 113.756V133.804H118.921V116.039L120.957 113.756Z" fill="#D2881D"/>
<g opacity="0.6">
<mask id="mask3_1517_16944" style="mask-type:luminance" maskUnits="userSpaceOnUse" x="103" y="113" width="18" height="21">
<path d="M120.957 113.756V133.804H103.06L118.921 116.039L120.957 113.756Z" fill="white"/>
</mask>
<g mask="url(#mask3_1517_16944)">
<path d="M95.6132 137.813L126.196 117.543" stroke="#F4D79A" stroke-width="10" stroke-miterlimit="10"/>
<path d="M103.04 139.158L123.332 125.705" stroke="#F4D79A" stroke-width="5" stroke-miterlimit="10"/>
</g>
</g>
<g style="mix-blend-mode:multiply" opacity="0.9">
<path d="M122.828 108.458V118.171L109.003 123.939L122.828 108.458Z" fill="#C7FFC6"/>
</g>
<path d="M268.551 135.95C268.551 167.161 270.297 167.768 285.978 170.417C301.66 173.059 283.632 196.267 277.206 198.765C264.037 203.884 220.686 198.227 220.686 198.227C220.686 198.227 223.578 125.898 222.825 126.74C222.073 127.581 268.544 135.957 268.544 135.957L268.551 135.95Z" fill="black"/>
<path d="M206.626 228.637L183.256 180.399L177.417 184.987C175.671 201.179 178.715 237.281 190.048 253.411L206.619 228.637H206.626Z" fill="#EDB1A6"/>
<path d="M185.52 184.988L182.359 192.321C168.507 187.492 166.298 176.516 162.847 171.762L179.357 166.34L185.527 184.995L185.52 184.988Z" fill="#EDB1A6"/>
<path d="M171.019 167.871C171.088 168.21 171.102 168.561 171.04 168.92C171.019 169.017 170.998 169.106 170.977 169.203C170.715 170.169 169.956 170.893 169.024 171.135C168.672 171.231 168.293 171.259 167.913 171.211L165.518 170.886L162.143 170.417C161.66 170.348 161.225 170.162 160.873 169.886C160.369 169.5 160.017 168.948 159.879 168.32C159.81 167.982 159.803 167.623 159.865 167.264C160.1 165.954 161.259 165.036 162.564 165.064H162.571C162.64 165.064 162.716 165.07 162.785 165.077L168.589 165.685C168.645 165.685 168.7 165.698 168.762 165.712C169.921 165.905 170.791 166.788 171.026 167.871H171.019Z" fill="#EDB1A6"/>
<path d="M163.371 150.12C164.165 149.023 165.739 148.851 166.753 149.748L175.519 157.468L181.179 167.94L172.807 173.446L169.273 159.254L163.537 153.032C162.792 152.224 162.723 151.01 163.365 150.12H163.371Z" fill="#EDB1A6"/>
<path d="M181.179 167.94L180.019 165.795L172.696 160.559L169.79 161.317L173.172 173.853L181.179 167.94Z" fill="#CF6D5E"/>
<path d="M158.064 172.218C157.905 173.163 158.257 174.156 159.065 174.798L163.675 178.379C164.862 179.296 166.574 179.11 167.533 177.958C167.809 177.627 167.982 177.247 168.086 176.847C168.106 176.771 168.12 176.702 168.134 176.64C168.141 176.585 168.155 176.516 168.155 176.461C168.258 175.509 167.858 174.522 167.023 173.929L162.309 170.5C161.632 170.024 160.797 169.879 160.045 170.086C159.934 170.114 159.831 170.155 159.72 170.189C159.334 170.327 158.968 170.576 158.685 170.921C158.354 171.314 158.154 171.756 158.078 172.218H158.064Z" fill="#EDB1A6"/>
<path d="M160.031 170.086C160.086 170.597 160.286 171.1 160.645 171.528L164.4 175.985C165.332 177.102 167.23 177.696 168.617 176.316C168.721 175.364 167.844 174.522 167.002 173.929L162.288 170.5C161.611 170.024 160.776 169.879 160.024 170.086H160.031Z" fill="#CF6D5E"/>
<path d="M163.344 169.513C163.164 170.245 163.289 171.059 163.765 171.721L166.16 174.943C167.03 176.171 168.721 176.474 169.963 175.64C170.508 175.267 170.881 174.75 171.06 174.17C171.088 174.115 171.102 174.053 171.116 173.998C171.316 173.197 171.164 172.335 170.632 171.638L168.092 168.52C167.671 167.975 167.071 167.63 166.436 167.519C165.78 167.395 165.09 167.52 164.49 167.906C163.896 168.292 163.51 168.872 163.344 169.513Z" fill="#CF6D5E"/>
<path d="M169.928 173.708C169.915 173.763 169.908 173.832 169.887 173.887C169.873 173.963 169.846 174.032 169.832 174.094H169.825C169.666 174.605 169.362 175.074 168.907 175.433C167.734 176.364 166.022 176.191 165.056 175.032L161.294 170.583C161.115 170.362 160.97 170.127 160.866 169.879C160.673 169.41 160.618 168.899 160.7 168.409C160.811 167.754 161.149 167.147 161.715 166.712C162.039 166.471 162.391 166.312 162.764 166.222C163.047 166.16 163.344 166.147 163.634 166.181C164.276 166.243 164.897 166.54 165.359 167.05L169.024 171.135L169.259 171.397C169.846 172.052 170.06 172.901 169.928 173.708Z" fill="#EDB1A6"/>
<path d="M169.01 171.073L169.245 171.335C169.832 171.99 170.046 172.839 169.915 173.646C169.901 173.701 169.894 173.77 169.873 173.825C169.859 173.901 169.832 173.97 169.818 174.032H169.811C168.645 174.363 167.354 173.88 166.698 172.79L165.511 170.817L162.937 166.533C162.868 166.416 162.799 166.292 162.757 166.167C162.598 165.788 162.536 165.395 162.557 165.001H162.564C162.633 165.001 162.709 165.008 162.778 165.015L168.582 165.622C168.638 165.622 168.693 165.636 168.755 165.65L170.971 169.141C170.708 170.107 169.949 170.831 169.017 171.073H169.01Z" fill="#CF6D5E"/>
<path d="M174.146 165.25C174.249 165.719 174.228 166.216 174.063 166.705C173.586 168.133 172.054 168.927 170.619 168.499L168.817 167.961L165.035 166.823C164.469 166.657 163.993 166.312 163.668 165.871C163.42 165.56 163.261 165.201 163.178 164.808C163.075 164.339 163.102 163.835 163.275 163.359C163.737 162.042 165.145 161.297 166.491 161.648L168.313 162.131L170.253 162.642L172.13 163.139C173.193 163.415 173.932 164.256 174.146 165.25Z" fill="#EDB1A6"/>
<path d="M166.367 166.174C166.077 166.871 166.077 167.692 166.443 168.416L168.32 171.969C168.99 173.315 170.619 173.873 171.971 173.239C172.572 172.949 173.014 172.5 173.283 171.955C173.317 171.907 173.338 171.845 173.366 171.79C173.683 171.031 173.669 170.155 173.248 169.382L171.219 165.912C170.888 165.305 170.343 164.87 169.735 164.663C169.107 164.436 168.403 164.456 167.754 164.753C167.105 165.043 166.636 165.553 166.381 166.167L166.367 166.174Z" fill="#CF6D5E"/>
<path d="M163.924 164.629C163.689 165.346 163.751 166.16 164.172 166.864L167.209 171.845C167.982 173.135 169.645 173.563 170.95 172.832C171.523 172.501 171.93 172.018 172.158 171.445C172.185 171.397 172.206 171.328 172.227 171.28C172.482 170.5 172.406 169.631 171.923 168.886L168.734 163.994C168.355 163.415 167.782 163.028 167.161 162.87C166.519 162.69 165.815 162.773 165.194 163.111C164.572 163.449 164.138 164.001 163.931 164.629H163.924Z" fill="#EDB1A6"/>
<path d="M182.228 183.635L178.501 169.203L170.984 164.077L169.997 169.444L172.316 172.328C172.316 172.328 168.417 183.884 182.228 183.628V183.635Z" fill="#CF6D5E"/>
<path d="M170.984 164.077L166.015 165.85C164.931 166.236 164.365 167.416 164.731 168.499C165.056 169.465 166.029 170.051 167.036 169.899L169.997 169.444L170.984 164.077Z" fill="#CF6D5E"/>
<path d="M185.52 184.988L181.179 167.94L172.323 161.862L171.136 168.196L173.863 171.604C173.863 171.604 169.217 185.222 185.52 184.988Z" fill="#EDB1A6"/>
<path d="M170.253 162.635V167.45L168.817 167.954L166.926 168.609C166.822 168.644 166.719 168.678 166.622 168.699C165.566 168.927 164.476 168.444 163.944 167.478C163.654 166.968 163.572 166.402 163.668 165.864C163.786 165.16 164.2 164.511 164.862 164.132L168.313 162.131L170.253 162.642V162.635Z" fill="#CF6D5E"/>
<path d="M172.323 161.862L166.45 163.932C165.173 164.38 164.497 165.774 164.924 167.057C165.304 168.196 166.45 168.899 167.644 168.72L171.143 168.196L172.33 161.862H172.323Z" fill="#EDB1A6"/>
<path d="M190.068 253.411C185.879 225.988 198.537 197.764 216.517 178.73C220.651 174.356 227.519 174.011 232.205 177.792C236.305 181.09 237.685 186.726 235.58 191.541L210.105 239.407C206.053 247.016 198.606 252.218 190.068 253.411Z" fill="#E38B7A"/>
<path d="M196.825 208.409L208.807 183.552L232.812 210.582L206.923 246.678C203.099 252.011 196.522 254.639 190.068 253.404L196.825 208.402V208.409Z" fill="#7DDA75"/>
<mask id="mask4_1517_16944" style="mask-type:alpha" maskUnits="userSpaceOnUse" x="1" y="192" width="296" height="128">
<rect x="1.95932" y="192.184" width="295" height="127.816" rx="20" fill="#D9D9D9"/>
</mask>
<g mask="url(#mask4_1517_16944)">
<path d="M297.049 320H209.456L220.699 271.411V243.201H266.846C268.04 244.456 269.213 245.726 270.345 247.037C271.498 248.361 272.616 249.706 273.693 251.086C276.067 254.087 278.262 257.206 280.284 260.434C281.423 262.242 282.5 264.084 283.514 265.947C284.046 266.899 284.557 267.871 285.054 268.837C285.599 269.907 286.123 270.997 286.641 272.08C287.152 273.17 287.649 274.267 288.118 275.384C288.284 275.757 288.435 276.129 288.594 276.502C288.898 277.24 289.202 277.985 289.485 278.73C289.636 279.11 289.774 279.482 289.926 279.862C290.209 280.614 290.478 281.373 290.748 282.125C290.982 282.787 291.21 283.456 291.424 284.132C291.59 284.636 291.755 285.133 291.914 285.643C292.135 286.34 292.342 287.037 292.542 287.727C292.908 288.982 293.253 290.245 293.571 291.514C294.054 293.418 294.475 295.343 294.854 297.275C294.979 297.916 295.103 298.565 295.213 299.213C295.331 299.862 295.434 300.51 295.538 301.166C295.634 301.814 295.731 302.463 295.821 303.125C295.903 303.732 295.986 304.339 296.055 304.953C296.069 305.057 296.083 305.153 296.097 305.257C296.166 305.857 296.235 306.45 296.29 307.051C296.352 307.706 296.421 308.361 296.469 309.024C296.587 310.335 296.67 311.666 296.732 312.991L297.049 320.007V320Z" fill="#E1B238"/>
<path d="M296.042 320H283.915L283.625 313.646C282.7 293.191 276.212 273.515 265.031 256.661C264.299 255.557 263.547 254.474 262.774 253.39C260.248 249.851 257.508 246.45 254.554 243.201H265.838C267.033 244.456 268.206 245.726 269.338 247.037C270.49 248.361 271.609 249.706 272.685 251.086C275.06 254.087 277.254 257.206 279.277 260.434C280.415 262.242 281.492 264.084 282.507 265.947C283.038 266.899 283.549 267.871 284.046 268.837C285.136 270.983 286.158 273.163 287.11 275.384C287.276 275.757 287.428 276.129 287.587 276.502C287.89 277.24 288.194 277.985 288.477 278.73C288.629 279.11 288.767 279.482 288.919 279.862C289.202 280.614 289.471 281.373 289.74 282.125C293.198 291.99 295.234 302.38 295.717 312.984L296.035 320H296.042Z" fill="#7F6113"/>
</g>
<path d="M227.369 278.854L226.456 281.356L265.276 295.51L266.189 293.008L227.369 278.854Z" fill="#D28717"/>
<path d="M215.723 131.734C211.354 116.419 231.135 95.1767 249.294 121.2L215.723 131.734Z" fill="black"/>
<path d="M253.725 140.875L255.251 177.778L235.27 187.14L227.926 149.099L253.725 140.875Z" fill="#EDB1A6"/>
<path d="M247.486 154.749C256.21 167.216 263.319 164.084 267.619 143.58C272.264 121.42 259.868 104.718 222.832 121.8L247.486 154.749Z" fill="black"/>
<path d="M232.15 170.975C232.15 170.975 241.909 166.781 242.51 155.494L230.293 161.931L232.15 170.975Z" fill="#E38B7A"/>
<path d="M252.462 131.527L249.267 139.827L247.804 143.607L243.89 153.763C241.778 159.247 236.974 163.242 231.197 164.325L222.218 166.008C214.432 167.471 207.351 161.338 207.593 153.425C207.772 147.616 208.586 140.917 211.63 134.059C215.171 126.091 222.591 120.427 230.797 118.799H230.832L232.267 118.543L232.419 118.523C233.13 118.426 233.861 118.364 234.586 118.33C236.312 118.233 238.072 118.316 239.832 118.578L245.409 119.413C251.089 120.268 254.519 126.16 252.455 131.513L252.462 131.527Z" fill="#EDB1A6"/>
<path d="M211.168 139.606C210.968 141.717 211.582 143.497 212.541 143.594C213.501 143.684 214.446 142.055 214.653 139.944C214.853 137.833 214.239 136.053 213.28 135.957C212.32 135.867 211.375 137.495 211.168 139.606Z" fill="black"/>
<path d="M219.229 137.585C218.111 142.145 215.309 143.477 213.273 143.828C211.961 144.049 211.044 145.229 211.14 146.553C211.271 148.299 212.417 149.803 214.06 150.396L219.892 152.487C223.067 153.025 226.014 150.72 226.249 147.512L227.056 136.64L219.222 137.585H219.229Z" fill="#EDB1A6"/>
<path d="M213.722 151.334C211.706 150.61 210.298 148.761 210.139 146.622C210.001 144.773 211.278 143.145 213.1 142.842C214.916 142.531 217.283 141.331 218.256 137.35L220.196 137.826C218.898 143.125 215.399 144.477 213.432 144.815C212.631 144.953 212.065 145.67 212.127 146.484C212.224 147.837 213.114 149.002 214.391 149.458L213.715 151.334H213.722Z" fill="#E38B7A"/>
<path d="M242.413 142.552C268.406 127.933 267.26 159.744 241.833 154.659L242.413 142.552Z" fill="#EDB1A6"/>
<path d="M223.971 141.51C223.771 143.621 224.385 145.401 225.344 145.498C226.304 145.587 227.249 143.952 227.456 141.848C227.657 139.737 227.042 137.957 226.083 137.86C225.124 137.771 224.178 139.399 223.971 141.51Z" fill="black"/>
<path d="M229.403 133.135C234.2 135.136 235.518 132.673 232.074 130.589C228.374 128.347 223.433 130.644 229.403 133.135Z" fill="black"/>
<path d="M215.578 130.886C219.319 130.278 218.284 127.926 215.15 127.891C211.782 127.85 210.919 131.644 215.578 130.886Z" fill="black"/>
<path d="M244.594 145.498C237.968 144.56 234 137.316 237.361 126.188C237.361 126.188 233.068 121.02 226.718 119.965C226.718 119.965 241.668 111.389 252.711 118.992C263.754 126.595 244.594 145.498 244.594 145.498Z" fill="black"/>
<path d="M207.213 187.471L214.791 200.09L225.206 221.049L225.759 222.139L229.506 229.686L238.776 248.334C248.908 242.028 260.814 234.922 269.987 223.594C270.615 222.808 271.229 222.028 271.822 221.207C274.114 218.11 276.198 214.715 277.993 210.948C285.199 195.874 276.198 178.165 260.082 174.688C259.661 174.591 259.219 174.515 258.819 174.439L234.759 170.41L223.232 172.894C222.639 173.011 222.087 173.163 221.548 173.349C213.066 176.178 209.691 180.193 207.206 187.471H207.213Z" fill="#7DDA75"/>
<path d="M217.49 198.213L241.592 202.815C247.962 184.512 254.871 179.586 260.075 174.694C259.661 174.591 259.233 174.508 258.819 174.446L234.773 170.417L223.232 172.887C222.66 173.011 222.101 173.156 221.569 173.363C217.559 185.146 217.497 198.22 217.497 198.22L217.49 198.213Z" fill="#EDB1A6"/>
<path d="M221.562 173.356L220.693 198.765L217.49 198.213C217.49 198.213 217.331 184.029 221.562 173.356Z" fill="#E38B7A"/>
<path d="M227.65 253.26L268.399 253.412C272.775 253.432 276.122 249.555 275.474 245.236L272.168 223.67L269.987 223.594L248.908 222.904L238.451 222.559L232.143 222.352L225.759 222.146L217.483 221.876L216.793 231.507L216.144 240.869C215.689 247.554 220.962 253.232 227.65 253.267V253.26Z" fill="#7DDA75"/>
<path d="M206.626 215.605C206.626 221.069 211.251 227.623 216.793 231.5C220.389 234.005 224.344 235.398 227.705 234.674L229.499 229.686L232.136 222.352L232.267 222.028L232.805 220.517L215.813 198.22C215.488 198.848 215.143 199.462 214.777 200.089C211.416 205.822 206.619 211.376 206.619 215.598L206.626 215.605Z" fill="#7DDA75"/>
<path d="M216.793 231.5L216.144 240.862C215.689 247.547 220.962 253.225 227.65 253.26L268.399 253.412C272.775 253.432 276.122 249.555 275.474 245.236L268.558 195.64C268.558 195.64 243.324 195.571 239.735 227.265C239.735 227.265 229.506 229.693 208.814 222.753C210.671 226.099 213.57 229.245 216.8 231.5H216.793Z" fill="#27B63E"/>
<path d="M217.117 233.501C198.903 219.02 204.99 211.073 210.36 204.056C211.23 202.918 212.134 201.745 212.914 200.565L215.129 202.035C214.294 203.291 213.369 204.498 212.472 205.671C207.178 212.583 202.602 218.558 218.774 231.411L217.117 233.494V233.501Z" fill="#27B63E"/>
<path d="M163.82 218.634L157.788 208.927C157.788 208.927 166.201 213.114 171.992 212.431C185.161 210.865 192.167 202.938 192.167 202.938L232.502 240.841C232.502 240.841 229.513 245.395 219.712 247.106C209.912 248.817 163.813 218.634 163.813 218.634H163.82Z" fill="white"/>
<path d="M163.82 218.634L156.235 210.824C156.235 210.824 167.713 210.617 173.483 211.438C184.381 212.983 191.483 205.077 191.483 205.077L232.495 244.236C232.495 244.236 229.52 245.402 219.719 247.113C209.918 248.823 163.82 218.641 163.82 218.641V218.634Z" fill="#F0F2F6"/>
<path d="M161.674 209.003L179.501 206.636C180.309 206.526 181.116 206.802 181.689 207.381L185.168 210.872L164.786 213.294C164.607 213.314 164.421 213.252 164.289 213.128L159.7 212.052L160.618 209.817C160.797 209.375 161.204 209.065 161.674 209.003Z" fill="#FDFAF7"/>
<path d="M155.448 213.963C155.752 213.425 156.297 213.052 156.911 212.97L189.979 208.499C191.539 208.299 193.098 208.83 194.216 209.934L231.667 246.981L198.116 247.319L154.247 216.074L155.441 213.956L155.448 213.963Z" fill="#DCC07A"/>
<path d="M230.832 249.707L218.27 249.831L197.274 250.038L165.794 226.05L154.551 217.488C153.764 216.888 154.102 215.639 155.082 215.522L189.137 211.224C190.696 211.024 192.256 211.555 193.374 212.659L230.825 249.707H230.832Z" fill="#BE822B"/>
<path d="M218.27 249.831L197.274 250.038L165.794 226.05C166.698 225.298 167.934 224.718 169.597 224.311C173.69 223.318 178.038 223.38 182.172 224.091C188.653 225.194 194.769 227.83 200.801 230.445C204.618 232.093 208.476 233.77 211.741 236.329C215.012 238.889 217.683 242.476 218.256 246.595C218.408 247.671 218.401 248.754 218.27 249.824V249.831Z" fill="#A56B16"/>
<path d="M182.152 213.39L183.65 209.361L178.929 209.582L182.152 213.39Z" fill="#FDFAF7"/>
<path d="M160.21 211.59L177.928 209.237C178.3 209.189 178.673 209.313 178.935 209.582L182.048 212.707C182.393 213.052 182.186 213.646 181.703 213.708L163.834 215.812C163.475 215.853 163.116 215.736 162.861 215.481L159.879 212.59C159.527 212.245 159.72 211.652 160.21 211.583V211.59Z" fill="#E9E1E0"/>
<path d="M196.839 251.549L169.28 232.749L204.68 235.412L207.675 247.258L196.839 251.549Z" fill="#EDB1A6"/>
<path d="M201.891 236.64L206.875 235.936C208.345 235.729 209.228 234.191 208.655 232.818L208.483 232.397C207.406 229.796 204.328 228.692 201.836 230.003C200.166 230.886 199.172 232.666 199.303 234.549C199.393 235.867 200.58 236.833 201.891 236.647V236.64Z" fill="#EDB1A6"/>
<path d="M190.945 236.419L169.286 232.749L169.031 232.114C168.017 229.61 165.96 227.678 163.392 226.836C162.978 226.698 162.716 226.312 162.73 225.898C162.73 225.836 162.743 225.767 162.757 225.705C163.144 223.98 164.69 222.821 166.388 222.856C166.671 222.856 166.954 222.911 167.243 222.987L168.527 223.428L168.658 223.477C170.874 224.242 172.565 226.05 173.193 228.306L190.386 236.178L190.945 236.433V236.419Z" fill="#EDB1A6"/>
<path d="M182.897 237.33L173.02 233.922C171.626 229.699 169.259 228.071 166.691 227.23C166.277 227.092 166.015 226.705 166.029 226.291C166.029 226.229 166.043 226.16 166.056 226.098C166.346 224.774 167.326 223.787 168.527 223.421L168.658 223.47C170.874 224.235 172.565 226.043 173.193 228.299L175.063 232.88L182.904 237.337L182.897 237.33Z" fill="#E38B7A"/>
<path d="M175.057 232.88L174.801 232.245C173.793 229.741 171.73 227.809 169.169 226.967C168.693 226.809 168.417 226.319 168.527 225.836C168.976 223.821 171.012 222.587 173.014 223.111L174.428 223.608C176.644 224.38 178.342 226.188 178.97 228.444L196.722 236.564L175.057 232.887V232.88Z" fill="#EDB1A6"/>
<path d="M252.952 263.739L196.632 251.624C196.632 251.624 201.829 241.214 244.96 240.414L252.952 263.739Z" fill="#EDB1A6"/>
<path d="M260.075 174.687C273.762 171.003 283.811 180.351 284.957 191.334L269.724 249.382C267.674 257.185 261.007 262.904 252.98 263.739L244.96 240.414L260.068 174.687H260.075Z" fill="#7DDA75"/>
<path d="M281.223 178.475C273.279 183.676 261.304 185.001 255.251 182.973C251.103 181.579 247.534 172.935 247.479 155.211C260.241 155.046 261.407 150.837 261.407 150.837L260.075 167.181L281.223 178.482V178.475Z" fill="black"/>
<path d="M216.254 153.742C218.484 152.804 221.845 153.183 222.901 153.797C223.716 154.266 221.831 157.55 219.878 157.798C217.759 158.067 215.012 154.266 216.254 153.742Z" fill="white"/>
<g style="mix-blend-mode:multiply" opacity="0.3">
<path d="M163.287 100.088C154.19 100.088 146.819 92.7203 146.819 83.6274C146.819 74.5346 154.19 67.1665 163.287 67.1665C172.384 67.1665 179.755 74.5346 179.755 83.6274C179.755 92.7203 172.384 100.088 163.287 100.088Z" fill="#D8DCE2"/>
</g>
<path d="M184.262 80.0614C184.262 80.4615 184.242 80.8617 184.207 81.2549C183.924 84.8286 182.351 88.0504 179.962 90.4374C177.305 93.0935 173.626 94.7424 169.568 94.7424H165.13C157.013 94.7424 150.443 88.1677 150.443 80.0614C150.443 76.0048 152.085 72.3345 154.743 69.6784C156.868 67.5535 159.643 66.0772 162.749 65.5735C163.522 65.4425 164.323 65.3804 165.137 65.3804H169.575C173.633 65.3804 177.305 67.0223 179.969 69.6853C182.62 72.3345 184.269 76.0117 184.269 80.0683L184.262 80.0614Z" fill="#D2881D"/>
<mask id="mask5_1517_16944" style="mask-type:luminance" maskUnits="userSpaceOnUse" x="150" y="65" width="35" height="30">
<path d="M169.575 65.3804H165.137C157.026 65.3804 150.45 71.9533 150.45 80.0614C150.45 88.1695 157.026 94.7424 165.137 94.7424H169.575C177.687 94.7424 184.263 88.1695 184.263 80.0614C184.263 71.9533 177.687 65.3804 169.575 65.3804Z" fill="white"/>
</mask>
<g mask="url(#mask5_1517_16944)">
<path d="M164.916 69.9331H148.151V72.9825H164.916V69.9331Z" fill="#CC7900"/>
<path d="M164.916 77.4048H148.151V80.4541H164.916V77.4048Z" fill="#CC7900"/>
<path d="M164.916 74.1694H148.151V75.9494H164.916V74.1694Z" fill="#CC7900"/>
<path d="M164.916 83.7451H148.151V85.5251H164.916V83.7451Z" fill="#CC7900"/>
<path d="M165.289 87.0151H148.524V88.7951H165.289V87.0151Z" fill="#CC7900"/>
<path d="M165.289 66.6562H148.524V68.4362H165.289V66.6562Z" fill="#CC7900"/>
<path d="M165.289 91.6514H148.524V93.4313H165.289V91.6514Z" fill="#CC7900"/>
</g>
<path d="M184.262 80.0609C184.262 80.4611 184.242 80.8612 184.207 81.2545C183.924 84.8281 182.351 88.05 179.962 90.437C177.305 93.0931 173.626 94.742 169.568 94.742C161.458 94.742 154.888 88.1672 154.888 80.0609C154.888 76.0044 156.53 72.3341 159.187 69.678C160.174 68.6915 161.299 67.8429 162.535 67.1668C164.619 66.0216 167.021 65.373 169.568 65.373C173.626 65.373 177.298 67.015 179.962 69.678C182.613 72.3272 184.262 76.0044 184.262 80.0609Z" fill="#F2CB6D"/>
<mask id="mask6_1517_16944" style="mask-type:luminance" maskUnits="userSpaceOnUse" x="154" y="65" width="31" height="30">
<path d="M169.575 94.7419C161.465 94.7419 154.888 88.1672 154.888 80.0609C154.888 71.9546 161.465 65.3799 169.575 65.3799C177.685 65.3799 184.262 71.9546 184.262 80.0609C184.262 88.1672 177.685 94.7419 169.575 94.7419Z" fill="white"/>
</mask>
<g mask="url(#mask6_1517_16944)">
<path d="M183.534 61.4661L146.151 86.2456L151.182 93.8294L188.565 69.0499L183.534 61.4661Z" fill="#F4D79A"/>
<path d="M191.939 70.4905L154.556 95.27L157.07 99.059L194.453 74.2795L191.939 70.4905Z" fill="#F4D79A"/>
</g>
<path d="M180.565 81.846C181.556 75.7727 177.433 70.0466 171.357 69.0564C165.281 68.0663 159.553 72.1869 158.562 78.2602C157.571 84.3335 161.694 90.0595 167.77 91.0497C173.846 92.0399 179.574 87.9192 180.565 81.846Z" fill="#D2881D"/>
<path d="M180.729 80.0608C180.729 86.2147 175.732 91.2027 169.575 91.2027C168.974 91.2027 168.395 91.1544 167.822 91.0578C173.15 90.2161 177.209 85.6145 177.209 80.0608C177.209 74.5072 173.143 69.8987 167.822 69.057C168.395 68.9604 168.981 68.9121 169.575 68.9121C175.732 68.9121 180.729 73.907 180.729 80.0608Z" fill="#CC7900"/>
<path d="M166.918 71.106H169.113V73.0446C169.92 73.1825 170.514 73.5137 170.893 74.038C171.273 74.5692 171.48 75.3281 171.528 76.3285C171.542 76.5768 171.542 76.8735 171.535 77.2184C171.535 77.5703 171.514 77.8876 171.494 78.1774H169.064C169.085 77.7842 169.099 77.3909 169.106 77.0046C169.106 76.6182 169.106 76.2319 169.078 75.8524C169.064 75.5834 168.968 75.3764 168.781 75.2315C168.595 75.0867 168.346 75.0108 168.029 75.0108C167.691 75.0108 167.442 75.0867 167.277 75.2315C167.111 75.3764 167.014 75.5834 166.98 75.8524C166.911 76.4251 166.911 77.0046 166.98 77.591C167 77.8187 167.083 78.0187 167.214 78.205C167.352 78.3913 167.56 78.5154 167.836 78.5844L169.03 78.8742C169.975 79.1019 170.624 79.4882 170.983 80.0401C171.342 80.592 171.542 81.2957 171.577 82.165C171.59 82.3582 171.59 82.5582 171.583 82.779C171.583 82.9998 171.57 83.2067 171.556 83.393C171.507 84.4141 171.3 85.1936 170.921 85.718C170.541 86.2492 169.934 86.5803 169.092 86.7114V88.4638H166.897V86.6976C166.076 86.5596 165.482 86.2285 165.116 85.7042C164.75 85.1729 164.543 84.4072 164.502 83.393C164.488 83.124 164.488 82.8204 164.495 82.4755C164.495 82.1305 164.523 81.827 164.571 81.5579H166.945C166.925 81.9718 166.911 82.3789 166.904 82.779C166.904 83.1791 166.911 83.5379 166.945 83.869C167 84.4417 167.352 84.7314 168.008 84.7314C168.333 84.7314 168.574 84.6555 168.733 84.5107C168.892 84.3658 168.988 84.1519 169.023 83.869C169.092 83.2964 169.092 82.7307 169.023 82.165C169.002 81.9304 168.926 81.7166 168.802 81.5234C168.678 81.3302 168.484 81.206 168.215 81.1371L166.835 80.7852C165.958 80.5575 165.344 80.185 164.999 79.6538C164.654 79.1226 164.467 78.4396 164.44 77.5979C164.426 77.1494 164.426 76.7286 164.44 76.3354C164.481 75.3212 164.695 74.5554 165.061 74.038C165.434 73.5137 166.041 73.1894 166.897 73.0515V71.1129L166.918 71.106Z" fill="#CC7900"/>
<path d="M168.864 71.106H171.059V73.0446C171.866 73.1825 172.46 73.5137 172.84 74.038C173.219 74.5692 173.426 75.3281 173.475 76.3285C173.488 76.5768 173.488 76.8735 173.481 77.2184C173.481 77.5703 173.461 77.8876 173.44 78.1774H171.011C171.031 77.7842 171.045 77.3909 171.052 77.0046C171.052 76.6182 171.052 76.2319 171.024 75.8524C171.011 75.5834 170.914 75.3764 170.728 75.2315C170.541 75.0867 170.293 75.0108 169.975 75.0108C169.637 75.0108 169.389 75.0867 169.223 75.2315C169.057 75.3764 168.961 75.5834 168.926 75.8524C168.857 76.4251 168.857 77.0046 168.926 77.591C168.947 77.8187 169.03 78.0187 169.161 78.205C169.299 78.3913 169.506 78.5154 169.782 78.5844L170.976 78.8742C171.922 79.1019 172.57 79.4882 172.929 80.0401C173.288 80.592 173.488 81.2957 173.523 82.165C173.537 82.3582 173.537 82.5582 173.53 82.779C173.53 82.9998 173.516 83.2067 173.502 83.393C173.454 84.4141 173.247 85.1936 172.867 85.718C172.488 86.2492 171.88 86.5803 171.038 86.7114V88.4638H168.843V86.6976C168.022 86.5596 167.428 86.2285 167.063 85.7042C166.697 85.1729 166.49 84.4072 166.448 83.393C166.435 83.124 166.435 82.8204 166.441 82.4755C166.441 82.1305 166.469 81.827 166.517 81.5579H168.892C168.871 81.9718 168.857 82.3789 168.85 82.779C168.85 83.1791 168.857 83.5379 168.892 83.869C168.947 84.4417 169.299 84.7314 169.955 84.7314C170.279 84.7314 170.521 84.6555 170.679 84.5107C170.838 84.3658 170.935 84.1519 170.969 83.869C171.038 83.2964 171.038 82.7307 170.969 82.165C170.948 81.9304 170.873 81.7166 170.748 81.5234C170.624 81.3302 170.431 81.206 170.162 81.1371L168.781 80.7852C167.905 80.5575 167.29 80.185 166.945 79.6538C166.6 79.1226 166.414 78.4396 166.386 77.5979C166.372 77.1494 166.372 76.7286 166.386 76.3354C166.428 75.3212 166.642 74.5554 167.007 74.038C167.38 73.5137 167.987 73.1894 168.843 73.0515V71.1129L168.864 71.106Z" fill="#F2CB6D"/>
<path d="M168.864 71.106H171.059V73.0446C171.866 73.1825 172.46 73.5137 172.84 74.038C173.219 74.5692 173.426 75.3281 173.475 76.3285C173.488 76.5768 173.488 76.8735 173.481 77.2184C173.481 77.5703 173.461 77.8876 173.44 78.1774H171.011C171.031 77.7842 171.045 77.3909 171.052 77.0046C171.052 76.6182 171.052 76.2319 171.024 75.8524C171.011 75.5834 170.914 75.3764 170.728 75.2315C170.541 75.0867 170.293 75.0108 169.975 75.0108C169.637 75.0108 169.389 75.0867 169.223 75.2315C169.057 75.3764 168.961 75.5834 168.926 75.8524C168.857 76.4251 168.857 77.0046 168.926 77.591C168.947 77.8187 169.03 78.0187 169.161 78.205C169.299 78.3913 169.506 78.5154 169.782 78.5844L170.976 78.8742C171.922 79.1019 172.57 79.4882 172.929 80.0401C173.288 80.592 173.488 81.2957 173.523 82.165C173.537 82.3582 173.537 82.5582 173.53 82.779C173.53 82.9998 173.516 83.2067 173.502 83.393C173.454 84.4141 173.247 85.1936 172.867 85.718C172.488 86.2492 171.88 86.5803 171.038 86.7114V88.4638H168.843V86.6976C168.022 86.5596 167.428 86.2285 167.063 85.7042C166.697 85.1729 166.49 84.4072 166.448 83.393C166.435 83.124 166.435 82.8204 166.441 82.4755C166.441 82.1305 166.469 81.827 166.517 81.5579H168.892C168.871 81.9718 168.857 82.3789 168.85 82.779C168.85 83.1791 168.857 83.5379 168.892 83.869C168.947 84.4417 169.299 84.7314 169.955 84.7314C170.279 84.7314 170.521 84.6555 170.679 84.5107C170.838 84.3658 170.935 84.1519 170.969 83.869C171.038 83.2964 171.038 82.7307 170.969 82.165C170.948 81.9304 170.873 81.7166 170.748 81.5234C170.624 81.3302 170.431 81.206 170.162 81.1371L168.781 80.7852C167.905 80.5575 167.29 80.185 166.945 79.6538C166.6 79.1226 166.414 78.4396 166.386 77.5979C166.372 77.1494 166.372 76.7286 166.386 76.3354C166.428 75.3212 166.642 74.5554 167.007 74.038C167.38 73.5137 167.987 73.1894 168.843 73.0515V71.1129L168.864 71.106Z" fill="#F4D79A"/>
<g style="mix-blend-mode:multiply" opacity="0.3">
<path d="M184.262 80.0609C184.262 80.461 184.242 80.8612 184.207 81.2544C182.123 82.3996 179.714 83.0481 177.167 83.0481C169.057 83.0481 162.487 76.4734 162.487 68.3671C162.487 67.967 162.507 67.56 162.542 67.1736C162.583 66.6286 162.652 66.0974 162.756 65.5731C163.529 65.442 164.329 65.3799 165.144 65.3799H169.582C173.64 65.3799 177.312 67.0218 179.976 69.6848C182.627 72.334 184.276 76.0112 184.276 80.0678L184.262 80.0609Z" fill="#A6705D"/>
</g>
<path d="M190.937 76.4458L187.023 78.5362C179.873 82.3582 170.969 79.6608 167.145 72.5134C163.322 65.3661 166.02 56.4664 173.171 52.6444L177.084 50.554C184.235 46.732 193.138 49.4295 196.962 56.5768C200.786 63.7241 198.087 72.6238 190.937 76.4458Z" fill="#D2881D"/>
<mask id="mask7_1517_16944" style="mask-type:luminance" maskUnits="userSpaceOnUse" x="165" y="48" width="34" height="33">
<path d="M190.937 76.4458L187.023 78.5362C179.873 82.3582 170.969 79.6608 167.145 72.5134C163.322 65.3661 166.02 56.4664 173.171 52.6444L177.084 50.554C184.235 46.732 193.138 49.4295 196.962 56.5768C200.786 63.7241 198.087 72.6238 190.937 76.4458Z" fill="white"/>
</mask>
<g mask="url(#mask7_1517_16944)">
<path d="M175.116 56.77L160.333 64.6733L161.772 67.3622L176.555 59.4589L175.116 56.77Z" fill="#CC7900"/>
<path d="M178.643 63.352L163.86 71.2554L165.299 73.9443L180.082 66.0409L178.643 63.352Z" fill="#CC7900"/>
<path d="M177.116 60.4941L162.333 68.3975L163.173 69.967L177.956 62.0637L177.116 60.4941Z" fill="#CC7900"/>
<path d="M181.639 68.9472L166.856 76.8506L167.696 78.4201L182.479 70.5168L181.639 68.9472Z" fill="#CC7900"/>
<path d="M183.502 71.6509L168.719 79.5542L169.558 81.1237L184.342 73.2204L183.502 71.6509Z" fill="#CC7900"/>
<path d="M173.897 53.7002L159.113 61.6035L159.953 63.1731L174.737 55.2697L173.897 53.7002Z" fill="#CC7900"/>
<path d="M185.691 75.7378L170.908 83.6411L171.748 85.2107L186.531 77.3073L185.691 75.7378Z" fill="#CC7900"/>
</g>
<path d="M190.937 76.4458C183.786 80.2679 174.883 77.5704 171.059 70.423C167.235 63.2757 169.934 54.376 177.084 50.554C184.235 46.732 193.138 49.4295 196.962 56.5768C200.786 63.7241 198.087 72.6238 190.937 76.4458Z" fill="#F2CB6D"/>
<mask id="mask8_1517_16944" style="mask-type:luminance" maskUnits="userSpaceOnUse" x="169" y="48" width="30" height="31">
<path d="M190.937 76.4458C183.786 80.2679 174.883 77.5704 171.059 70.423C167.235 63.2757 169.934 54.376 177.084 50.554C184.235 46.732 193.138 49.4295 196.962 56.5768C200.786 63.7241 198.087 72.6238 190.937 76.4458Z" fill="white"/>
</mask>
<g mask="url(#mask8_1517_16944)">
<path d="M187.532 40.5194L166.259 79.9932L174.274 84.3086L195.546 44.8349L187.532 40.5194Z" fill="#F4D79A"/>
<path d="M199.225 44.5481L177.946 84.0181L181.95 86.1749L203.23 46.7049L199.225 44.5481Z" fill="#F4D79A"/>
</g>
<path d="M184.007 74.645C190.163 74.645 195.154 69.6566 195.154 63.5032C195.154 57.3497 190.163 52.3613 184.007 52.3613C177.851 52.3613 172.86 57.3497 172.86 63.5032C172.86 69.6566 177.851 74.645 184.007 74.645Z" fill="#D2881D"/>
<path d="M193.835 58.2465C196.741 63.676 194.684 70.4231 189.259 73.3276C188.735 73.6105 188.197 73.845 187.644 74.0313C191.944 70.7819 193.359 64.8074 190.736 59.9091C188.114 55.0108 182.357 52.8584 177.264 54.6314C177.719 54.2727 178.216 53.9622 178.748 53.6793C184.18 50.7749 190.937 52.8239 193.842 58.2534L193.835 58.2465Z" fill="#CC7900"/>
<path d="M177.436 56.8596L179.369 55.8247L180.28 57.5356C181.06 57.2735 181.736 57.2873 182.316 57.577C182.896 57.8668 183.441 58.4394 183.952 59.3018C184.076 59.5157 184.221 59.7778 184.38 60.0883C184.538 60.3987 184.676 60.6885 184.794 60.9575L182.654 62.1028C182.489 61.744 182.316 61.3922 182.137 61.0472C181.957 60.7023 181.771 60.3642 181.571 60.04C181.433 59.8054 181.246 59.6674 181.018 59.626C180.784 59.5846 180.528 59.6398 180.252 59.7847C179.956 59.9434 179.769 60.1297 179.693 60.3297C179.617 60.5367 179.631 60.7644 179.728 61.0196C179.942 61.5577 180.211 62.0683 180.549 62.5512C180.673 62.7375 180.839 62.8823 181.046 62.9858C181.253 63.0824 181.495 63.0962 181.778 63.0272L182.972 62.7168C183.91 62.4684 184.67 62.5029 185.242 62.8203C185.822 63.1376 186.326 63.6688 186.768 64.4139C186.864 64.5795 186.968 64.7589 187.065 64.952C187.161 65.1452 187.251 65.3315 187.334 65.504C187.775 66.4284 187.955 67.208 187.872 67.8496C187.789 68.4912 187.41 69.0707 186.726 69.5881L187.555 71.1335L185.622 72.1684L184.787 70.6092C184 70.8783 183.317 70.8645 182.751 70.5678C182.178 70.2711 181.633 69.6916 181.122 68.8224C180.984 68.5878 180.839 68.3187 180.68 68.0152C180.522 67.7116 180.404 67.4288 180.314 67.1666L182.413 66.049C182.592 66.4284 182.772 66.7941 182.951 67.1459C183.137 67.4978 183.317 67.8151 183.503 68.0842C183.821 68.5602 184.269 68.6499 184.842 68.3394C185.132 68.1877 185.305 68.0083 185.381 67.8013C185.45 67.6012 185.436 67.3667 185.332 67.1045C185.118 66.5664 184.856 66.0697 184.532 65.6005C184.4 65.4005 184.235 65.2487 184.035 65.1383C183.834 65.0279 183.6 65.0072 183.331 65.0762L181.943 65.4143C181.067 65.6281 180.349 65.5867 179.79 65.2832C179.231 64.9796 178.748 64.4622 178.327 63.7309C178.106 63.3377 177.906 62.9651 177.733 62.6133C177.298 61.7026 177.119 60.923 177.195 60.2883C177.278 59.6536 177.657 59.0741 178.347 58.5498L177.436 56.8389V56.8596Z" fill="#CC7900"/>
<path d="M179.155 55.9421L181.087 54.9072L181.998 56.6182C182.778 56.356 183.455 56.3698 184.035 56.6596C184.614 56.9493 185.16 57.5219 185.67 58.3843C185.795 58.5982 185.94 58.8603 186.098 59.1708C186.257 59.4812 186.395 59.771 186.512 60.0401L184.373 61.1853C184.207 60.8265 184.035 60.4747 183.855 60.1297C183.676 59.7848 183.489 59.4467 183.289 59.1225C183.151 58.8879 182.965 58.75 182.737 58.7086C182.502 58.6672 182.247 58.7224 181.971 58.8672C181.674 59.0259 181.488 59.2122 181.412 59.4123C181.336 59.6192 181.35 59.8469 181.446 60.1021C181.66 60.6403 181.929 61.1508 182.268 61.6337C182.392 61.82 182.558 61.9649 182.765 62.0684C182.972 62.1649 183.213 62.1787 183.496 62.1097L184.69 61.7993C185.629 61.5509 186.388 61.5854 186.961 61.9028C187.541 62.2201 188.045 62.7514 188.486 63.4964C188.583 63.662 188.687 63.8414 188.783 64.0346C188.88 64.2277 188.97 64.414 189.052 64.5865C189.494 65.5109 189.674 66.2905 189.591 66.9321C189.508 67.5737 189.128 68.1532 188.445 68.6707L189.273 70.216L187.341 71.2509L186.505 69.6917C185.719 69.9608 185.035 69.947 184.469 69.6503C183.897 69.3537 183.351 68.7742 182.841 67.9049C182.703 67.6703 182.558 67.4013 182.399 67.0977C182.24 66.7941 182.123 66.5113 182.033 66.2491L184.131 65.1315C184.311 65.5109 184.49 65.8766 184.67 66.2284C184.856 66.5803 185.035 66.8976 185.222 67.1667C185.539 67.6427 185.988 67.7324 186.561 67.422C186.851 67.2702 187.023 67.0908 187.099 66.8838C187.168 66.6838 187.154 66.4492 187.051 66.187C186.837 65.6489 186.575 65.1522 186.25 64.6831C186.119 64.483 185.953 64.3312 185.753 64.2208C185.553 64.1104 185.318 64.0898 185.049 64.1587L183.662 64.4968C182.785 64.7107 182.068 64.6693 181.508 64.3657C180.949 64.0622 180.466 63.5447 180.045 62.8134C179.824 62.4202 179.624 62.0477 179.452 61.6958C179.017 60.7851 178.837 60.0056 178.913 59.3709C178.996 58.7362 179.376 58.1566 180.066 57.6323L179.155 55.9214V55.9421Z" fill="#F2CB6D"/>
<path d="M179.155 55.9421L181.087 54.9072L181.998 56.6182C182.778 56.356 183.455 56.3698 184.035 56.6596C184.614 56.9493 185.16 57.5219 185.67 58.3843C185.795 58.5982 185.94 58.8603 186.098 59.1708C186.257 59.4812 186.395 59.771 186.512 60.0401L184.373 61.1853C184.207 60.8265 184.035 60.4747 183.855 60.1297C183.676 59.7848 183.489 59.4467 183.289 59.1225C183.151 58.8879 182.965 58.75 182.737 58.7086C182.502 58.6672 182.247 58.7224 181.971 58.8672C181.674 59.0259 181.488 59.2122 181.412 59.4123C181.336 59.6192 181.35 59.8469 181.446 60.1021C181.66 60.6403 181.929 61.1508 182.268 61.6337C182.392 61.82 182.558 61.9649 182.765 62.0684C182.972 62.1649 183.213 62.1787 183.496 62.1097L184.69 61.7993C185.629 61.5509 186.388 61.5854 186.961 61.9028C187.541 62.2201 188.045 62.7514 188.486 63.4964C188.583 63.662 188.687 63.8414 188.783 64.0346C188.88 64.2277 188.97 64.414 189.052 64.5865C189.494 65.5109 189.674 66.2905 189.591 66.9321C189.508 67.5737 189.128 68.1532 188.445 68.6707L189.273 70.216L187.341 71.2509L186.505 69.6917C185.719 69.9608 185.035 69.947 184.469 69.6503C183.897 69.3537 183.351 68.7742 182.841 67.9049C182.703 67.6703 182.558 67.4013 182.399 67.0977C182.24 66.7941 182.123 66.5113 182.033 66.2491L184.131 65.1315C184.311 65.5109 184.49 65.8766 184.67 66.2284C184.856 66.5803 185.035 66.8976 185.222 67.1667C185.539 67.6427 185.988 67.7324 186.561 67.422C186.851 67.2702 187.023 67.0908 187.099 66.8838C187.168 66.6838 187.154 66.4492 187.051 66.187C186.837 65.6489 186.575 65.1522 186.25 64.6831C186.119 64.483 185.953 64.3312 185.753 64.2208C185.553 64.1104 185.318 64.0898 185.049 64.1587L183.662 64.4968C182.785 64.7107 182.068 64.6693 181.508 64.3657C180.949 64.0622 180.466 63.5447 180.045 62.8134C179.824 62.4202 179.624 62.0477 179.452 61.6958C179.017 60.7851 178.837 60.0056 178.913 59.3709C178.996 58.7362 179.376 58.1566 180.066 57.6323L179.155 55.9214V55.9421Z" fill="#F4D79A"/>
<path d="M31.1141 233.274L10.3184 240.083C8.43417 234.336 11.5677 228.161 17.3101 226.285C23.0595 224.401 29.2299 227.534 31.1141 233.274Z" fill="#D88472"/>
<path d="M49.1283 35.8042L60.8686 27.5254C63.1531 30.7679 62.3801 35.2453 59.1362 37.5289C55.8922 39.8125 51.4129 39.0398 49.1283 35.7973V35.8042Z" fill="#5A7F6C"/>
<path d="M145.052 285.947C146.962 285.947 148.51 284.399 148.51 282.491C148.51 280.582 146.962 279.034 145.052 279.034C143.142 279.034 141.594 280.582 141.594 282.491C141.594 284.399 143.142 285.947 145.052 285.947Z" fill="#5A7F6C"/>
<path d="M310.293 125.373C310.293 127.277 308.747 128.83 306.835 128.83C304.923 128.83 303.377 127.284 303.377 125.373C303.377 123.462 304.923 121.917 306.835 121.917C308.747 121.917 310.293 123.462 310.293 125.373Z" fill="#E2B754"/>
<path d="M213.83 17.4184C214.591 14.1841 212.584 10.9457 209.349 10.1853C206.113 9.42494 202.873 11.4305 202.112 14.6648C201.352 17.8991 203.358 21.1374 206.594 21.8978C209.829 22.6582 213.069 20.6527 213.83 17.4184Z" fill="#D88472"/>
<path d="M117.472 9.36729C117.472 10.6091 116.464 11.6233 115.215 11.6233C113.966 11.6233 112.958 10.616 112.958 9.36729C112.958 8.11858 113.966 7.11133 115.215 7.11133C116.464 7.11133 117.472 8.11858 117.472 9.36729Z" fill="white"/>
<path d="M153.59 29.388C153.59 28.1324 152.568 27.1113 151.312 27.1113C150.056 27.1113 149.035 28.1324 149.035 29.388C149.035 30.6436 150.056 31.6646 151.312 31.6646C152.568 31.6646 153.59 30.6436 153.59 29.388Z" fill="white"/>
<path d="M104.31 272.059C104.31 274.405 102.412 276.302 100.065 276.302C97.7183 276.302 95.8203 274.405 95.8203 272.059C95.8203 269.714 97.7183 267.816 100.065 267.816C102.412 267.816 104.31 269.714 104.31 272.059Z" fill="white"/>
<path d="M277.149 98.8814C279.04 98.8814 280.573 97.3493 280.573 95.4595C280.573 93.5696 279.04 92.0376 277.149 92.0376C275.259 92.0376 273.726 93.5696 273.726 95.4595C273.726 97.3493 275.259 98.8814 277.149 98.8814Z" fill="white"/>
<path d="M39.7899 217.64C40.9563 217.64 41.9019 216.695 41.9019 215.529C41.9019 214.363 40.9563 213.418 39.7899 213.418C38.6235 213.418 37.6779 214.363 37.6779 215.529C37.6779 216.695 38.6235 217.64 39.7899 217.64Z" fill="white"/>
<path d="M297.2 149.175C298.111 149.175 298.849 148.436 298.849 147.526C298.849 146.615 298.111 145.877 297.2 145.877C296.289 145.877 295.55 146.615 295.55 147.526C295.55 148.436 296.289 149.175 297.2 149.175Z" fill="white"/>
<path d="M186.678 260.283C186.678 261.807 185.436 263.049 183.91 263.049C182.385 263.049 181.143 261.807 181.143 260.283C181.143 258.758 182.385 257.516 183.91 257.516C185.436 257.516 186.678 258.758 186.678 260.283Z" fill="white"/>
<path d="M266.734 42.8685C266.734 40.8678 265.112 39.2534 263.118 39.2534C261.123 39.2534 259.501 40.8747 259.501 42.8685C259.501 44.8623 261.123 46.4835 263.118 46.4835C265.112 46.4835 266.734 44.8623 266.734 42.8685Z" fill="white"/>
<g style="mix-blend-mode:multiply" opacity="0.3">
<path d="M62.3732 198.075H152.907C156.157 198.075 158.801 200.717 158.801 203.966V256.654C158.801 259.903 156.157 262.546 152.907 262.546H62.3732C59.1224 262.546 56.4789 259.903 56.4789 256.654V203.966C56.4789 200.717 59.1224 198.075 62.3732 198.075Z" fill="#D8DCE2"/>
</g>
<path opacity="0.8" d="M160.016 189.341H69.4823C66.2269 189.341 63.588 191.979 63.588 195.233V247.92C63.588 251.174 66.2269 253.812 69.4823 253.812H160.016C163.271 253.812 165.91 251.174 165.91 247.92V195.233C165.91 191.979 163.271 189.341 160.016 189.341Z" fill="white"/>
<path d="M64 219.963V195.271C64 191.808 66.1603 189 68.8245 189H161.498C164.162 189 166.322 191.808 166.322 195.271V247.193C166.322 250.656 164.162 253.464 161.498 253.464H68.8245C66.1603 253.464 64 250.656 64 247.193V239.342" stroke="#E9E9E9" stroke-width="3" stroke-miterlimit="10"/>
<path d="M69.9102 227.43H68.2468V198.116C68.2468 195.708 70.2001 193.749 72.6089 193.749H77.3091V210.265C77.178 210.417 77.0607 210.589 76.9778 210.783L69.9033 227.43H69.9102Z" fill="#C7FFC6"/>
<path d="M86.6406 237.951H68.2468V231.39H70.2346C70.276 231.41 70.3105 231.438 70.3519 231.452C70.6073 231.562 70.8696 231.61 71.125 231.61C71.4355 231.61 71.7254 231.521 71.9946 231.39H83.2932L86.6475 237.951H86.6406Z" fill="#C7FFC6"/>
<path d="M88.6629 241.904L92.4935 249.403H72.6089C70.2001 249.403 68.2468 247.444 68.2468 245.036V241.904H88.6629Z" fill="#C7FFC6"/>
<path d="M74.2101 227.43L80.0216 213.749H94.7574L83.5692 227.43H74.2101Z" fill="#7DDA75"/>
<path d="M99.8786 213.749H106.836L90.1951 236.191L86.8615 229.658L99.8786 213.749Z" fill="#C7FFC6"/>
<path d="M116.809 230.796L108.347 249.41H96.9453L92.2036 240.124L98.7053 231.355L116.809 230.796Z" fill="#7DDA75"/>
<path d="M109.887 209.796H81.2778V193.749H124.36L109.887 209.796Z" fill="#C7FFC6"/>
<path d="M118.749 226.774L101.715 227.306L111.757 213.749H126.037L118.749 226.774Z" fill="#C7FFC6"/>
<path d="M139.047 239.475L121.178 249.41H112.703L120.909 231.334L139.047 239.475Z" fill="#C7FFC6"/>
<path d="M115.222 209.796L129.695 193.749H141.477V209.796H115.222Z" fill="#C7FFC6"/>
<path d="M142.747 236.799L122.71 227.795L130.109 214.591L149.214 227.14L142.747 236.799Z" fill="#7DDA75"/>
<path d="M143.534 241.511L159.063 248.817C158.421 249.196 157.683 249.403 156.889 249.403H129.35L143.541 241.511H143.534Z" fill="#C7FFC6"/>
<path d="M161.244 198.116V209.796H145.439V193.749H156.882C159.291 193.749 161.244 195.708 161.244 198.116Z" fill="#C7FFC6"/>
<path d="M161.244 213.749V230.307L153.079 224.946H153.072L136.038 213.749H161.244Z" fill="#C7FFC6"/>
<path d="M152.52 229.32L161.244 235.046V245.043C161.244 245.181 161.237 245.319 161.224 245.457L146.391 238.482L152.52 229.32Z" fill="#C7FFC6"/>
<path d="M107.498 217.164C101.169 217.247 96.5105 222.966 97.1247 229.258C97.7873 236.067 102.784 240.683 105.649 242.794C106.822 243.656 108.416 243.67 109.583 242.794C112.64 240.496 118.224 235.274 118.224 227.74C118.224 221.855 113.413 217.081 107.505 217.157L107.498 217.164ZM107.636 233.004C104.641 233.004 102.218 230.576 102.218 227.588C102.218 224.601 104.641 222.173 107.636 222.173C110.632 222.173 113.055 224.601 113.055 227.588C113.055 230.576 110.625 233.004 107.636 233.004Z" fill="#D23817"/>
<path d="M116.547 222.035C114.67 219.103 111.384 217.157 107.636 217.157C103.889 217.157 100.61 219.096 98.726 222.028C98.0703 223.035 97.5872 224.167 97.318 225.374C98.5327 228.81 101.418 231.445 105.007 232.328C103.343 231.404 102.218 229.631 102.218 227.595C102.218 226.83 102.384 226.098 102.667 225.436C103.502 223.525 105.407 222.18 107.636 222.18C109.866 222.18 111.771 223.518 112.599 225.436C112.889 226.098 113.055 226.83 113.055 227.595C113.055 229.631 111.93 231.404 110.266 232.328C113.841 231.452 116.726 228.81 117.955 225.388C117.679 224.18 117.203 223.049 116.547 222.042V222.035Z" fill="#E15938"/>
<path d="M113.055 227.595C113.055 230.582 110.625 233.011 107.636 233.011C104.648 233.011 102.218 230.582 102.218 227.595C102.218 227.078 102.294 226.574 102.425 226.105C103.074 228.368 105.159 230.03 107.636 230.03C110.114 230.03 112.199 228.368 112.847 226.105C112.986 226.581 113.055 227.078 113.055 227.595Z" fill="#A62400"/>
<path d="M137.909 200.448C131.586 200.531 126.921 206.25 127.535 212.542C128.197 219.351 133.195 223.967 136.059 226.078C137.232 226.94 138.827 226.954 139.993 226.078C143.051 223.781 148.634 218.558 148.634 211.024C148.634 205.14 143.824 200.365 137.915 200.441L137.909 200.448ZM138.047 216.288C135.051 216.288 132.629 213.86 132.629 210.873C132.629 207.885 135.051 205.457 138.047 205.457C141.042 205.457 143.465 207.885 143.465 210.873C143.465 213.86 141.035 216.288 138.047 216.288Z" fill="#D23817"/>
<path d="M146.957 205.319C145.08 202.387 141.794 200.441 138.047 200.441C134.299 200.441 131.02 202.38 129.136 205.312C128.48 206.319 127.997 207.451 127.728 208.658C128.943 212.094 131.828 214.729 135.417 215.612C133.754 214.688 132.629 212.915 132.629 210.88C132.629 210.114 132.794 209.382 133.077 208.72C133.912 206.809 135.817 205.464 138.047 205.464C140.276 205.464 142.181 206.802 143.009 208.72C143.299 209.382 143.465 210.114 143.465 210.88C143.465 212.915 142.34 214.688 140.676 215.612C144.252 214.736 147.137 212.094 148.365 208.672C148.089 207.465 147.613 206.333 146.957 205.326V205.319Z" fill="#E15938"/>
<path d="M143.465 210.873C143.465 213.86 141.035 216.288 138.047 216.288C135.058 216.288 132.629 213.86 132.629 210.873C132.629 210.355 132.704 209.851 132.836 209.382C133.484 211.645 135.569 213.308 138.047 213.308C140.524 213.308 142.609 211.645 143.258 209.382C143.396 209.858 143.465 210.355 143.465 210.873Z" fill="#A62400"/>
<path d="M87.6759 189.348C81.3468 189.43 76.688 195.15 77.3022 201.442C77.9648 208.251 82.9619 212.866 85.8262 214.977C86.9995 215.84 88.5939 215.853 89.7603 214.977C92.8179 212.68 98.4016 207.457 98.4016 199.924C98.4016 194.039 93.5909 189.265 87.6828 189.341L87.6759 189.348ZM87.814 205.188C84.8185 205.188 82.3959 202.759 82.3959 199.772C82.3959 196.785 84.8185 194.356 87.814 194.356C90.8094 194.356 93.232 196.785 93.232 199.772C93.232 202.759 90.8025 205.188 87.814 205.188Z" fill="#D23817"/>
<path d="M96.7175 194.218C94.8402 191.286 91.5548 189.341 87.8071 189.341C84.0593 189.341 80.7808 191.279 78.8966 194.211C78.2409 195.219 77.7578 196.35 77.4886 197.557C78.7033 200.993 81.5884 203.629 85.1774 204.512C83.514 203.587 82.389 201.814 82.389 199.779C82.389 199.013 82.5546 198.282 82.8376 197.62C83.6728 195.709 85.5777 194.363 87.8071 194.363C90.0364 194.363 91.9413 195.702 92.7696 197.62C93.0595 198.282 93.2251 199.013 93.2251 199.779C93.2251 201.814 92.1001 203.587 90.4367 204.512C94.0119 203.635 96.897 200.993 98.1255 197.571C97.8494 196.364 97.3732 195.233 96.7175 194.225V194.218Z" fill="#E15938"/>
<path d="M93.232 199.772C93.232 202.759 90.8025 205.188 87.814 205.188C84.8254 205.188 82.3959 202.759 82.3959 199.772C82.3959 199.254 82.4718 198.751 82.603 198.282C83.2517 200.545 85.3361 202.207 87.814 202.207C90.2918 202.207 92.3762 200.545 93.025 198.282C93.163 198.758 93.232 199.254 93.232 199.772Z" fill="#A62400"/>
<g style="mix-blend-mode:multiply" opacity="0.3">
<path d="M227.4 64.5039H289.117C292.713 64.5039 295.626 67.4153 295.626 71.0096V90.2026C295.626 93.7969 292.713 96.7083 289.117 96.7083H250.245L232.438 105.16L235.779 96.7083H227.4C223.804 96.7083 220.891 93.7969 220.891 90.2026V71.0096C220.891 67.4153 223.804 64.5039 227.4 64.5039Z" fill="#D8DCE2"/>
</g>
<path d="M220.553 57.6602H282.271C285.867 57.6602 288.779 60.5715 288.779 64.1659V83.3588C288.779 86.9532 285.867 89.8645 282.271 89.8645H243.399L225.591 98.3158L228.932 89.8645H220.553C216.957 89.8645 214.044 86.9532 214.044 83.3588V64.1659C214.044 60.5715 216.957 57.6602 220.553 57.6602Z" fill="white" stroke="#E9E9E9" stroke-width="3" stroke-miterlimit="10"/>
<path d="M266.189 67.0498H281.373C282.277 67.0498 283.009 67.7811 283.009 68.6849C283.009 69.5886 282.277 70.3199 281.373 70.3199H266.189C265.285 70.3199 264.553 69.5886 264.553 68.6849C264.553 67.7811 265.285 67.0498 266.189 67.0498Z" fill="#EEEEEE"/>
<path d="M223.804 67.0498H258.742C259.646 67.0498 260.377 67.7811 260.377 68.6849C260.377 69.5886 259.646 70.3199 258.742 70.3199H223.804C222.9 70.3199 222.168 69.5886 222.168 68.6849C222.168 67.7811 222.9 67.0498 223.804 67.0498Z" fill="#EEEEEE"/>
<path d="M231.817 79.7506H223.804C222.9 79.7506 222.168 79.0193 222.168 78.1155C222.168 77.2118 222.9 76.4805 223.804 76.4805H231.817C232.721 76.4805 233.453 77.2118 233.453 78.1155C233.453 79.0193 232.721 79.7506 231.817 79.7506Z" fill="#EEEEEE"/>
<path d="M281.373 79.7506H239.257C238.353 79.7506 237.622 79.0193 237.622 78.1155C237.622 77.2118 238.353 76.4805 239.257 76.4805H281.373C282.277 76.4805 283.009 77.2118 283.009 78.1155C283.009 79.0193 282.277 79.7506 281.373 79.7506Z" fill="#EEEEEE"/>
<g style="mix-blend-mode:multiply" opacity="0.3">
<path d="M142.913 44.4692H81.0707C74.9417 44.4692 69.9723 49.4365 69.9723 55.5628C69.9723 61.6891 74.9417 66.6563 81.0707 66.6563H142.913C149.041 66.6563 154.011 61.6891 154.011 55.5628C154.011 49.4365 149.041 44.4692 142.913 44.4692Z" fill="#D8DCE2"/>
</g>
<path d="M149.366 38.0532H87.5241C81.3951 38.0532 76.4257 43.0205 76.4257 49.1468C76.4257 55.273 81.3951 60.2403 87.5241 60.2403H149.366C155.495 60.2403 160.464 55.273 160.464 49.1468C160.464 43.0205 155.495 38.0532 149.366 38.0532Z" fill="white" stroke="#E9E9E9" stroke-width="3" stroke-miterlimit="10"/>
<path d="M99.3058 48.119C99.6716 47.7672 99.4714 47.1462 98.9676 47.0704L95.6132 46.5805C95.413 46.5529 95.2405 46.4288 95.1508 46.2425L93.653 43.2C93.5357 42.9586 93.301 42.8482 93.0733 42.862C93.0526 42.862 93.0318 42.862 93.0111 42.862C92.9904 42.862 92.9697 42.862 92.949 42.862C92.9283 42.862 92.9076 42.862 92.8869 42.862C92.8662 42.862 92.8455 42.862 92.8248 42.862C92.8041 42.862 92.7834 42.862 92.7627 42.862C92.742 42.862 92.7213 42.862 92.7006 42.862C92.6798 42.862 92.6591 42.862 92.6384 42.862C92.6177 42.862 92.597 42.862 92.5763 42.862C92.5556 42.862 92.5349 42.862 92.5142 42.862C92.4935 42.862 92.4728 42.862 92.4521 42.862C92.4314 42.862 92.4107 42.862 92.39 42.862C92.3693 42.862 92.3486 42.862 92.3278 42.862C92.3071 42.862 92.2864 42.862 92.2657 42.862C92.245 42.862 92.2243 42.862 92.2036 42.862C92.1829 42.862 92.1622 42.862 92.1415 42.862C92.1208 42.862 92.1001 42.862 92.0794 42.862C92.0587 42.862 92.038 42.862 92.0173 42.862C91.9965 42.862 91.9758 42.862 91.9551 42.862C91.9344 42.862 91.9137 42.862 91.893 42.862C91.8723 42.862 91.8516 42.862 91.8309 42.862C91.8102 42.862 91.7895 42.862 91.7688 42.862C91.7481 42.862 91.7274 42.862 91.7067 42.862C91.686 42.862 91.6653 42.862 91.6445 42.862C91.6238 42.862 91.6031 42.862 91.5824 42.862C91.5617 42.862 91.541 42.862 91.5203 42.862C91.4996 42.862 91.4789 42.862 91.4582 42.862C91.4375 42.862 91.4168 42.862 91.3961 42.862C91.3754 42.862 91.3547 42.862 91.334 42.862C91.3133 42.862 91.2926 42.862 91.2718 42.862C91.0441 42.8482 90.8094 42.9586 90.6921 43.2L89.1943 46.2425C89.1046 46.4219 88.9321 46.546 88.7319 46.5805L85.3775 47.0704C84.8737 47.1462 84.6735 47.7603 85.0393 48.119L87.4688 50.4853C87.6138 50.6233 87.6828 50.8303 87.6483 51.0304L87.0754 54.3695C87.0064 54.7627 87.3239 55.0801 87.6759 55.0801C87.6966 55.0801 87.7173 55.0801 87.738 55.0801C87.7587 55.0801 87.7794 55.0801 87.8001 55.0801C87.8208 55.0801 87.8416 55.0801 87.8623 55.0801C87.883 55.0801 87.9037 55.0801 87.9244 55.0801C87.9451 55.0801 87.9658 55.0801 87.9865 55.0801C88.0072 55.0801 88.0279 55.0801 88.0486 55.0801C88.0693 55.0801 88.09 55.0801 88.1107 55.0801C88.1314 55.0801 88.1521 55.0801 88.1728 55.0801C88.1936 55.0801 88.2143 55.0801 88.235 55.0801C88.2557 55.0801 88.2764 55.0801 88.2971 55.0801C88.3178 55.0801 88.3385 55.0801 88.3592 55.0801C88.3799 55.0801 88.4006 55.0801 88.4213 55.0801C88.442 55.0801 88.4627 55.0801 88.4834 55.0801C88.5041 55.0801 88.5249 55.0801 88.5456 55.0801C88.5663 55.0801 88.587 55.0801 88.6077 55.0801C88.6284 55.0801 88.6491 55.0801 88.6698 55.0801C88.6905 55.0801 88.7112 55.0801 88.7319 55.0801C88.7526 55.0801 88.7733 55.0801 88.794 55.0801C88.8147 55.0801 88.8354 55.0801 88.8561 55.0801C88.8769 55.0801 88.8976 55.0801 88.9183 55.0801C88.939 55.0801 88.9597 55.0801 88.9804 55.0801C89.0011 55.0801 89.0218 55.0801 89.0425 55.0801C89.0632 55.0801 89.0839 55.0801 89.1046 55.0801C89.1253 55.0801 89.146 55.0801 89.1667 55.0801C89.1874 55.0801 89.2081 55.0801 89.2289 55.0801C89.2496 55.0801 89.2703 55.0801 89.291 55.0801C89.3117 55.0801 89.3324 55.0801 89.3531 55.0801C89.3738 55.0801 89.3945 55.0801 89.4152 55.0801C89.4359 55.0801 89.4566 55.0801 89.4773 55.0801C89.5947 55.0939 89.712 55.0801 89.8293 55.0111L92.1415 53.7969L94.4537 55.0111C94.571 55.0732 94.6883 55.0939 94.8057 55.0801C94.8264 55.0801 94.8471 55.0801 94.8678 55.0801C94.8885 55.0801 94.9092 55.0801 94.9299 55.0801C94.9506 55.0801 94.9713 55.0801 94.992 55.0801C95.0127 55.0801 95.0334 55.0801 95.0541 55.0801C95.0748 55.0801 95.0955 55.0801 95.1162 55.0801C95.137 55.0801 95.1577 55.0801 95.1784 55.0801C95.1991 55.0801 95.2198 55.0801 95.2405 55.0801C95.2612 55.0801 95.2819 55.0801 95.3026 55.0801C95.3233 55.0801 95.344 55.0801 95.3647 55.0801C95.3854 55.0801 95.4061 55.0801 95.4268 55.0801C95.4475 55.0801 95.4683 55.0801 95.489 55.0801C95.5097 55.0801 95.5304 55.0801 95.5511 55.0801C95.5718 55.0801 95.5925 55.0801 95.6132 55.0801C95.6339 55.0801 95.6546 55.0801 95.6753 55.0801C95.696 55.0801 95.7167 55.0801 95.7374 55.0801C95.7581 55.0801 95.7788 55.0801 95.7996 55.0801C95.8203 55.0801 95.841 55.0801 95.8617 55.0801C95.8824 55.0801 95.9031 55.0801 95.9238 55.0801C95.9445 55.0801 95.9652 55.0801 95.9859 55.0801C96.0066 55.0801 96.0273 55.0801 96.048 55.0801C96.0687 55.0801 96.0894 55.0801 96.1101 55.0801C96.1308 55.0801 96.1515 55.0801 96.1723 55.0801C96.193 55.0801 96.2137 55.0801 96.2344 55.0801C96.2551 55.0801 96.2758 55.0801 96.2965 55.0801C96.3172 55.0801 96.3379 55.0801 96.3586 55.0801C96.3793 55.0801 96.4 55.0801 96.4207 55.0801C96.4414 55.0801 96.4621 55.0801 96.4828 55.0801C96.5035 55.0801 96.5243 55.0801 96.545 55.0801C96.5657 55.0801 96.5864 55.0801 96.6071 55.0801C96.966 55.0801 97.2766 54.7627 97.2076 54.3695L96.6347 51.0304C96.6002 50.8303 96.6692 50.6302 96.8141 50.4853L99.2436 48.119H99.3058Z" fill="#C7FFC6"/>
<path d="M117.506 48.119C117.872 47.7672 117.672 47.1462 117.168 47.0704L113.814 46.5805C113.614 46.5529 113.441 46.4288 113.351 46.2425L111.854 43.2C111.736 42.9586 111.502 42.8482 111.274 42.862C111.253 42.862 111.232 42.862 111.212 42.862C111.191 42.862 111.17 42.862 111.15 42.862C111.129 42.862 111.108 42.862 111.087 42.862C111.067 42.862 111.046 42.862 111.025 42.862C111.005 42.862 110.984 42.862 110.963 42.862C110.943 42.862 110.922 42.862 110.901 42.862C110.88 42.862 110.86 42.862 110.839 42.862C110.818 42.862 110.798 42.862 110.777 42.862C110.756 42.862 110.735 42.862 110.715 42.862C110.694 42.862 110.673 42.862 110.653 42.862C110.632 42.862 110.611 42.862 110.591 42.862C110.57 42.862 110.549 42.862 110.528 42.862C110.508 42.862 110.487 42.862 110.466 42.862C110.446 42.862 110.425 42.862 110.404 42.862C110.383 42.862 110.363 42.862 110.342 42.862C110.321 42.862 110.301 42.862 110.28 42.862C110.259 42.862 110.239 42.862 110.218 42.862C110.197 42.862 110.176 42.862 110.156 42.862C110.135 42.862 110.114 42.862 110.094 42.862C110.073 42.862 110.052 42.862 110.031 42.862C110.011 42.862 109.99 42.862 109.969 42.862C109.949 42.862 109.928 42.862 109.907 42.862C109.887 42.862 109.866 42.862 109.845 42.862C109.824 42.862 109.804 42.862 109.783 42.862C109.762 42.862 109.742 42.862 109.721 42.862C109.7 42.862 109.679 42.862 109.659 42.862C109.638 42.862 109.617 42.862 109.597 42.862C109.576 42.862 109.555 42.862 109.535 42.862C109.514 42.862 109.493 42.862 109.472 42.862C109.245 42.8482 109.01 42.9586 108.893 43.2L107.395 46.2425C107.305 46.4219 107.133 46.546 106.932 46.5805L103.578 47.0704C103.074 47.1462 102.874 47.7603 103.24 48.119L105.669 50.4853C105.814 50.6233 105.883 50.8303 105.849 51.0304L105.276 54.3695C105.207 54.7627 105.524 55.0801 105.876 55.0801C105.897 55.0801 105.918 55.0801 105.939 55.0801C105.959 55.0801 105.98 55.0801 106.001 55.0801C106.021 55.0801 106.042 55.0801 106.063 55.0801C106.084 55.0801 106.104 55.0801 106.125 55.0801C106.146 55.0801 106.166 55.0801 106.187 55.0801C106.208 55.0801 106.228 55.0801 106.249 55.0801C106.27 55.0801 106.291 55.0801 106.311 55.0801C106.332 55.0801 106.353 55.0801 106.373 55.0801C106.394 55.0801 106.415 55.0801 106.436 55.0801C106.456 55.0801 106.477 55.0801 106.498 55.0801C106.518 55.0801 106.539 55.0801 106.56 55.0801C106.58 55.0801 106.601 55.0801 106.622 55.0801C106.643 55.0801 106.663 55.0801 106.684 55.0801C106.705 55.0801 106.725 55.0801 106.746 55.0801C106.767 55.0801 106.788 55.0801 106.808 55.0801C106.829 55.0801 106.85 55.0801 106.87 55.0801C106.891 55.0801 106.912 55.0801 106.932 55.0801C106.953 55.0801 106.974 55.0801 106.995 55.0801C107.015 55.0801 107.036 55.0801 107.057 55.0801C107.077 55.0801 107.098 55.0801 107.119 55.0801C107.14 55.0801 107.16 55.0801 107.181 55.0801C107.202 55.0801 107.222 55.0801 107.243 55.0801C107.264 55.0801 107.284 55.0801 107.305 55.0801C107.326 55.0801 107.347 55.0801 107.367 55.0801C107.388 55.0801 107.409 55.0801 107.429 55.0801C107.45 55.0801 107.471 55.0801 107.492 55.0801C107.512 55.0801 107.533 55.0801 107.554 55.0801C107.574 55.0801 107.595 55.0801 107.616 55.0801C107.636 55.0801 107.657 55.0801 107.678 55.0801C107.795 55.0939 107.913 55.0801 108.03 55.0111L110.342 53.7969L112.654 55.0111C112.772 55.0732 112.889 55.0939 113.006 55.0801C113.027 55.0801 113.048 55.0801 113.068 55.0801C113.089 55.0801 113.11 55.0801 113.13 55.0801C113.151 55.0801 113.172 55.0801 113.193 55.0801C113.213 55.0801 113.234 55.0801 113.255 55.0801C113.275 55.0801 113.296 55.0801 113.317 55.0801C113.337 55.0801 113.358 55.0801 113.379 55.0801C113.4 55.0801 113.42 55.0801 113.441 55.0801C113.462 55.0801 113.482 55.0801 113.503 55.0801C113.524 55.0801 113.545 55.0801 113.565 55.0801C113.586 55.0801 113.607 55.0801 113.627 55.0801C113.648 55.0801 113.669 55.0801 113.69 55.0801C113.71 55.0801 113.731 55.0801 113.752 55.0801C113.772 55.0801 113.793 55.0801 113.814 55.0801C113.834 55.0801 113.855 55.0801 113.876 55.0801C113.897 55.0801 113.917 55.0801 113.938 55.0801C113.959 55.0801 113.979 55.0801 114 55.0801C114.021 55.0801 114.041 55.0801 114.062 55.0801C114.083 55.0801 114.104 55.0801 114.124 55.0801C114.145 55.0801 114.166 55.0801 114.186 55.0801C114.207 55.0801 114.228 55.0801 114.249 55.0801C114.269 55.0801 114.29 55.0801 114.311 55.0801C114.331 55.0801 114.352 55.0801 114.373 55.0801C114.394 55.0801 114.414 55.0801 114.435 55.0801C114.456 55.0801 114.476 55.0801 114.497 55.0801C114.518 55.0801 114.538 55.0801 114.559 55.0801C114.58 55.0801 114.601 55.0801 114.621 55.0801C114.642 55.0801 114.663 55.0801 114.683 55.0801C114.704 55.0801 114.725 55.0801 114.746 55.0801C114.766 55.0801 114.787 55.0801 114.808 55.0801C115.167 55.0801 115.477 54.7627 115.408 54.3695L114.835 51.0304C114.801 50.8303 114.87 50.6302 115.015 50.4853L117.444 48.119H117.506Z" fill="#C7FFC6"/>
<path d="M135.707 48.119C136.073 47.7672 135.872 47.1462 135.369 47.0704L132.014 46.5805C131.814 46.5529 131.642 46.4288 131.552 46.2425L130.054 43.2C129.937 42.9586 129.702 42.8482 129.474 42.862C129.454 42.862 129.433 42.862 129.412 42.862C129.392 42.862 129.371 42.862 129.35 42.862C129.329 42.862 129.309 42.862 129.288 42.862C129.267 42.862 129.247 42.862 129.226 42.862C129.205 42.862 129.184 42.862 129.164 42.862C129.143 42.862 129.122 42.862 129.102 42.862C129.081 42.862 129.06 42.862 129.04 42.862C129.019 42.862 128.998 42.862 128.977 42.862C128.957 42.862 128.936 42.862 128.915 42.862C128.895 42.862 128.874 42.862 128.853 42.862C128.832 42.862 128.812 42.862 128.791 42.862C128.77 42.862 128.75 42.862 128.729 42.862C128.708 42.862 128.688 42.862 128.667 42.862C128.646 42.862 128.625 42.862 128.605 42.862C128.584 42.862 128.563 42.862 128.543 42.862C128.522 42.862 128.501 42.862 128.48 42.862C128.46 42.862 128.439 42.862 128.418 42.862C128.398 42.862 128.377 42.862 128.356 42.862C128.336 42.862 128.315 42.862 128.294 42.862C128.273 42.862 128.253 42.862 128.232 42.862C128.211 42.862 128.191 42.862 128.17 42.862C128.149 42.862 128.128 42.862 128.108 42.862C128.087 42.862 128.066 42.862 128.046 42.862C128.025 42.862 128.004 42.862 127.984 42.862C127.963 42.862 127.942 42.862 127.921 42.862C127.901 42.862 127.88 42.862 127.859 42.862C127.839 42.862 127.818 42.862 127.797 42.862C127.776 42.862 127.756 42.862 127.735 42.862C127.714 42.862 127.694 42.862 127.673 42.862C127.445 42.8482 127.21 42.9586 127.093 43.2L125.595 46.2425C125.506 46.4219 125.333 46.546 125.133 46.5805L121.779 47.0704C121.275 47.1462 121.075 47.7603 121.44 48.119L123.87 50.4853C124.015 50.6233 124.084 50.8303 124.049 51.0304L123.477 54.3695C123.407 54.7627 123.725 55.0801 124.077 55.0801C124.098 55.0801 124.118 55.0801 124.139 55.0801C124.16 55.0801 124.181 55.0801 124.201 55.0801C124.222 55.0801 124.243 55.0801 124.263 55.0801C124.284 55.0801 124.305 55.0801 124.325 55.0801C124.346 55.0801 124.367 55.0801 124.388 55.0801C124.408 55.0801 124.429 55.0801 124.45 55.0801C124.47 55.0801 124.491 55.0801 124.512 55.0801C124.533 55.0801 124.553 55.0801 124.574 55.0801C124.595 55.0801 124.615 55.0801 124.636 55.0801C124.657 55.0801 124.677 55.0801 124.698 55.0801C124.719 55.0801 124.74 55.0801 124.76 55.0801C124.781 55.0801 124.802 55.0801 124.822 55.0801C124.843 55.0801 124.864 55.0801 124.885 55.0801C124.905 55.0801 124.926 55.0801 124.947 55.0801C124.967 55.0801 124.988 55.0801 125.009 55.0801C125.029 55.0801 125.05 55.0801 125.071 55.0801C125.092 55.0801 125.112 55.0801 125.133 55.0801C125.154 55.0801 125.174 55.0801 125.195 55.0801C125.216 55.0801 125.237 55.0801 125.257 55.0801C125.278 55.0801 125.299 55.0801 125.319 55.0801C125.34 55.0801 125.361 55.0801 125.381 55.0801C125.402 55.0801 125.423 55.0801 125.444 55.0801C125.464 55.0801 125.485 55.0801 125.506 55.0801C125.526 55.0801 125.547 55.0801 125.568 55.0801C125.589 55.0801 125.609 55.0801 125.63 55.0801C125.651 55.0801 125.671 55.0801 125.692 55.0801C125.713 55.0801 125.733 55.0801 125.754 55.0801C125.775 55.0801 125.796 55.0801 125.816 55.0801C125.837 55.0801 125.858 55.0801 125.878 55.0801C125.996 55.0939 126.113 55.0801 126.23 55.0111L128.543 53.7969L130.855 55.0111C130.972 55.0732 131.089 55.0939 131.207 55.0801C131.227 55.0801 131.248 55.0801 131.269 55.0801C131.29 55.0801 131.31 55.0801 131.331 55.0801C131.352 55.0801 131.372 55.0801 131.393 55.0801C131.414 55.0801 131.435 55.0801 131.455 55.0801C131.476 55.0801 131.497 55.0801 131.517 55.0801C131.538 55.0801 131.559 55.0801 131.579 55.0801C131.6 55.0801 131.621 55.0801 131.642 55.0801C131.662 55.0801 131.683 55.0801 131.704 55.0801C131.724 55.0801 131.745 55.0801 131.766 55.0801C131.787 55.0801 131.807 55.0801 131.828 55.0801C131.849 55.0801 131.869 55.0801 131.89 55.0801C131.911 55.0801 131.931 55.0801 131.952 55.0801C131.973 55.0801 131.994 55.0801 132.014 55.0801C132.035 55.0801 132.056 55.0801 132.076 55.0801C132.097 55.0801 132.118 55.0801 132.139 55.0801C132.159 55.0801 132.18 55.0801 132.201 55.0801C132.221 55.0801 132.242 55.0801 132.263 55.0801C132.283 55.0801 132.304 55.0801 132.325 55.0801C132.346 55.0801 132.366 55.0801 132.387 55.0801C132.408 55.0801 132.428 55.0801 132.449 55.0801C132.47 55.0801 132.491 55.0801 132.511 55.0801C132.532 55.0801 132.553 55.0801 132.573 55.0801C132.594 55.0801 132.615 55.0801 132.635 55.0801C132.656 55.0801 132.677 55.0801 132.698 55.0801C132.718 55.0801 132.739 55.0801 132.76 55.0801C132.78 55.0801 132.801 55.0801 132.822 55.0801C132.843 55.0801 132.863 55.0801 132.884 55.0801C132.905 55.0801 132.925 55.0801 132.946 55.0801C132.967 55.0801 132.987 55.0801 133.008 55.0801C133.367 55.0801 133.678 54.7627 133.609 54.3695L133.036 51.0304C133.001 50.8303 133.07 50.6302 133.215 50.4853L135.645 48.119H135.707Z" fill="#C7FFC6"/>
<path d="M153.914 48.119C154.28 47.7672 154.08 47.1462 153.576 47.0704L150.222 46.5805C150.022 46.5529 149.849 46.4288 149.759 46.2425L148.262 43.2C148.144 42.9586 147.91 42.8482 147.682 42.862C147.661 42.862 147.64 42.862 147.62 42.862C147.599 42.862 147.578 42.862 147.558 42.862C147.537 42.862 147.516 42.862 147.495 42.862C147.475 42.862 147.454 42.862 147.433 42.862C147.413 42.862 147.392 42.862 147.371 42.862C147.351 42.862 147.33 42.862 147.309 42.862C147.288 42.862 147.268 42.862 147.247 42.862C147.226 42.862 147.206 42.862 147.185 42.862C147.164 42.862 147.143 42.862 147.123 42.862C147.102 42.862 147.081 42.862 147.061 42.862C147.04 42.862 147.019 42.862 146.998 42.862C146.978 42.862 146.957 42.862 146.936 42.862C146.916 42.862 146.895 42.862 146.874 42.862C146.854 42.862 146.833 42.862 146.812 42.862C146.791 42.862 146.771 42.862 146.75 42.862C146.729 42.862 146.709 42.862 146.688 42.862C146.667 42.862 146.647 42.862 146.626 42.862C146.605 42.862 146.584 42.862 146.564 42.862C146.543 42.862 146.522 42.862 146.502 42.862C146.481 42.862 146.46 42.862 146.439 42.862C146.419 42.862 146.398 42.862 146.377 42.862C146.357 42.862 146.336 42.862 146.315 42.862C146.295 42.862 146.274 42.862 146.253 42.862C146.232 42.862 146.212 42.862 146.191 42.862C146.17 42.862 146.15 42.862 146.129 42.862C146.108 42.862 146.087 42.862 146.067 42.862C146.046 42.862 146.025 42.862 146.005 42.862C145.984 42.862 145.963 42.862 145.942 42.862C145.922 42.862 145.901 42.862 145.88 42.862C145.653 42.8482 145.418 42.9586 145.301 43.2L143.803 46.2425C143.713 46.4219 143.541 46.546 143.34 46.5805L139.986 47.0704C139.482 47.1462 139.282 47.7603 139.648 48.119L142.077 50.4853C142.222 50.6233 142.291 50.8303 142.257 51.0304L141.684 54.3695C141.615 54.7627 141.932 55.0801 142.284 55.0801C142.305 55.0801 142.326 55.0801 142.347 55.0801C142.367 55.0801 142.388 55.0801 142.409 55.0801C142.429 55.0801 142.45 55.0801 142.471 55.0801C142.492 55.0801 142.512 55.0801 142.533 55.0801C142.554 55.0801 142.574 55.0801 142.595 55.0801C142.616 55.0801 142.636 55.0801 142.657 55.0801C142.678 55.0801 142.699 55.0801 142.719 55.0801C142.74 55.0801 142.761 55.0801 142.781 55.0801C142.802 55.0801 142.823 55.0801 142.844 55.0801C142.864 55.0801 142.885 55.0801 142.906 55.0801C142.926 55.0801 142.947 55.0801 142.968 55.0801C142.988 55.0801 143.009 55.0801 143.03 55.0801C143.051 55.0801 143.071 55.0801 143.092 55.0801C143.113 55.0801 143.133 55.0801 143.154 55.0801C143.175 55.0801 143.196 55.0801 143.216 55.0801C143.237 55.0801 143.258 55.0801 143.278 55.0801C143.299 55.0801 143.32 55.0801 143.34 55.0801C143.361 55.0801 143.382 55.0801 143.403 55.0801C143.423 55.0801 143.444 55.0801 143.465 55.0801C143.485 55.0801 143.506 55.0801 143.527 55.0801C143.548 55.0801 143.568 55.0801 143.589 55.0801C143.61 55.0801 143.63 55.0801 143.651 55.0801C143.672 55.0801 143.692 55.0801 143.713 55.0801C143.734 55.0801 143.755 55.0801 143.775 55.0801C143.796 55.0801 143.817 55.0801 143.837 55.0801C143.858 55.0801 143.879 55.0801 143.9 55.0801C143.92 55.0801 143.941 55.0801 143.962 55.0801C143.982 55.0801 144.003 55.0801 144.024 55.0801C144.044 55.0801 144.065 55.0801 144.086 55.0801C144.203 55.0939 144.321 55.0801 144.438 55.0111L146.75 53.7969L149.062 55.0111C149.18 55.0732 149.297 55.0939 149.414 55.0801C149.435 55.0801 149.456 55.0801 149.476 55.0801C149.497 55.0801 149.518 55.0801 149.538 55.0801C149.559 55.0801 149.58 55.0801 149.601 55.0801C149.621 55.0801 149.642 55.0801 149.663 55.0801C149.683 55.0801 149.704 55.0801 149.725 55.0801C149.745 55.0801 149.766 55.0801 149.787 55.0801C149.808 55.0801 149.828 55.0801 149.849 55.0801C149.87 55.0801 149.89 55.0801 149.911 55.0801C149.932 55.0801 149.953 55.0801 149.973 55.0801C149.994 55.0801 150.015 55.0801 150.035 55.0801C150.056 55.0801 150.077 55.0801 150.097 55.0801C150.118 55.0801 150.139 55.0801 150.16 55.0801C150.18 55.0801 150.201 55.0801 150.222 55.0801C150.242 55.0801 150.263 55.0801 150.284 55.0801C150.305 55.0801 150.325 55.0801 150.346 55.0801C150.367 55.0801 150.387 55.0801 150.408 55.0801C150.429 55.0801 150.449 55.0801 150.47 55.0801C150.491 55.0801 150.512 55.0801 150.532 55.0801C150.553 55.0801 150.574 55.0801 150.594 55.0801C150.615 55.0801 150.636 55.0801 150.657 55.0801C150.677 55.0801 150.698 55.0801 150.719 55.0801C150.739 55.0801 150.76 55.0801 150.781 55.0801C150.802 55.0801 150.822 55.0801 150.843 55.0801C150.864 55.0801 150.884 55.0801 150.905 55.0801C150.926 55.0801 150.946 55.0801 150.967 55.0801C150.988 55.0801 151.009 55.0801 151.029 55.0801C151.05 55.0801 151.071 55.0801 151.091 55.0801C151.112 55.0801 151.133 55.0801 151.153 55.0801C151.174 55.0801 151.195 55.0801 151.216 55.0801C151.575 55.0801 151.885 54.7627 151.816 54.3695L151.243 51.0304C151.209 50.8303 151.278 50.6302 151.423 50.4853L153.852 48.119H153.914Z" fill="#C7FFC6"/>
<path d="M109.893 43.2067L111.398 46.2492C111.488 46.4286 111.66 46.5527 111.86 46.5872L115.215 47.0771C115.719 47.1529 115.919 47.767 115.553 48.1257L113.124 50.492C112.979 50.63 112.91 50.837 112.944 51.0371L113.517 54.3762C113.6 54.8798 113.075 55.2592 112.627 55.0247L109.624 53.4448C109.445 53.3482 109.231 53.3482 109.051 53.4448L106.049 55.0247C105.6 55.2592 105.076 54.8798 105.159 54.3762L105.732 51.0371C105.766 50.837 105.697 50.6369 105.552 50.492L103.123 48.1257C102.757 47.7739 102.957 47.1529 103.461 47.0771L106.815 46.5872C107.015 46.5596 107.188 46.4355 107.278 46.2492L108.775 43.2067C109.003 42.7514 109.652 42.7514 109.873 43.2067H109.893Z" fill="#F2CB6D"/>
<path d="M128.101 43.2067L129.605 46.2492C129.695 46.4286 129.868 46.5527 130.068 46.5872L133.422 47.0771C133.926 47.1529 134.126 47.767 133.76 48.1257L131.331 50.492C131.186 50.63 131.117 50.837 131.152 51.0371L131.724 54.3762C131.807 54.8798 131.283 55.2592 130.834 55.0247L127.832 53.4448C127.652 53.3482 127.438 53.3482 127.259 53.4448L124.256 55.0247C123.808 55.2592 123.283 54.8798 123.366 54.3762L123.939 51.0371C123.973 50.837 123.904 50.6369 123.76 50.492L121.33 48.1257C120.964 47.7739 121.164 47.1529 121.668 47.0771L125.023 46.5872C125.223 46.5596 125.395 46.4355 125.485 46.2492L126.99 43.2067C127.217 42.7514 127.866 42.7514 128.087 43.2067H128.101Z" fill="#F2CB6D"/>
<path d="M146.301 43.2067L147.799 46.2492C147.889 46.4286 148.061 46.5527 148.262 46.5872L151.616 47.0771C152.12 47.1529 152.32 47.767 151.954 48.1257L149.525 50.492C149.38 50.63 149.311 50.837 149.345 51.0371L149.918 54.3762C150.001 54.8798 149.476 55.2592 149.028 55.0247L146.025 53.4448C145.846 53.3482 145.632 53.3482 145.452 53.4448L142.45 55.0247C142.001 55.2592 141.477 54.8798 141.56 54.3762L142.133 51.0371C142.167 50.837 142.098 50.6369 141.953 50.492L139.524 48.1257C139.158 47.7739 139.358 47.1529 139.862 47.0771L143.216 46.5872C143.416 46.5596 143.589 46.4355 143.679 46.2492L145.183 43.2067C145.411 42.7514 146.06 42.7514 146.281 43.2067H146.301Z" fill="#E9F1FF"/>
<path d="M91.6929 43.2072L93.1975 46.2497C93.2872 46.429 93.4598 46.5532 93.6599 46.5877L97.0143 47.0775C97.5181 47.1534 97.7183 47.7674 97.3525 48.1262L94.923 50.4925C94.778 50.6305 94.709 50.8375 94.7435 51.0375L95.3164 54.3767C95.3992 54.8803 94.8747 55.2597 94.426 55.0252L91.4237 53.4453C91.2442 53.3487 91.0303 53.3487 90.8508 53.4453L87.8485 55.0252C87.3998 55.2597 86.8753 54.8803 86.9581 54.3767L87.531 51.0375C87.5655 50.8375 87.4965 50.6374 87.3515 50.4925L84.922 48.1262C84.5562 47.7743 84.7564 47.1534 85.2602 47.0775L88.6146 46.5877C88.8147 46.5601 88.9873 46.4359 89.077 46.2497L90.5747 43.2072C90.8025 42.7519 91.4513 42.7519 91.6722 43.2072H91.6929Z" fill="#F2CB6D"/>
</g>
<defs>
<clipPath id="clip0_1517_16944">
<rect width="309.333" height="312.889" fill="white" transform="translate(0.95932 7.11133)"/>
</clipPath>
</defs>
</svg>
