<svg width="40" height="40" viewBox="0 0 40 40" fill="none" xmlns="http://www.w3.org/2000/svg">
<g id="Capa_1" clip-path="url(#clip0_1392_164)">
<g id="Group">
<g id="Group_2">
<g id="Group_3">
<g id="Group_4">
<g id="Group_5">
<path id="Vector" d="M7.21817 26.1434H6.42339C2.89739 26.1434 0.0389862 23.285 0.0389862 19.759V6.4619C0.0389862 2.9359 2.89739 0.0774994 6.42339 0.0774994H7.21817C10.7442 0.0774994 13.6026 2.9359 13.6026 6.4619V19.7591C13.6026 23.285 10.7442 26.1434 7.21817 26.1434Z" fill="#4AA221"/>
<path id="Vector_2" d="M7.21817 0.0774994H6.82082V26.1434H7.21817C10.7442 26.1434 13.6026 23.285 13.6026 19.759V6.46183C13.6026 2.9359 10.7442 0.0774994 7.21817 0.0774994Z" fill="#007845"/>
</g>
<g id="Group_6">
<path id="Vector_3" d="M9.32585 9.23703C8.95875 8.88607 8.42308 8.82268 7.99368 9.03797V6.70292C7.99368 6.05699 7.47002 5.53333 6.82409 5.53333C6.17817 5.53333 5.6545 6.05699 5.6545 6.70292V12.8151C5.17513 12.5705 4.57404 12.6825 4.2191 13.1157C3.80975 13.6154 3.88296 14.3523 4.38269 14.7616L5.65458 15.8035V38.0117C5.65458 38.6576 6.17825 39.1813 6.82417 39.1813C7.4701 39.1813 7.99376 38.6576 7.99376 38.0117V12.3231L9.36312 10.8907C9.80944 10.4238 9.79283 9.68334 9.32585 9.23703Z" fill="#654D54"/>
<path id="Vector_4" d="M9.32585 9.23703C8.95876 8.88607 8.42308 8.82268 7.99369 9.03797V6.70292C7.99369 6.05699 7.47002 5.53333 6.8241 5.53333C6.82293 5.53333 6.82184 5.53348 6.82074 5.53348V39.1811C6.82184 39.1811 6.823 39.1813 6.8241 39.1813C7.47002 39.1813 7.99369 38.6576 7.99369 38.0117V12.3231L9.36304 10.8907C9.80944 10.4238 9.79283 9.68334 9.32585 9.23703Z" fill="#523E45"/>
</g>
</g>
<g id="Group_7">
<g id="Group_8">
<path id="Vector_5" d="M6.98363 22.9372C6.98363 17.793 12.0776 9.59828 14.366 6.17637C14.8858 5.39922 16.0273 5.39922 16.547 6.17637C18.8355 9.59828 23.9294 17.793 23.9294 22.9372C23.9294 23.5177 23.8645 24.0886 23.7461 24.6472C21.8515 33.5857 9.06152 33.5857 7.16686 24.6472C7.0485 24.0887 6.98363 23.5178 6.98363 22.9372Z" fill="#9DBC29"/>
<path id="Vector_6" d="M16.547 6.17637C16.2871 5.78775 15.8718 5.59352 15.4565 5.59352V31.3512C19.1276 31.3512 22.7988 29.1166 23.746 24.6472C23.8644 24.0887 23.9293 23.5178 23.9293 22.9373C23.9294 17.793 18.8355 9.59836 16.547 6.17637Z" fill="#4AA221"/>
</g>
<g id="Group_9">
<path id="Vector_7" d="M15.4565 21.4513C14.8105 21.4513 14.2869 20.9276 14.2869 20.2817V15.5765C14.2869 14.9305 14.8105 14.4069 15.4565 14.4069C16.1024 14.4069 16.626 14.9305 16.626 15.5765V20.2817C16.626 20.9276 16.1025 21.4513 15.4565 21.4513Z" fill="#654D54"/>
<path id="Vector_8" d="M15.4565 14.4069V21.4514C16.1024 21.4514 16.626 20.9277 16.626 20.2818V15.5765C16.626 14.9305 16.1025 14.4069 15.4565 14.4069Z" fill="#523E45"/>
</g>
</g>
</g>
<g id="Group_10">
<g id="Group_11">
<path id="Vector_9" d="M13.0765 36.7414C13.3159 36.323 13.4382 35.8288 13.3959 35.3032C13.2975 34.0794 12.2944 33.0977 11.0688 33.0246C10.3181 32.9799 9.634 33.2684 9.15033 33.756C8.79914 32.8081 7.88702 32.1325 6.817 32.1325C5.7469 32.1325 4.83485 32.8082 4.48366 33.756C3.99969 33.2681 3.31517 32.9795 2.5639 33.0247C1.33832 33.0984 0.335595 34.0805 0.237973 35.3045C0.196102 35.8296 0.318285 36.3233 0.557661 36.7414C0.230176 37.2411 0.0391426 37.8381 0.0391426 38.4801V38.792C0.0391426 39.4376 0.562496 39.961 1.20811 39.961H12.1142C12.9321 39.961 13.5951 39.2979 13.5951 38.4801C13.5949 37.8381 13.4039 37.241 13.0765 36.7414Z" fill="#5F9F8B"/>
<path id="Vector_10" d="M13.0765 36.7414C13.3159 36.3232 13.4381 35.8293 13.3961 35.3039C13.2981 34.0799 12.2951 33.0979 11.0694 33.0246C10.3184 32.9797 9.63423 33.2683 9.15041 33.756C8.79922 32.8081 7.8871 32.1325 6.81708 32.1325V39.961H12.1142C12.9321 39.961 13.5951 39.298 13.5951 38.4801C13.5949 37.8381 13.4039 37.241 13.0765 36.7414Z" fill="#4F8373"/>
</g>
<g id="Group_12">
<g id="Group_13">
<g id="Group_14">
<path id="Vector_11" d="M12.446 22.4553L23.6228 12.1881C24.5225 11.3615 25.9052 11.3615 26.8049 12.1881L37.984 22.4575V39.961H12.4437V22.4526" fill="#F9F2F2"/>
<path id="Vector_12" d="M26.8049 12.1881C26.2746 11.7009 25.5765 11.5011 24.9084 11.5883V39.961H37.9841V22.4575L26.8049 12.1881Z" fill="#DBEBF7"/>
</g>
<g id="Group_15">
<path id="Vector_13" d="M38.7911 25.1928C38.5084 25.1928 38.2248 25.0909 38.0002 24.8846L24.9083 12.8581L11.8165 24.8846C11.3407 25.3215 10.6011 25.2903 10.164 24.8145C9.95751 24.5896 9.85552 24.3059 9.85575 24.0228C9.85599 23.707 9.98324 23.3924 10.2342 23.1619L24.1172 10.4086C24.1179 10.4079 24.1185 10.4073 24.1192 10.4068C24.3519 10.1941 24.6476 10.0925 24.9397 10.1008C25.0221 10.1029 25.1043 10.1138 25.1848 10.1334C25.1851 10.1334 25.1855 10.1334 25.1857 10.1336C25.3761 10.1799 25.5567 10.2745 25.7079 10.4163L39.5826 23.1619C40.0582 23.5989 40.0897 24.3389 39.6527 24.8145C39.4221 25.0655 39.1071 25.1928 38.7911 25.1928Z" fill="#DD5958"/>
<path id="Vector_14" d="M39.5826 23.1619L25.7079 10.4162C25.5567 10.2744 25.3761 10.1798 25.1857 10.1336C25.1855 10.1333 25.1851 10.1333 25.1848 10.1333C25.1043 10.1137 25.0221 10.1028 24.9397 10.1007C24.9293 10.1004 24.9188 10.1013 24.9084 10.1013V12.8581L38.0002 24.8846C38.2249 25.0909 38.5085 25.1928 38.7912 25.1928C39.1072 25.1928 39.4222 25.0655 39.6529 24.8144C40.0898 24.3388 40.0583 23.5988 39.5826 23.1619Z" fill="#D8225B"/>
</g>
</g>
<g id="Group_16">
<path id="Vector_15" d="M20.9945 32.6879H18.3266C17.6806 32.6879 17.157 32.1642 17.157 31.5183V28.9332C17.157 28.2872 17.6806 27.7636 18.3266 27.7636H20.9945C21.6404 27.7636 22.1641 28.2872 22.1641 28.9332V31.5183C22.1641 32.1642 21.6404 32.6879 20.9945 32.6879Z" fill="#98CADF"/>
<g id="Group_17">
<path id="Vector_16" d="M32.9314 38.3798H27.096V28.9114C27.096 28.2655 27.6197 27.7418 28.2656 27.7418H31.7618C32.4077 27.7418 32.9314 28.2655 32.9314 28.9114V38.3798Z" fill="#654D54"/>
<path id="Vector_17" d="M31.7559 34.2526C31.2479 34.2526 30.7836 33.9085 30.637 33.4222C30.4946 32.95 30.6699 32.4239 31.0706 32.1348C31.4257 31.8787 31.9039 31.843 32.2927 32.0441C32.7264 32.2684 32.9804 32.7559 32.9143 33.2401C32.8363 33.811 32.3331 34.2526 31.7559 34.2526Z" fill="#E6A960"/>
</g>
</g>
</g>
<g id="Group_18">
<path id="Vector_18" d="M38.8304 39.961H1.16959C0.523665 39.961 0 39.4373 0 38.7914C0 38.1455 0.523665 37.6218 1.16959 37.6218H38.8304C39.4763 37.6218 40 38.1455 40 38.7914C40 39.4373 39.4763 39.961 38.8304 39.961Z" fill="#88BC9D"/>
<path id="Vector_19" d="M38.8304 37.6218H24.9084V39.961H38.8304C39.4763 39.961 40 39.4373 40 38.7914C40 38.1455 39.4763 37.6218 38.8304 37.6218Z" fill="#5F9F8B"/>
</g>
</g>
</g>
<g id="Group_19">
<path id="Vector_20" d="M37.0945 5.77201C38.6776 5.77201 39.961 4.48863 39.961 2.9055C39.961 1.32237 38.6776 0.0389862 37.0945 0.0389862C35.5114 0.0389862 34.228 1.32237 34.228 2.9055C34.228 4.48863 35.5114 5.77201 37.0945 5.77201Z" fill="#F3D98F"/>
<path id="Vector_21" d="M37.0945 0.0389862V5.77201C38.6777 5.77201 39.961 4.48865 39.961 2.9055C39.961 1.32234 38.6777 0.0389862 37.0945 0.0389862Z" fill="#E6A960"/>
</g>
</g>
</g>
<defs>
<clipPath id="clip0_1392_164">
<rect width="40" height="40" fill="white"/>
</clipPath>
</defs>
</svg>
