<svg id="Layer_1" enable-background="new 0 0 512 512" height="512" viewBox="0 0 512 512" width="512" xmlns="http://www.w3.org/2000/svg"><g clip-rule="evenodd" fill-rule="evenodd"><g><g><path d="m370.534 16h-228.299l-61.789 61.789v308.211c0 5.508 4.492 10 10 10h280.088c5.508 0 10-4.492 10-10v-360c-.001-5.508-4.493-10-10-10z" fill="#f4f6f8"/><path d="m142.235 16-61.789 61.789h51.789c5.508 0 10-4.492 10-10z" fill="#e4e8eb"/></g><path d="m218.453 94.252h24.074c2.754 0 5 2.246 5 5.001v90.619c0 2.754-2.246 5-5 5-8.025 0-16.049 0-24.074 0-2.754 0-5-2.246-5-5 0-38.455 0-52.164 0-90.619-.001-2.754 2.245-5.001 5-5.001z" fill="#fdcd56"/><path d="m279.898 63.505h24.074c2.754 0 5 2.246 5 5v121.367c0 2.754-2.246 5-5 5h-24.074c-2.754 0-5-2.246-5-5v-121.368c0-2.754 2.246-4.999 5-4.999z" fill="#c6ea94"/><path d="m157.008 124.999h24.073c2.754 0 5 2.246 5 5v59.871c.001 2.754-2.246 5.001-5 5.001-8.025 0-16.049 0-24.073 0-2.754 0-5-2.247-5-5.001 0-27.536 0-32.334 0-59.871 0-2.754 2.246-5 5-5z" fill="#f76c82"/><path d="m152.008 273.186c-3.866 0-7-3.134-7-7s3.134-7 7-7h78.482c3.866 0 7 3.134 7 7s-3.134 7-7 7zm0-34.34c-3.866 0-7-3.134-7-7s3.134-7 7-7h156.963c3.866 0 7 3.134 7 7s-3.134 7-7 7z" fill="#c7e0ec"/></g><g><ellipse cx="80.865" cy="257.831" fill="#fdcd56" rx="64.865" ry="64.865" transform="matrix(.957 -.29 .29 .957 -71.246 34.496)"/><ellipse cx="80.865" cy="257.831" fill="#f5b945" rx="51.732" ry="51.732" transform="matrix(.526 -.851 .851 .526 -180.973 191.07)"/><path d="m61.489 287.656c-2.809-2.643-2.944-7.062-.301-9.871s7.062-2.944 9.871-.301c1.802 1.7 3.347 3.015 4.861 3.781 1.282.648 2.818.998 4.944.998 3.064 0 5.776-1.054 7.683-2.756 1.702-1.52 2.756-3.58 2.756-5.816 0-2.237-1.054-4.296-2.756-5.816-1.907-1.703-4.619-2.756-7.683-2.756-6.567 0-12.575-2.433-16.98-6.366-4.609-4.115-7.459-9.843-7.459-16.207h.028c0-6.38 2.841-12.107 7.432-16.207 2.753-2.458 6.131-4.33 9.882-5.388l-.082-3.413c-.09-3.851 2.958-7.046 6.809-7.137 3.851-.09 7.046 2.958 7.137 6.809l.093 3.89c1.723.493 3.464 1.135 5.092 1.892 3.807 1.771 7.354 4.321 9.345 7.35 2.114 3.216 1.22 7.538-1.996 9.652s-7.538 1.22-9.653-1.996c-.443-.675-1.841-1.526-3.548-2.319-2.281-1.061-4.63-1.732-6.099-1.732v.027c-3.064 0-5.776 1.054-7.682 2.756-1.72 1.535-2.784 3.597-2.784 5.816h.028c0 2.237 1.054 4.296 2.756 5.816 1.907 1.703 4.619 2.757 7.683 2.757 6.567 0 12.575 2.433 16.98 6.366 4.609 4.115 7.459 9.843 7.459 16.207 0 6.363-2.851 12.092-7.459 16.207-2.749 2.455-6.124 4.326-9.869 5.385l.069 2.845c.09 3.851-2.958 7.046-6.809 7.137-3.851.09-7.046-2.958-7.137-6.809l-.073-3.032c-1.551-.416-2.998-.983-4.395-1.689-3.015-1.528-5.472-3.56-8.143-6.08z" fill="#daa33b"/></g><g><path d="m28.846 351.446h104.038c7.064 0 12.844 6.57 12.844 14.602v18.982c0 8.031-5.78 14.602-12.844 14.602 7.064 0 12.844 6.57 12.844 14.601v18.982c0 8.031-5.78 14.601-12.844 14.601 7.064 0 12.844 6.57 12.844 14.601v18.982c0 8.031-5.78 14.601-12.844 14.601h-104.038c-7.065 0-12.844-6.57-12.844-14.601v-18.982c0-8.031 5.78-14.601 12.844-14.601-7.065 0-12.844-6.57-12.844-14.601v-18.982c0-8.031 5.78-14.601 12.844-14.601-7.065 0-12.844-6.571-12.844-14.602v-18.982c0-8.031 5.78-14.602 12.844-14.602z" fill="#f5b945"/><path d="m28.846 447.815h104.038c7.064 0 12.844-6.57 12.844-14.601v-18.982c0-8.031-5.78-14.601-12.844-14.601h-104.038c-7.065 0-12.844 6.57-12.844 14.601v18.982c0 8.031 5.78 14.601 12.844 14.601z" fill="#daa33b"/></g><g><path d="m380.271 368.24h25.868v49.93h-25.868z" fill="#a9b0bb" transform="matrix(.707 -.707 .707 .707 -162.871 393.208)"/><ellipse cx="317.82" cy="317.82" fill="#a9b0bb" rx="92.557" ry="92.557" transform="matrix(.34 -.94 .94 .34 -89.212 508.463)"/><path d="m397.544 411.521 13.977-13.977c4.616-4.616 12.171-4.617 16.788 0l64.228 64.228c4.617 4.617 4.617 12.171 0 16.788l-13.977 13.977c-4.617 4.617-12.171 4.617-16.788 0l-64.228-64.228c-4.616-4.617-4.616-12.171 0-16.788z" fill="#636c77"/><ellipse cx="317.82" cy="317.82" fill="#a4d4ff" rx="70.185" ry="70.185" transform="matrix(.29 -.957 .957 .29 -78.463 529.904)"/></g></g></svg>