<svg width="40" height="40" viewBox="0 0 40 40" fill="none" xmlns="http://www.w3.org/2000/svg">
<g id="Layer_1" clip-path="url(#clip0_1392_126)">
<g id="Group">
<path id="Vector" d="M39.9998 33.1641V37.8516C39.9998 38.175 39.7373 38.4375 39.4139 38.4375H0.586085C0.262651 38.4375 0.000152588 38.175 0.000152588 37.8516V33.1641C0.000152588 32.8407 0.262651 32.5782 0.586085 32.5782H39.4139C39.7373 32.5782 39.9998 32.8407 39.9998 33.1641Z" fill="#D6EAEC"/>
<path id="Vector_2" d="M39.9999 33.1641V37.8516C39.9999 38.1751 39.7374 38.4376 39.4139 38.4376H37.0702C37.3936 38.4376 37.6561 38.1751 37.6561 37.8516V33.1641C37.6561 32.8407 37.3936 32.5782 37.0702 32.5782H39.4139C39.7374 32.5782 39.9999 32.8407 39.9999 33.1641Z" fill="#B5D9DD"/>
<path id="Vector_3" d="M25.2734 26.9157V39.4141C25.2734 39.7375 25.0109 40 24.6875 40H15.3125C14.9891 40 14.7266 39.7375 14.7266 39.4141V26.9157C14.7266 26.5923 14.9891 26.3298 15.3125 26.3298H24.6875C25.0109 26.3298 25.2734 26.5923 25.2734 26.9157Z" fill="#6B717D"/>
<path id="Vector_4" d="M25.2734 26.9157V39.4141C25.2734 39.7375 25.0109 40 24.6875 40H22.8125C23.1359 40 23.3984 39.7375 23.3984 39.4141V26.9157C23.3984 26.5923 23.1359 26.3298 22.8125 26.3298H24.6875C25.0109 26.3298 25.2734 26.5923 25.2734 26.9157Z" fill="#47505E"/>
<path id="Vector_5" d="M33.6866 13.6869C33.6866 17.1017 32.4288 20.3572 30.139 22.8798V26.9157C30.139 27.2392 29.8773 27.5017 29.553 27.5017H10.4469C10.1227 27.5017 9.86101 27.2392 9.86101 26.9157V22.8798C7.58603 20.3728 6.32823 17.1385 6.31338 13.7455C6.29776 10.0815 7.69853 6.63854 10.2571 4.05106C12.5633 1.71983 15.5735 0.321402 18.8273 0.0487479C19.1844 0.0190607 19.5445 0.00265455 19.907 0.000310822C23.5797 -0.024689 27.0398 1.38858 29.6452 3.97684C32.2515 6.5651 33.6866 10.0135 33.6866 13.6869Z" fill="#FF6C6C"/>
<path id="Vector_6" d="M33.6866 13.6869C33.6866 17.1017 32.4288 20.3572 30.139 22.8798V26.9157C30.139 27.2392 29.8773 27.5017 29.553 27.5017H27.2093C27.5335 27.5017 27.7952 27.2392 27.7952 26.9157V22.8798C30.0851 20.3572 31.3429 17.1017 31.3429 13.6869C31.3429 10.0135 29.9077 6.5651 27.3015 3.97684C24.9968 1.6878 22.0242 0.317496 18.8273 0.0487479C19.1844 0.0190607 19.5445 0.00265455 19.907 0.000310822C23.5797 -0.024689 27.0398 1.38858 29.6452 3.97684C32.2515 6.5651 33.6866 10.0135 33.6866 13.6869Z" fill="#FF4141"/>
<path id="Vector_7" d="M20 24.1622C25.7854 24.1622 30.4755 19.4722 30.4755 13.6868C30.4755 7.90133 25.7854 3.2113 20 3.2113C14.2146 3.2113 9.52453 7.90133 9.52453 13.6868C9.52453 19.4722 14.2146 24.1622 20 24.1622Z" fill="#D6EAEC"/>
<path id="Vector_8" d="M20 22.9904C14.87 22.9904 10.6964 18.8168 10.6964 13.6868C10.6964 8.55673 14.87 4.38316 20 4.38316C25.13 4.38316 29.3036 8.55673 29.3036 13.6868C29.3036 18.8168 25.13 22.9904 20 22.9904Z" fill="white"/>
<g id="Group_2">
<path id="Vector_9" d="M18.757 14.101L17.2281 15.63C16.9992 15.8589 16.9992 16.2299 17.2281 16.4586C17.3425 16.573 17.4925 16.6303 17.6424 16.6303C17.7924 16.6303 17.9424 16.5731 18.0568 16.4586L19.5858 14.9296C19.8146 14.7008 19.8146 14.3298 19.5858 14.101C19.3569 13.8722 18.986 13.8722 18.757 14.101Z" fill="#FF6C6C"/>
<path id="Vector_10" d="M23.9902 9.69648C23.7613 9.46765 23.3904 9.46765 23.1616 9.69648L20.4143 12.4438C20.1855 12.6726 20.1855 13.0437 20.4143 13.2724C20.5287 13.3868 20.6787 13.4441 20.8287 13.4441C20.9786 13.4441 21.1286 13.3869 21.243 13.2724L23.9903 10.5251C24.2191 10.2963 24.2191 9.92531 23.9902 9.69648Z" fill="#FF6C6C"/>
</g>
<path id="Vector_11" d="M20 15.4446C20.9708 15.4446 21.7578 14.6576 21.7578 13.6868C21.7578 12.716 20.9708 11.929 20 11.929C19.0292 11.929 18.2422 12.716 18.2422 13.6868C18.2422 14.6576 19.0292 15.4446 20 15.4446Z" fill="#6B717D"/>
<g id="Group_3">
<path id="Vector_12" d="M21.9531 17.9129H18.0469C17.7232 17.9129 17.461 18.1752 17.461 18.4988C17.461 18.8224 17.7232 19.0848 18.0469 19.0848H21.9531C22.2768 19.0848 22.5391 18.8224 22.5391 18.4988C22.5391 18.1752 22.2768 17.9129 21.9531 17.9129Z" fill="#D6EAEC"/>
<path id="Vector_13" d="M21.1719 20.2566H18.8281C18.5045 20.2566 18.2422 20.519 18.2422 20.8426C18.2422 21.1662 18.5045 21.4285 18.8281 21.4285H21.1719C21.4956 21.4285 21.7578 21.1662 21.7578 20.8426C21.7578 20.519 21.4956 20.2566 21.1719 20.2566Z" fill="#D6EAEC"/>
</g>
<path id="Vector_14" d="M26.3739 29.4617H13.6261C13.3024 29.4617 13.0401 29.7241 13.0401 30.0476C13.0401 30.3712 13.3024 30.6336 13.6261 30.6336H26.3739C26.6976 30.6336 26.9599 30.3712 26.9599 30.0476C26.9599 29.7241 26.6976 29.4617 26.3739 29.4617Z" fill="#B5D9DD"/>
<g id="Group_4">
<path id="Vector_15" d="M18.0078 37.2542C18.3314 37.2542 18.5938 36.9917 18.5938 36.6678C18.5938 36.344 18.3314 36.0814 18.0078 36.0814C17.6842 36.0814 17.4219 36.344 17.4219 36.6678C17.4219 36.9917 17.6842 37.2542 18.0078 37.2542Z" fill="#47505E"/>
<path id="Vector_16" d="M21.9922 37.2542C22.3158 37.2542 22.5781 36.9917 22.5781 36.6678C22.5781 36.344 22.3158 36.0814 21.9922 36.0814C21.6686 36.0814 21.4062 36.344 21.4062 36.6678C21.4062 36.9917 21.6686 37.2542 21.9922 37.2542Z" fill="#47505E"/>
</g>
<g id="Group_5">
<path id="Vector_17" d="M12.8485 14.273C13.1721 14.273 13.4344 14.0105 13.4344 13.6866C13.4344 13.3627 13.1721 13.1002 12.8485 13.1002C12.5249 13.1002 12.2626 13.3627 12.2626 13.6866C12.2626 14.0105 12.5249 14.273 12.8485 14.273Z" fill="#6B717D"/>
<path id="Vector_18" d="M13.8064 10.6973C14.13 10.6973 14.3923 10.4347 14.3923 10.1109C14.3923 9.787 14.13 9.52446 13.8064 9.52446C13.4828 9.52446 13.2204 9.787 13.2204 10.1109C13.2204 10.4347 13.4828 10.6973 13.8064 10.6973Z" fill="#6B717D"/>
<path id="Vector_19" d="M16.4243 8.0801C16.7479 8.0801 17.0103 7.81756 17.0103 7.49369C17.0103 7.16983 16.7479 6.90729 16.4243 6.90729C16.1007 6.90729 15.8384 7.16983 15.8384 7.49369C15.8384 7.81756 16.1007 8.0801 16.4243 8.0801Z" fill="#6B717D"/>
<path id="Vector_20" d="M20 7.12151C20.3236 7.12151 20.5859 6.85897 20.5859 6.53511C20.5859 6.21124 20.3236 5.9487 20 5.9487C19.6764 5.9487 19.4141 6.21124 19.4141 6.53511C19.4141 6.85897 19.6764 7.12151 20 7.12151Z" fill="#6B717D"/>
<path id="Vector_21" d="M23.5758 8.0801C23.8994 8.0801 24.1618 7.81756 24.1618 7.49369C24.1618 7.16983 23.8994 6.90729 23.5758 6.90729C23.2522 6.90729 22.9899 7.16983 22.9899 7.49369C22.9899 7.81756 23.2522 8.0801 23.5758 8.0801Z" fill="#6B717D"/>
<path id="Vector_22" d="M26.1937 10.6973C26.5173 10.6973 26.7796 10.4347 26.7796 10.1109C26.7796 9.787 26.5173 9.52446 26.1937 9.52446C25.8701 9.52446 25.6078 9.787 25.6078 10.1109C25.6078 10.4347 25.8701 10.6973 26.1937 10.6973Z" fill="#6B717D"/>
<path id="Vector_23" d="M27.1515 14.273C27.4751 14.273 27.7374 14.0105 27.7374 13.6866C27.7374 13.3627 27.4751 13.1002 27.1515 13.1002C26.8279 13.1002 26.5656 13.3627 26.5656 13.6866C26.5656 14.0105 26.8279 14.273 27.1515 14.273Z" fill="#6B717D"/>
</g>
</g>
</g>
<defs>
<clipPath id="clip0_1392_126">
<rect width="40" height="40" fill="white"/>
</clipPath>
</defs>
</svg>
