<svg width="159" height="110" viewBox="0 0 159 110" fill="none" xmlns="http://www.w3.org/2000/svg">
<g id="Frame 28">
<path id="Vector" d="M129.789 57.9939L126.993 52.4231L124.576 46.536L159 27.5524V42.508L129.789 57.9939Z" fill="#9B7954"/>
<g id="Group">
<path id="Vector_2" d="M126.23 46.5201L122.22 44.9932H121.266C121.266 44.9932 120.76 45.351 121.6 47.095C122.44 48.8391 123.673 48.6538 123.673 48.6538L124.408 47.5486L126.23 46.5201Z" fill="#997147"/>
<path id="Vector_3" d="M130.44 59.8786L129.118 60.1149C129.118 60.1149 128.434 60.0287 127.623 58.6583C126.812 57.288 129.82 56.6236 129.82 56.6236C129.82 56.6236 130.822 56.4319 130.803 57.1794C130.784 57.9269 130.44 59.8786 130.44 59.8786Z" fill="#997147"/>
<path id="Vector_4" d="M123.171 45.3446L62.6842 68.0016C62.6842 68.0016 53.5099 79.3158 52.1456 81.2004C50.7814 83.085 44.3801 92.6008 43.1017 93.7156C41.8202 94.8304 37.5558 96.2007 37.5558 96.2007L45.5758 108.63L49.3313 106.4C49.3313 106.4 71.7726 107.173 82.7818 104.599C82.7818 104.599 95.4127 107.17 104.854 101.912C114.299 96.6543 120.214 84.6534 119.304 76.0256L125.193 60.626L131.165 57.7959C131.165 57.7959 131.592 50.3532 128.179 47.0886C124.767 43.8241 123.174 45.3382 123.174 45.3382L123.171 45.3446Z" fill="#0B59B5"/>
<path id="Vector_5" d="M40.9043 99.5004L52.8357 91.569L66.7132 76.3067L65.737 75.4124L51.9676 90.5501L40.1761 98.392L40.9043 99.5004Z" fill="#3483D1"/>
<path id="Vector_6" d="M66.2553 76.8114L63.8798 85.5734L52.1901 91.6585L66.2553 76.8114Z" fill="url(#paint0_linear_1392_264)"/>
<path id="Vector_7" d="M73.5661 90.0326C81.7578 96.0314 82.7818 104.605 82.7818 104.605C71.7726 107.176 49.3313 106.406 49.3313 106.406L45.5758 108.636L42.0205 103.126L73.5661 90.0358V90.0326Z" fill="url(#paint1_linear_1392_264)"/>
<path id="Vector_8" d="M34.0098 106.604C31.3838 102.602 29.8992 98.9306 30.694 98.4044C31.4888 97.8782 34.2619 100.696 36.888 104.698C39.5141 108.7 40.9986 112.371 40.2038 112.897C39.4091 113.423 36.6359 110.606 34.0098 106.604Z" fill="#997147"/>
<path id="Vector_9" d="M36.8848 104.698C34.2581 100.695 31.4852 97.8777 30.6902 98.4048C30.6902 98.4048 36.6559 93.9743 37.807 94.2299C38.9582 94.4886 42.9363 97.948 44.9843 101.548C46.269 103.806 46.8955 106.352 47.1848 107.94C47.347 108.837 46.8891 109.732 46.0687 110.121L40.2016 112.894C40.9966 112.367 39.5115 108.697 36.8848 104.694V104.698Z" fill="#BD9C75"/>
<path id="Vector_10" d="M119.644 53.8573L119.816 51.1326C119.816 51.1326 123.912 55.6557 125.193 60.6292L119.304 76.0288L115.036 64.9127L116.06 59.8562L119.644 53.8573Z" fill="url(#paint2_linear_1392_264)"/>
<path id="Vector_11" d="M89.5234 75.5465C72.3207 75.5465 58.3753 63.6307 58.3753 48.9317C58.3753 34.2328 72.3207 22.317 89.5234 22.317C106.726 22.317 120.671 34.2328 120.671 48.9317C120.671 63.6307 106.726 75.5465 89.5234 75.5465Z" fill="#BD9C75"/>
<path id="Vector_12" d="M89.5234 69.915C75.4311 69.915 64.007 60.3374 64.007 48.5229C64.007 36.7084 75.4311 27.1308 89.5234 27.1308C103.616 27.1308 115.04 36.7084 115.04 48.5229C115.04 60.3374 103.616 69.915 89.5234 69.915Z" fill="#0B59B5"/>
<path id="Vector_13" d="M89.5234 68.1038C76.6253 68.1038 66.1694 59.3371 66.1694 48.5229C66.1694 37.7086 76.6253 28.9419 89.5234 28.9419C102.421 28.9419 112.877 37.7086 112.877 48.5229C112.877 59.3371 102.421 68.1038 89.5234 68.1038Z" fill="#FBFEFE"/>
<path id="Vector_14" d="M90.2706 31.3025C77.3726 31.3025 66.9167 40.0676 66.9167 50.8834C66.9167 52.1995 67.0725 53.4868 67.3683 54.7294C66.5924 52.7777 66.1694 50.6918 66.1694 48.5229C66.1694 37.7102 76.6253 28.9419 89.5233 28.9419C100.851 28.9419 110.295 35.7042 112.426 44.677C109.332 36.9053 100.58 31.3025 90.2706 31.3025Z" fill="#003C6D"/>
<g id="Group_2">
<path id="Vector_15" d="M89.5234 75.5433C106.091 75.5433 119.638 64.4879 120.611 50.5417L120.656 59.6805C120.665 59.9392 120.668 60.198 120.668 60.4567C120.668 60.6324 120.665 60.8081 120.662 60.9838L120.668 62.5969C120.668 62.5969 120.63 62.6352 120.557 62.7087C119.218 76.3515 105.837 87.0683 89.5234 87.0683C73.21 87.0683 59.3197 75.9426 58.4261 61.9293L58.3784 61.8239V48.9254C58.3784 63.6222 72.3227 75.5401 89.5265 75.5401L89.5234 75.5433Z" fill="#9B7954"/>
<path id="Vector_16" d="M58.4071 47.7722C58.388 48.1555 58.3753 48.542 58.3753 48.9317V47.7722H58.4071Z" fill="#9B7954"/>
</g>
<path id="Vector_17" d="M111.796 77.2299L109.29 78.3159L109.859 84.2605L112.419 83.2319L111.796 77.2299Z" fill="#BD9C75"/>
<path id="Vector_18" d="M110.314 74.4892L106.845 76.032L109.29 78.316L111.796 77.2299L110.314 74.4892Z" fill="#876645"/>
<path id="Vector_19" d="M109.859 84.2605L106.845 82.5803V76.032L109.29 78.316L109.859 84.2605Z" fill="#704F33"/>
<path id="Vector_20" d="M65.0183 69.915L61.5743 72.9719L61.8733 77.3034L65.0183 76.8881V69.915Z" fill="#704F33"/>
<path id="Vector_21" d="M59.7395 75.735L61.8733 77.3033L61.5743 72.9719L59.7395 70.8317V75.735Z" fill="#BD9C75"/>
<path id="Vector_22" d="M65.0183 69.915L62.6842 68.0016L59.7395 70.8318L61.5743 72.9719L65.0183 69.915Z" fill="#876645"/>
<path id="Vector_23" d="M128.094 41.8373C127.41 41.9459 121.266 44.9932 121.266 44.9932C121.266 44.9932 125.788 46.2294 128.094 50.3436C130.399 54.4579 130.825 59.7731 129.118 60.1149C129.118 60.1149 129.378 60.4567 130.157 60.428C130.936 60.3992 136.597 56.598 136.597 56.598C136.597 56.598 137.309 52.0717 134.492 47.0919C131.674 42.112 128.09 41.8341 128.09 41.8341L128.094 41.8373Z" fill="#BD9C75"/>
<g id="Group_3">
<path id="Vector_24" d="M44.8698 110.69C42.9841 102.618 36.5954 96.9674 34.8623 95.5555C34.9959 95.4724 35.1295 95.3926 35.263 95.3127C37.1901 96.9067 43.3784 102.529 45.28 110.498L44.873 110.69H44.8698Z" fill="#A57D51"/>
<path id="Vector_25" d="M31.5297 97.7979C31.6473 97.7148 31.7714 97.6254 31.9049 97.5296C34.6747 99.6346 40.0012 104.56 41.6135 112.226L41.2033 112.421C39.6228 104.72 34.2168 99.8199 31.5265 97.7979H31.5297Z" fill="#A57D51"/>
<path id="Vector_26" d="M36.8085 94.4854C43.884 100.19 46.1068 106.732 46.7683 109.572C46.6601 109.703 46.5361 109.824 46.3962 109.927C45.827 107.298 43.7059 100.542 36.3633 94.6962C36.5191 94.6164 36.6654 94.5461 36.8053 94.4854H36.8085Z" fill="#A57D51"/>
<path id="Vector_27" d="M32.9989 96.7725C33.1356 96.6799 33.2755 96.584 33.4186 96.4882C39.6228 99.7113 42.523 107.94 43.4865 111.342L43.0826 111.533C42.1477 108.195 39.2507 99.8518 32.9989 96.7725Z" fill="#A57D51"/>
</g>
<g id="Group_4">
<path id="Vector_28" d="M135.735 57.0356C135.732 56.9175 135.274 45.2903 127.003 42.4378C126.927 42.4122 126.853 42.3867 126.777 42.3611C126.993 42.2653 127.194 42.1758 127.372 42.1024C135.233 45.0092 136.094 55.579 136.171 56.8887C136.053 56.9654 135.916 57.058 135.761 57.1602L135.741 57.0804L135.735 57.0356Z" fill="#A57D51"/>
<path id="Vector_29" d="M123.82 43.8816L123.931 43.6899C124.01 43.6516 124.09 43.6133 124.169 43.5749C132.425 48.5261 132.841 57.7671 132.86 59.0065C132.717 59.096 132.577 59.179 132.437 59.2652L132.425 59.1758V59.1566V59.1375C132.425 59.0385 132.546 49.0116 123.826 43.8816H123.82Z" fill="#A57D51"/>
<path id="Vector_30" d="M134.202 58.045C133.175 46.4657 125.578 43.1373 125.502 43.1054L125.343 43.0159C125.515 42.9361 125.68 42.8562 125.845 42.7796C127.009 43.3577 133.627 47.1142 134.625 57.8917C134.489 57.9779 134.352 58.0674 134.209 58.16C134.206 58.1217 134.202 58.0834 134.199 58.045H134.202Z" fill="#A57D51"/>
</g>
<g id="Group_5">
<path id="Vector_31" d="M90.8113 57.3998C90.9035 57.2465 91.0021 57.0995 91.1134 56.9622L90.7254 56.4351C91.0307 56.0869 91.3805 55.7835 91.7716 55.5343L92.3408 55.9049C92.6652 55.7196 93.0118 55.5727 93.3743 55.4641L93.3998 54.8412C93.8672 54.7262 94.3569 54.6687 94.8467 54.6751L95.0724 55.2692C95.454 55.2916 95.8356 55.3555 96.2109 55.4641L96.6434 54.9817C96.8723 55.0584 97.0949 55.151 97.3144 55.2564C97.5338 55.3618 97.7436 55.4832 97.9376 55.6142L97.7341 56.2083C98.0426 56.4319 98.3129 56.6875 98.5418 56.9622L99.2128 56.8057C99.4895 57.1762 99.7089 57.5755 99.8615 57.9939L99.305 58.3581C99.41 58.6935 99.4672 59.0385 99.4736 59.3834L100.129 59.6102C100.116 60.0415 100.033 60.4759 99.8838 60.9007H99.1874C99.1206 61.0572 99.0443 61.2138 98.952 61.3671C98.8598 61.5204 98.7612 61.6674 98.6499 61.8047L99.0379 62.3318C98.7326 62.6799 98.3828 62.9834 97.9917 63.2326L97.4225 62.862C97.0981 63.0473 96.7515 63.1942 96.389 63.3028L96.3635 63.9257C95.8961 64.0407 95.4063 64.0982 94.9166 64.0918L94.6909 63.4977C94.3093 63.4753 93.9276 63.4114 93.5524 63.3028L93.1199 63.7852C92.891 63.7085 92.6684 63.6159 92.4489 63.5105C92.2295 63.405 92.0196 63.2837 91.8257 63.1527L92.0292 62.5586C91.7207 62.335 91.4504 62.0794 91.2215 61.8047L90.5505 61.9612C90.2738 61.5907 90.0544 61.1914 89.9018 60.773L90.4583 60.4088C90.3533 60.0734 90.2961 59.7284 90.2897 59.3834L89.6346 59.1566C89.6474 58.7254 89.73 58.291 89.8795 57.8662H90.5759C90.6427 57.7096 90.719 57.5531 90.8113 57.3998Z" fill="black"/>
<path id="Vector_32" d="M93.228 58.5817C92.751 59.3898 93.104 60.4088 94.0135 60.8528C94.9262 61.2968 96.0519 61.0029 96.5289 60.1916C97.0059 59.3802 96.6529 58.3645 95.7434 57.9205C94.834 57.4765 93.705 57.7703 93.228 58.5817Z" fill="#BD9C75"/>
</g>
<g id="Group_6">
<path id="Vector_33" d="M108.546 47.3697L92.0832 34.6565C91.7239 34.3786 91.2342 34.3466 90.8399 34.5766L84.2636 38.4289C83.5831 38.8282 83.5163 39.7865 84.1332 40.2752L100.021 52.8926C100.711 53.4389 101.668 53.4932 102.409 53.0236L108.457 49.2064C109.115 48.7912 109.16 47.8457 108.543 47.3697H108.546Z" fill="white"/>
<path id="Vector_34" d="M101.308 53.6753C101.75 53.6753 102.196 53.5539 102.587 53.3047L108.635 49.4876C109.036 49.2352 109.287 48.8008 109.309 48.3248C109.332 47.8489 109.122 47.3953 108.746 47.1046L92.2804 34.3914C91.8129 34.0304 91.1801 33.9889 90.6713 34.2892L84.0951 38.1415C83.6817 38.3842 83.4146 38.8155 83.3796 39.2946C83.3446 39.7737 83.5513 40.2369 83.9265 40.5372L99.8106 53.1546C100.246 53.4996 100.774 53.6753 101.302 53.6753H101.308ZM108.346 47.6317C108.552 47.7914 108.664 48.0342 108.651 48.2929C108.638 48.5548 108.505 48.7848 108.285 48.9222L102.237 52.7393C101.614 53.1322 100.806 53.0875 100.227 52.6307L84.3399 40.0133C84.1332 39.8504 84.0251 39.6044 84.0442 39.3393C84.0633 39.0742 84.2032 38.8474 84.4322 38.7132L91.0084 34.8609C91.2851 34.698 91.6285 34.7204 91.8829 34.9152L108.349 47.6285L108.346 47.6317Z" fill="#7A7A7A"/>
</g>
<g id="Group_7">
<path id="Vector_35" d="M105.881 47.8872L104.161 46.536C103.964 46.3827 103.69 46.3699 103.48 46.5041L99.1619 49.3055C98.8249 49.5259 98.8026 50.0146 99.1206 50.2606L100.812 51.5766C101.01 51.7299 101.277 51.7427 101.487 51.6085L105.834 48.8391C106.174 48.6219 106.199 48.13 105.881 47.8808V47.8872Z" fill="white"/>
<path id="Vector_36" d="M101.175 51.8162C101.305 51.8162 101.436 51.781 101.547 51.7076L105.894 48.9381C106.088 48.8136 106.206 48.6123 106.215 48.3823C106.228 48.1523 106.129 47.9415 105.948 47.7978L104.228 46.4466C103.992 46.2645 103.668 46.2486 103.42 46.4115L99.1015 49.2128C98.9107 49.3374 98.7931 49.5387 98.7835 49.7686C98.774 49.9986 98.8726 50.2095 99.0506 50.35L100.742 51.6661C100.866 51.7619 101.019 51.813 101.172 51.813L101.175 51.8162ZM103.798 46.5201C103.903 46.5201 104.005 46.5552 104.091 46.6223L105.811 47.9735C105.935 48.0693 106.002 48.2162 105.993 48.3727C105.986 48.5293 105.904 48.6666 105.773 48.7529L101.426 51.5223C101.258 51.6309 101.035 51.6181 100.879 51.4968L99.1874 50.1807C99.0634 50.0849 98.9966 49.9411 99.0029 49.7846C99.0093 49.6281 99.0888 49.4907 99.2192 49.4045L103.538 46.6031C103.617 46.552 103.706 46.5265 103.798 46.5265V46.5201Z" fill="#939393"/>
</g>
<g id="Group_8">
<path id="Vector_37" d="M102.561 45.2392L100.841 43.888C100.644 43.7347 100.37 43.7219 100.16 43.856L95.842 46.6574C95.5049 46.8778 95.4827 47.3666 95.8007 47.6125L97.4924 48.9286C97.6896 49.0819 97.9567 49.0947 98.1666 48.9605L102.514 46.1911C102.854 45.9738 102.879 45.4819 102.561 45.2328V45.2392Z" fill="white"/>
<path id="Vector_38" d="M97.8518 49.1681C97.9822 49.1681 98.1125 49.133 98.2238 49.0595L102.571 46.2901C102.765 46.1655 102.883 45.9643 102.892 45.7343C102.902 45.5043 102.806 45.2935 102.625 45.1497L100.905 43.7985C100.669 43.6133 100.345 43.6005 100.097 43.7634L95.7784 46.5648C95.5876 46.6894 95.47 46.8906 95.4604 47.1206C95.4509 47.3506 95.5495 47.5614 95.7275 47.7019L97.4193 49.018C97.5433 49.1138 97.696 49.1649 97.8486 49.1649L97.8518 49.1681ZM102.491 45.3254C102.615 45.4212 102.682 45.5682 102.673 45.7247C102.666 45.8812 102.584 46.0186 102.453 46.1048L98.1062 48.8742C97.9376 48.9829 97.715 48.9733 97.5592 48.8487L95.8675 47.5326C95.7434 47.4368 95.6767 47.2931 95.683 47.1366C95.6894 46.98 95.7689 46.8427 95.8993 46.7564L100.218 43.9551C100.389 43.8433 100.612 43.8528 100.771 43.9806L102.491 45.3318V45.3254Z" fill="#939393"/>
</g>
<g id="Group_9">
<path id="Vector_39" d="M99.146 42.5911L97.4257 41.2399C97.2285 41.0866 96.955 41.0738 96.7451 41.208L92.4267 44.0094C92.0896 44.2298 92.0674 44.7185 92.3854 44.9644L94.0771 46.2805C94.2743 46.4338 94.5414 46.4466 94.7513 46.3124L99.0983 43.543C99.4386 43.3258 99.464 42.8339 99.146 42.5847V42.5911Z" fill="white"/>
<path id="Vector_40" d="M94.4365 46.5201C94.5668 46.5201 94.6972 46.4849 94.8085 46.4115L99.1556 43.642C99.3496 43.5174 99.4672 43.3162 99.4768 43.0862C99.4895 42.8562 99.3909 42.6454 99.2096 42.5017L97.4893 41.1505C97.2539 40.9652 96.9296 40.9524 96.6815 41.1153L92.3631 43.9167C92.1723 44.0413 92.0546 44.2425 92.0451 44.4725C92.0356 44.7025 92.1341 44.9133 92.3122 45.0539L94.004 46.3699C94.128 46.4658 94.2806 46.5169 94.4333 46.5169L94.4365 46.5201ZM97.0631 41.2271C97.1681 41.2271 97.2698 41.2623 97.3557 41.3294L99.0761 42.6805C99.2001 42.7764 99.2669 42.9233 99.2573 43.0798C99.251 43.2363 99.1683 43.3737 99.0379 43.4599L94.6909 46.2294C94.5223 46.338 94.2997 46.3252 94.1439 46.2038L92.4521 44.8878C92.3281 44.792 92.2613 44.6482 92.2677 44.4917C92.2741 44.3352 92.3536 44.1978 92.4839 44.1116L96.8024 41.3102C96.8819 41.2591 96.9709 41.2335 97.0631 41.2335V41.2271Z" fill="#939393"/>
</g>
<g id="Group_10">
<path id="Vector_41" d="M95.8547 40.0676L94.1344 38.7164C93.9372 38.5631 93.6637 38.5503 93.4538 38.6845L89.1354 41.4859C88.7983 41.7063 88.7761 42.195 89.0941 42.441L90.7858 43.757C90.983 43.9103 91.2501 43.9231 91.46 43.789L95.807 41.0195C96.1473 40.8023 96.1727 40.3104 95.8547 40.0612V40.0676Z" fill="white"/>
<path id="Vector_42" d="M91.1452 43.9966C91.2755 43.9966 91.4059 43.9614 91.5172 43.888L95.8643 41.1185C96.0583 40.994 96.1759 40.7927 96.1855 40.5627C96.1982 40.3327 96.0996 40.1219 95.9183 39.9782L94.198 38.627C93.9658 38.4417 93.6383 38.4289 93.3902 38.5919L89.0718 41.3932C88.881 41.5178 88.7633 41.7191 88.7538 41.949C88.7443 42.179 88.8428 42.3899 89.0209 42.5304L90.7127 43.8464C90.8367 43.9423 90.9893 43.9934 91.142 43.9934L91.1452 43.9966ZM93.7687 38.7005C93.8736 38.7005 93.9754 38.7356 94.0612 38.8027L95.7816 40.1539C95.9056 40.2497 95.9724 40.3966 95.9629 40.5531C95.9565 40.7097 95.8738 40.847 95.7434 40.9333L91.3964 43.7027C91.2278 43.8113 91.0052 43.7985 90.8494 43.6772L89.1577 42.3611C89.0336 42.2653 88.9669 42.1215 88.9732 41.965C88.9796 41.8085 89.0591 41.6711 89.1895 41.5849L93.5079 38.7835C93.5874 38.7324 93.6764 38.7069 93.7655 38.7069L93.7687 38.7005Z" fill="#939393"/>
</g>
<g id="Group_11">
<path id="Vector_43" d="M92.7542 37.4195L91.0338 36.0684C90.8367 35.915 90.5632 35.9023 90.3533 36.0364L86.0349 38.8378C85.6978 39.0582 85.6755 39.5469 85.9935 39.7929L87.6853 41.1089C87.8825 41.2623 88.1496 41.275 88.3595 41.1409L92.7065 38.3714C93.0468 38.1542 93.0722 37.6623 92.7542 37.4132V37.4195Z" fill="white"/>
<path id="Vector_44" d="M88.0446 41.3485C88.175 41.3485 88.3054 41.3134 88.4167 41.2399L92.7638 38.4705C92.9578 38.3459 93.0754 38.1447 93.0849 37.9147C93.0977 37.6847 92.9991 37.4707 92.8178 37.3301L91.0974 35.9789C90.8621 35.7937 90.5378 35.7809 90.2897 35.9438L85.9713 38.7452C85.7805 38.8698 85.6628 39.071 85.6533 39.301C85.6438 39.531 85.7423 39.7418 85.9204 39.8824L87.6122 41.1984C87.7362 41.2942 87.8888 41.3453 88.0415 41.3453L88.0446 41.3485ZM92.6874 37.5058C92.8115 37.6016 92.8782 37.7486 92.8687 37.9051C92.8592 38.0616 92.7797 38.199 92.6493 38.282L88.3022 41.0515C88.1337 41.1601 87.9111 41.1473 87.7553 41.0259L86.0635 39.7099C85.9395 39.614 85.8727 39.4703 85.8791 39.3138C85.8854 39.1572 85.9649 39.0199 86.0953 38.9336L90.4138 36.1323C90.5855 36.0205 90.8081 36.03 90.9671 36.1578L92.6874 37.509V37.5058Z" fill="#939393"/>
</g>
<g id="Group_12">
<g id="Group_13">
<path id="Vector_45" d="M74.7427 40.5276C73.6774 42.1152 74.3484 44.0956 76.2405 44.9517C78.1326 45.8077 80.5271 45.2136 81.5924 43.6292C82.6577 42.0449 81.9868 40.0612 80.0947 39.2052C78.2026 38.3491 75.808 38.9432 74.7427 40.5276Z" fill="white"/>
<path id="Vector_46" d="M76.196 45.0156C78.1262 45.8908 80.5812 45.2807 81.6688 43.6612C82.7563 42.0417 82.0694 40.0133 80.136 39.1381C78.2057 38.2628 75.7508 38.873 74.6664 40.4925C73.582 42.112 74.2657 44.1403 76.1992 45.0156H76.196ZM80.0501 39.269C81.8945 40.1028 82.5528 42.0449 81.5129 43.5941C80.4731 45.1433 78.1294 45.7247 76.2818 44.8878C74.4343 44.0509 73.7792 42.112 74.819 40.5627C75.8589 39.0135 78.2026 38.4321 80.0501 39.269Z" fill="black"/>
</g>
<g id="Group_14">
<path id="Vector_47" d="M81.2967 41.2431L81.8659 41.1026C81.9009 41.093 81.939 41.1122 81.9486 41.1409C81.9581 41.1728 81.939 41.2048 81.9009 41.2144L81.3317 41.3549C81.2967 41.3645 81.2585 41.3453 81.249 41.3166C81.2394 41.2878 81.2585 41.2559 81.2967 41.2463V41.2431Z" fill="black"/>
<path id="Vector_48" d="M81.4207 42.3292L82.0027 42.3835C82.0408 42.3867 82.0663 42.4154 82.0599 42.4442C82.0535 42.4761 82.0217 42.4985 81.9836 42.4953L81.4016 42.441C81.3635 42.4378 81.338 42.409 81.3444 42.3771C81.3508 42.3452 81.3826 42.3228 81.4207 42.326V42.3292Z" fill="black"/>
<path id="Vector_49" d="M80.7211 40.3391L81.1886 40.0357C81.2172 40.0165 81.2617 40.0197 81.284 40.0453C81.3062 40.0708 81.2999 40.106 81.2713 40.1251L80.8038 40.4286C80.7752 40.4477 80.7338 40.4445 80.7084 40.419C80.6861 40.3934 80.6893 40.3583 80.7211 40.3391Z" fill="black"/>
<path id="Vector_50" d="M76.1197 39.9846L75.7603 39.6013C75.738 39.5757 75.7444 39.5406 75.773 39.5214C75.8017 39.499 75.8462 39.5054 75.8684 39.5278L76.2278 39.9111C76.25 39.9367 76.2437 39.9718 76.2151 39.991C76.1864 40.0101 76.1419 40.0069 76.1197 39.9814V39.9846Z" fill="black"/>
<path id="Vector_51" d="M80.9596 43.3418C80.9723 43.3258 80.9819 43.3066 80.9914 43.2906L81.5638 43.5494C81.5956 43.5654 81.6083 43.5973 81.5892 43.626C81.5702 43.6548 81.5288 43.6644 81.497 43.6516L80.9246 43.3929C80.9373 43.3769 80.9501 43.3609 80.9596 43.3418Z" fill="black"/>
<path id="Vector_52" d="M79.7385 39.7322C79.7194 39.7227 79.6972 39.7163 79.6781 39.7067L79.9993 39.2243C80.0183 39.1956 80.0597 39.186 80.0915 39.202C80.1233 39.218 80.136 39.2531 80.1169 39.2786L79.7957 39.761C79.7766 39.7514 79.7576 39.7418 79.7353 39.7322H79.7385Z" fill="black"/>
<path id="Vector_53" d="M78.5269 39.3681L78.6032 38.8825C78.6096 38.8506 78.6414 38.8282 78.6796 38.8346C78.7177 38.8378 78.7432 38.8666 78.7368 38.8985L78.6605 39.3841C78.6541 39.416 78.6223 39.4384 78.5842 39.432C78.546 39.4288 78.5206 39.4 78.5269 39.3713V39.3681Z" fill="black"/>
<path id="Vector_54" d="M77.2168 39.4895L77.0578 39.0199C77.0482 38.9912 77.0673 38.9592 77.1054 38.9496C77.1404 38.94 77.1786 38.956 77.1881 38.988L77.3471 39.4575C77.3567 39.4863 77.3376 39.5182 77.2994 39.5278C77.2644 39.5374 77.2263 39.5214 77.2168 39.4895Z" fill="black"/>
<path id="Vector_55" d="M75.6109 43.8145L75.1434 44.118C75.1148 44.1371 75.0703 44.1339 75.048 44.1084C75.0257 44.0828 75.0321 44.0477 75.0607 44.0285L75.5282 43.7251C75.5568 43.7059 75.5981 43.7091 75.6236 43.7347C75.6458 43.7602 75.6427 43.7953 75.6109 43.8145Z" fill="black"/>
<path id="Vector_56" d="M75.0353 42.9137L74.4661 43.0543C74.4311 43.0639 74.3929 43.0447 74.3834 43.0159C74.3738 42.984 74.3929 42.9521 74.4311 42.9425L75.0003 42.8019C75.0353 42.7923 75.0734 42.8115 75.083 42.8403C75.0925 42.869 75.0734 42.901 75.0353 42.9105V42.9137Z" fill="black"/>
<path id="Vector_57" d="M74.9112 41.8277L74.3293 41.7734C74.2911 41.7702 74.2657 41.7414 74.2721 41.7127C74.2784 41.6807 74.3102 41.6584 74.3484 41.6616L74.9303 41.7159C74.9685 41.7191 74.9939 41.7478 74.9876 41.7798C74.9812 41.8117 74.9494 41.8341 74.9112 41.8309V41.8277Z" fill="black"/>
<path id="Vector_58" d="M75.4073 40.764C75.3946 40.78 75.3819 40.7959 75.3723 40.8151C75.3628 40.8343 75.3501 40.8502 75.3406 40.8662L74.7682 40.6075C74.7364 40.5915 74.7236 40.5596 74.7427 40.5308C74.7618 40.5021 74.8031 40.4925 74.8349 40.5052L75.4073 40.764Z" fill="black"/>
<path id="Vector_59" d="M77.805 44.7856L77.7287 45.2711C77.7224 45.303 77.6906 45.3254 77.6524 45.319C77.6142 45.3158 77.5888 45.2871 77.5952 45.2551L77.6715 44.7696C77.6778 44.7377 77.7097 44.7153 77.7478 44.7217C77.786 44.7249 77.8114 44.7536 77.805 44.7824V44.7856Z" fill="black"/>
<path id="Vector_60" d="M79.1152 44.6642L79.2742 45.1338C79.2838 45.1625 79.2647 45.1945 79.2265 45.204C79.1915 45.2136 79.1534 45.1976 79.1438 45.1657L78.9848 44.6961C78.9753 44.6674 78.9944 44.6355 79.0325 44.6259C79.0675 44.6163 79.1057 44.6323 79.1152 44.6642Z" fill="black"/>
<path id="Vector_61" d="M76.5935 44.4214C76.6125 44.431 76.6348 44.4374 76.6539 44.447L76.3327 44.9293C76.3136 44.9581 76.2723 44.9677 76.2405 44.9517C76.2087 44.9357 76.196 44.9006 76.2151 44.875L76.5362 44.3927C76.5553 44.4023 76.5744 44.4119 76.5966 44.4214H76.5935Z" fill="black"/>
<path id="Vector_62" d="M80.2123 44.1691L80.5717 44.5524C80.5939 44.578 80.5876 44.6131 80.5589 44.6323C80.5303 44.6546 80.4858 44.6482 80.4635 44.6259L80.1042 44.2426C80.0819 44.217 80.0883 44.1819 80.1169 44.1627C80.1455 44.1435 80.1901 44.1467 80.2123 44.1723V44.1691Z" fill="black"/>
</g>
<path id="Vector_63" d="M76.3963 41.2751C75.8462 42.096 76.1928 43.1214 77.1722 43.5622C78.1517 44.003 79.3887 43.6995 79.9388 42.8786C80.489 42.0577 80.1424 41.0323 79.1629 40.5915C78.1835 40.1475 76.9464 40.4541 76.3963 41.2751Z" fill="#E5E5E5"/>
<path id="Vector_64" d="M78.1962 41.3389L79.5381 40.0325L78.9117 41.6616C79.0961 41.8884 79.1247 42.195 78.9498 42.4538C78.7018 42.8211 78.1485 42.9584 77.7096 42.7604C77.2708 42.5624 77.115 42.1024 77.363 41.735C77.5379 41.4731 77.8655 41.3294 78.1994 41.3389H78.1962Z" fill="#AD071C"/>
</g>
<g id="Group_15">
<g id="Group_16">
<path id="Vector_65" d="M71.7217 48.5995C69.6865 49.1426 68.6276 51.1486 69.3558 53.0843C70.084 55.02 72.3259 56.1476 74.3611 55.6046C76.3963 55.0616 77.4553 53.0556 76.727 51.1198C75.9988 49.1841 73.7569 48.0565 71.7217 48.5995Z" fill="white"/>
<path id="Vector_66" d="M69.2731 53.1035C70.0172 55.0775 72.3132 56.2339 74.3897 55.6813C76.4663 55.1287 77.5538 53.0715 76.8097 51.0975C76.0656 49.1234 73.7696 47.9671 71.6931 48.5197C69.6166 49.0723 68.529 51.1294 69.2731 53.1035ZM76.6444 51.1422C77.3567 53.03 76.3168 54.9977 74.3325 55.5247C72.345 56.055 70.1508 54.9498 69.4417 53.062C68.7325 51.1741 69.7692 49.2097 71.7535 48.6794C73.741 48.1491 75.9352 49.2544 76.6444 51.1422Z" fill="black"/>
</g>
<g id="Group_17">
<path id="Vector_67" d="M76.0179 53.5283L76.549 53.7966C76.5839 53.8126 76.5967 53.8509 76.5808 53.8829C76.5649 53.9148 76.5235 53.9276 76.4917 53.9084L75.9607 53.6401C75.9257 53.6242 75.913 53.5858 75.9289 53.5539C75.9448 53.5251 75.9829 53.5123 76.0179 53.5283Z" fill="black"/>
<path id="Vector_68" d="M75.2547 54.4674L75.6427 54.8987C75.6681 54.9274 75.6649 54.9658 75.6363 54.9849C75.6077 55.0073 75.5663 55.0009 75.5409 54.9753L75.1529 54.5441C75.1275 54.5154 75.1307 54.477 75.1593 54.4547C75.1879 54.4323 75.2293 54.4387 75.2547 54.4674Z" fill="black"/>
<path id="Vector_69" d="M76.3009 52.4327L76.886 52.503C76.9242 52.5061 76.9528 52.5381 76.9496 52.5732C76.9496 52.6116 76.9147 52.6339 76.8797 52.6307L76.2946 52.5605C76.2564 52.5573 76.231 52.5253 76.231 52.4902C76.231 52.455 76.2659 52.4327 76.3009 52.4359V52.4327Z" fill="black"/>
<path id="Vector_70" d="M73.1718 49.0883L73.2068 48.5484C73.2068 48.5133 73.2418 48.4909 73.2767 48.4941C73.3149 48.5005 73.3435 48.5293 73.3403 48.5644L73.3054 49.1042C73.3054 49.1394 73.2704 49.1617 73.2354 49.1585C73.1972 49.1554 73.1686 49.1234 73.1718 49.0883Z" fill="black"/>
<path id="Vector_71" d="M74.1194 54.9594C74.1417 54.953 74.1608 54.9466 74.183 54.9402L74.4025 55.5279C74.4152 55.5599 74.3961 55.595 74.3611 55.6046C74.3261 55.6142 74.288 55.595 74.2753 55.5631L74.0558 54.9753C74.0781 54.9689 74.1004 54.9658 74.1226 54.9594H74.1194Z" fill="black"/>
<path id="Vector_72" d="M76.0497 51.2987C76.0433 51.2796 76.0338 51.2572 76.0243 51.238L76.6412 51.0751C76.6762 51.0655 76.7143 51.0847 76.727 51.1198C76.7398 51.155 76.7207 51.1901 76.6857 51.1997L76.0688 51.3626C76.0624 51.3434 76.0561 51.3211 76.0465 51.3019L76.0497 51.2987Z" fill="black"/>
<path id="Vector_73" d="M75.4391 50.2063L75.878 49.8741C75.9066 49.8517 75.9479 49.8581 75.9734 49.8869C75.9988 49.9156 75.9956 49.9571 75.967 49.9763L75.5282 50.3085C75.4996 50.3309 75.4582 50.3245 75.4328 50.2957C75.4073 50.267 75.4105 50.2286 75.4391 50.2063Z" fill="black"/>
<path id="Vector_74" d="M74.3738 49.4301L74.6251 48.9541C74.641 48.9254 74.6823 48.9126 74.7141 48.9318C74.7491 48.9509 74.7618 48.9893 74.7459 49.018L74.4947 49.4939C74.4788 49.5227 74.4374 49.5355 74.4056 49.5163C74.3707 49.5003 74.3579 49.462 74.3738 49.4333V49.4301Z" fill="black"/>
<path id="Vector_75" d="M69.7851 51.7683L69.2 51.698C69.1618 51.6948 69.1332 51.6629 69.1364 51.6277C69.1364 51.5894 69.1714 51.567 69.2063 51.5702L69.7915 51.6405C69.8296 51.6437 69.8551 51.6756 69.8551 51.7108C69.8551 51.7459 69.8201 51.7683 69.7851 51.7651V51.7683Z" fill="black"/>
<path id="Vector_76" d="M70.0681 50.6726L69.5371 50.4043C69.5021 50.3883 69.4894 50.35 69.5053 50.3181C69.5212 50.2861 69.5625 50.2733 69.5943 50.2925L70.1253 50.5608C70.1603 50.5768 70.173 50.6151 70.1571 50.6471C70.1412 50.6758 70.1031 50.6886 70.0681 50.6726Z" fill="black"/>
<path id="Vector_77" d="M70.8281 49.7367L70.4402 49.3055C70.4147 49.2767 70.4179 49.2384 70.4465 49.2192C70.4752 49.1969 70.5165 49.2033 70.5419 49.2288L70.9299 49.66C70.9553 49.6888 70.9522 49.7271 70.9235 49.7495C70.8949 49.7718 70.8536 49.7655 70.8281 49.7367Z" fill="black"/>
<path id="Vector_78" d="M72.0302 49.2288C72.0079 49.2352 71.9857 49.2384 71.9634 49.2448C71.9411 49.2512 71.9221 49.2576 71.8998 49.2639L71.6804 48.6762C71.6677 48.6443 71.6867 48.6091 71.7217 48.5995C71.7567 48.59 71.7949 48.6091 71.8076 48.6411L72.027 49.2288H72.0302Z" fill="black"/>
<path id="Vector_79" d="M70.6469 53.9947L70.208 54.3269C70.1794 54.3493 70.1381 54.3429 70.1126 54.3141C70.0872 54.2854 70.0904 54.2438 70.119 54.2247L70.5578 53.8925C70.5865 53.8701 70.6278 53.8765 70.6532 53.9052C70.6787 53.934 70.6755 53.9723 70.6469 53.9947Z" fill="black"/>
<path id="Vector_80" d="M71.7122 54.7709L71.461 55.2468C71.4451 55.2756 71.4037 55.2884 71.3719 55.2692C71.3369 55.25 71.3242 55.2117 71.3401 55.183L71.5913 54.707C71.6072 54.6783 71.6486 54.6655 71.6804 54.6846C71.7154 54.7006 71.7281 54.739 71.7122 54.7677V54.7709Z" fill="black"/>
<path id="Vector_81" d="M70.0363 52.9022C70.0427 52.9214 70.0522 52.9438 70.0618 52.9629L69.4448 53.1259C69.4099 53.1354 69.3717 53.1163 69.359 53.0811C69.3463 53.046 69.3653 53.0109 69.4003 53.0013L70.0172 52.8384C70.0236 52.8575 70.03 52.8799 70.0395 52.8991L70.0363 52.9022Z" fill="black"/>
<path id="Vector_82" d="M72.9142 55.1127L72.8792 55.6525C72.8792 55.6877 72.8443 55.71 72.8093 55.7068C72.7711 55.7004 72.7425 55.6717 72.7457 55.6366L72.7807 55.0967C72.7807 55.0616 72.8156 55.0392 72.8506 55.0424C72.8888 55.0456 72.9174 55.0775 72.9142 55.1127Z" fill="black"/>
</g>
<path id="Vector_83" d="M72.3609 50.2893C71.3083 50.5704 70.7614 51.6086 71.1366 52.6084C71.5118 53.6082 72.6725 54.1927 73.7251 53.9116C74.7777 53.6305 75.3247 52.5924 74.9494 51.5926C74.5742 50.5928 73.4135 50.0082 72.3609 50.2893Z" fill="#E5E5E5"/>
<path id="Vector_84" d="M73.6456 51.5383L75.6681 51.4009L73.9223 52.2666C73.8809 52.57 73.6615 52.8288 73.3276 52.9182C72.8538 53.0428 72.3355 52.7809 72.1669 52.3337C71.9984 51.8865 72.2432 51.4201 72.7171 51.2923C73.051 51.2029 73.4071 51.3083 73.6488 51.5351L73.6456 51.5383Z" fill="#AD071C"/>
</g>
<g id="Group_18">
<g id="Group_19">
<path id="Vector_85" d="M83.1888 57.0388C81.0009 56.285 78.4983 57.2848 77.5983 59.2652C76.7016 61.2489 77.7478 63.4657 79.9356 64.2196C82.1235 64.9734 84.6261 63.9736 85.5261 61.9932C86.4228 60.0095 85.3766 57.7927 83.1888 57.0388Z" fill="white"/>
<path id="Vector_86" d="M77.5093 59.2365C76.5935 61.2617 77.6651 63.5328 79.9007 64.3026C82.1362 65.0725 84.6993 64.0503 85.6151 62.0251C86.531 59.9999 85.4593 57.7288 83.2238 56.959C80.9882 56.1892 78.4252 57.2113 77.5093 59.2365ZM85.4371 61.9612C84.5594 63.897 82.1108 64.8744 79.9738 64.1397C77.8369 63.405 76.8129 61.2329 77.6874 59.2972C78.5619 57.3615 81.0137 56.384 83.1506 57.1187C85.2876 57.8534 86.3116 60.0255 85.4371 61.9612Z" fill="black"/>
</g>
<g id="Group_20">
<path id="Vector_87" d="M83.0075 63.52L83.2556 64.0471C83.2715 64.079 83.2556 64.1206 83.2174 64.1333C83.1792 64.1493 83.1379 64.1333 83.122 64.1014L82.874 63.5743C82.8581 63.5424 82.874 63.5041 82.9153 63.4881C82.9535 63.4721 82.9948 63.4881 83.0107 63.52H83.0075Z" fill="black"/>
<path id="Vector_88" d="M81.6083 63.8267L81.602 64.4017C81.602 64.4368 81.567 64.4688 81.5288 64.4688C81.4875 64.4688 81.4557 64.44 81.4557 64.4049L81.4621 63.8299C81.4621 63.7916 81.497 63.7628 81.5384 63.7628C81.5797 63.7628 81.6115 63.7916 81.6115 63.8267H81.6083Z" fill="black"/>
<path id="Vector_89" d="M84.1174 62.8013L84.5689 63.2006C84.5975 63.2262 84.5975 63.2677 84.5689 63.2933C84.5403 63.322 84.4926 63.322 84.464 63.2964L84.0124 62.8972C83.9838 62.8716 83.9838 62.8301 84.0124 62.8045C84.041 62.779 84.0887 62.7758 84.1174 62.8045V62.8013Z" fill="black"/>
<path id="Vector_90" d="M84.0538 58.2814L84.5117 57.8662C84.5403 57.8406 84.588 57.8406 84.6166 57.8662C84.6452 57.8949 84.6452 57.9364 84.6166 57.962L84.1587 58.3773C84.1301 58.4028 84.0824 58.4028 84.0538 58.3773C84.0251 58.3517 84.0251 58.3102 84.0538 58.2846V58.2814Z" fill="black"/>
<path id="Vector_91" d="M80.2346 63.5584C80.2568 63.568 80.2823 63.5743 80.3045 63.5807L80.0311 64.1813C80.0152 64.2164 79.9738 64.2324 79.9357 64.2196C79.8975 64.2068 79.8784 64.1685 79.8943 64.1333L80.1678 63.5328C80.1901 63.5424 80.2123 63.5488 80.2378 63.5584H80.2346Z" fill="black"/>
<path id="Vector_92" d="M84.7947 61.7408C84.8042 61.7185 84.8138 61.6993 84.8201 61.6769L85.4848 61.9037C85.5229 61.9165 85.542 61.9548 85.5261 61.99C85.5102 62.0283 85.4689 62.0443 85.4307 62.0315L84.7661 61.8047C84.7756 61.7824 84.7883 61.7632 84.7979 61.7408H84.7947Z" fill="black"/>
<path id="Vector_93" d="M85.1318 60.5046L85.7741 60.4951C85.8155 60.4951 85.8473 60.5238 85.8473 60.5589C85.8473 60.5973 85.8123 60.6292 85.7741 60.6292L85.1318 60.6388C85.0904 60.6388 85.0586 60.61 85.0586 60.5717C85.0586 60.5366 85.0904 60.5046 85.1318 60.5046Z" fill="black"/>
<path id="Vector_94" d="M84.8233 59.2557L85.418 59.0193C85.4561 59.0033 85.4975 59.0193 85.5134 59.0512C85.5293 59.0864 85.5134 59.1247 85.4752 59.1407L84.8806 59.3771C84.8424 59.393 84.8011 59.3771 84.7852 59.3451C84.7693 59.3132 84.7852 59.2716 84.8233 59.2589V59.2557Z" fill="black"/>
<path id="Vector_95" d="M79.0071 58.4603L78.5555 58.061C78.5269 58.0355 78.5269 57.9939 78.5555 57.9684C78.5842 57.9396 78.6319 57.9396 78.6605 57.9652L79.112 58.3645C79.1407 58.39 79.1407 58.4315 79.112 58.4571C79.0834 58.4827 79.0357 58.4858 79.0071 58.4571V58.4603Z" fill="black"/>
<path id="Vector_96" d="M80.1169 57.7416L79.8689 57.2145C79.853 57.1826 79.8689 57.1411 79.907 57.1283C79.9452 57.1123 79.9865 57.1283 80.0024 57.1602L80.2505 57.6873C80.2664 57.7192 80.2505 57.7576 80.2091 57.7735C80.171 57.7895 80.1296 57.7735 80.1137 57.7416H80.1169Z" fill="black"/>
<path id="Vector_97" d="M81.5161 57.4317L81.5225 56.8568C81.5225 56.8216 81.5575 56.7897 81.5956 56.7897C81.637 56.7897 81.6688 56.8184 81.6688 56.8536L81.6624 57.4285C81.6624 57.4669 81.6274 57.4956 81.5861 57.4956C81.5447 57.4956 81.5129 57.4669 81.5129 57.4317H81.5161Z" fill="black"/>
<path id="Vector_98" d="M82.9566 57.7256C82.9344 57.716 82.9121 57.7096 82.8867 57.7001C82.8612 57.6905 82.839 57.6841 82.8167 57.6777L83.0902 57.0772C83.1061 57.042 83.1474 57.0261 83.1856 57.0388C83.2238 57.0516 83.2429 57.09 83.227 57.1251L82.9535 57.7256H82.9566Z" fill="black"/>
<path id="Vector_99" d="M77.9927 60.757L77.3503 60.7666C77.309 60.7666 77.2772 60.7378 77.2772 60.7027C77.2772 60.6644 77.3122 60.6324 77.3503 60.6324L77.9927 60.6228C78.034 60.6228 78.0658 60.6516 78.0658 60.6899C78.0658 60.7251 78.034 60.757 77.9927 60.757Z" fill="black"/>
<path id="Vector_100" d="M78.3011 62.0028L77.7065 62.2391C77.6683 62.2551 77.627 62.2391 77.6111 62.2072C77.5952 62.1721 77.6111 62.1337 77.6492 62.1177L78.2439 61.8814C78.2821 61.8654 78.3234 61.8814 78.3393 61.9133C78.3552 61.9453 78.3393 61.9868 78.3011 61.9996V62.0028Z" fill="black"/>
<path id="Vector_101" d="M78.3298 59.5176C78.3202 59.54 78.3107 59.5591 78.3043 59.5815L77.6397 59.3547C77.6015 59.3419 77.5825 59.3036 77.5984 59.2685C77.6143 59.2301 77.6556 59.2141 77.6938 59.2269L78.3584 59.4537C78.3488 59.4761 78.3361 59.4952 78.3266 59.5176H78.3298Z" fill="black"/>
<path id="Vector_102" d="M79.0707 62.9802L78.6128 63.3955C78.5842 63.421 78.5365 63.421 78.5078 63.3955C78.4792 63.3667 78.4792 63.3252 78.5078 63.2996L78.9658 62.8844C78.9944 62.8588 79.0421 62.8588 79.0707 62.8844C79.0993 62.9099 79.0993 62.9515 79.0707 62.977V62.9802Z" fill="black"/>
</g>
<path id="Vector_103" d="M82.4033 58.7733C81.2712 58.3836 79.977 58.9011 79.5127 59.9265C79.0484 60.9518 79.589 62.0986 80.7211 62.4883C81.8532 62.878 83.1474 62.3605 83.6117 61.3351C84.076 60.3098 83.5354 59.163 82.4033 58.7733Z" fill="#E5E5E5"/>
<path id="Vector_104" d="M82.5305 60.5302L84.3876 61.6003L82.1935 61.2777C81.92 61.4981 81.5225 61.5779 81.1663 61.4533C80.6575 61.2777 80.4158 60.7634 80.6225 60.3034C80.8292 59.8434 81.4112 59.6102 81.92 59.7859C82.2793 59.9105 82.5051 60.2044 82.5337 60.527L82.5305 60.5302Z" fill="#AD071C"/>
</g>
<g id="Group_21" opacity="0.63">
<path id="Vector_105" d="M100.774 49.1649C100.523 49.331 100.374 49.5259 100.323 49.7559C100.272 49.9827 100.332 50.1775 100.507 50.334C100.682 50.4937 100.92 50.5704 101.216 50.5672C101.515 50.564 101.789 50.4778 102.037 50.3149L104.091 48.9541C104.342 48.788 104.492 48.59 104.542 48.3632C104.593 48.1364 104.533 47.9415 104.358 47.7818C104.183 47.6221 103.945 47.5454 103.646 47.5518C103.347 47.5582 103.073 47.6412 102.825 47.8073L100.771 49.1681L100.774 49.1649ZM103.251 48.1715C103.34 48.1108 103.442 48.0821 103.55 48.0789C103.658 48.0789 103.744 48.1044 103.808 48.1619C103.872 48.2194 103.894 48.2897 103.875 48.3727C103.856 48.4558 103.798 48.5261 103.709 48.5868L101.652 49.9475C101.563 50.0082 101.461 50.037 101.353 50.0402C101.245 50.0402 101.159 50.0146 101.095 49.9571C101.032 49.8996 101.01 49.8293 101.029 49.7463C101.048 49.6632 101.102 49.593 101.194 49.5323L103.251 48.1715Z" fill="#7A7A7A"/>
<path id="Vector_106" d="M97.467 47.8361L100.364 45.9163L100.704 46.2262L101.102 45.9642C101.022 45.8652 100.984 45.7502 100.984 45.6129C100.984 45.4755 101.029 45.3509 101.114 45.2328L100.835 44.9804L97.0695 47.4719L97.467 47.8329V47.8361Z" fill="#7A7A7A"/>
<path id="Vector_107" d="M97.2921 43.7538C97.6482 43.5174 97.8518 43.2779 97.9058 43.0287C97.9567 42.8115 97.8836 42.6198 97.696 42.4474C97.5211 42.2876 97.2794 42.2142 96.9709 42.2269C96.6625 42.2397 96.3826 42.326 96.1346 42.4921C95.877 42.6614 95.6703 42.8626 95.5145 43.0926C95.4254 43.2204 95.3014 43.4631 95.1392 43.8209C95.0947 43.9199 95.0216 44.0669 94.923 44.2681L94.8403 44.4342C94.7863 44.5428 94.7417 44.6258 94.7099 44.6865C94.6909 44.7153 94.6781 44.7345 94.6718 44.7377L93.8895 44.0253L93.333 44.3927L94.5986 45.5458L95.1201 45.2008C95.1201 45.2008 95.171 45.121 95.241 44.9836C95.2728 44.9197 95.3046 44.8526 95.3428 44.7728L95.4509 44.5364C95.5081 44.4023 95.6035 44.1914 95.7339 43.9008C95.8547 43.626 95.9851 43.3992 96.1219 43.2108C96.2332 43.0575 96.3604 42.9361 96.5003 42.8434C96.6148 42.7668 96.7324 42.7253 96.8596 42.7125C96.9932 42.7029 97.0981 42.7316 97.1744 42.8019C97.2857 42.9041 97.273 43.0351 97.1363 43.198C97.0918 43.2523 97.0282 43.3066 96.9423 43.3609L96.7992 43.4567L97.1903 43.8145L97.2889 43.7474L97.2921 43.7538Z" fill="#7A7A7A"/>
<path id="Vector_108" d="M93.9118 40.5563L93.104 41.0898C93.1454 41.0003 93.1517 40.9077 93.1231 40.8151C93.1072 40.7671 93.0722 40.7192 93.0213 40.6713C92.8464 40.5116 92.6302 40.4541 92.3726 40.4924C92.15 40.5276 91.902 40.633 91.6285 40.8151L90.8176 41.3517C90.5409 41.537 90.3724 41.7446 90.3183 41.9746C90.2643 42.195 90.3279 42.3898 90.506 42.5528C90.6809 42.7125 90.9162 42.7827 91.2119 42.77C91.4949 42.7572 91.7621 42.6677 92.0101 42.5048L92.0991 42.4441L91.7589 42.0704L91.6221 42.1471C91.4631 42.2365 91.32 42.2653 91.1928 42.2301C91.1547 42.2205 91.1229 42.2046 91.0974 42.1822C90.9353 42.0353 90.9734 41.8788 91.2151 41.719L92.1373 41.1089C92.2486 41.0355 92.3663 41.0003 92.4966 41.0067C92.5571 41.0067 92.6111 41.0323 92.6588 41.0738C92.7288 41.1377 92.7415 41.2112 92.697 41.2942C92.6588 41.3645 92.5984 41.4252 92.5221 41.4763L92.4203 41.5434L92.8178 41.9043L94.8753 40.5436L93.7082 39.483L93.139 39.86L93.9054 40.5563H93.9118Z" fill="#7A7A7A"/>
<path id="Vector_109" d="M90.2802 37.6847L90.3724 37.624C90.4646 37.5633 90.56 37.5282 90.6554 37.5154C90.7508 37.5026 90.8335 37.5282 90.8971 37.5856C90.9607 37.6431 90.9766 37.707 90.948 37.7805C90.9194 37.854 90.8589 37.921 90.7667 37.9817L90.0163 38.48C90.0417 38.3203 89.9972 38.1894 89.889 38.0903C89.7141 37.9306 89.4947 37.8699 89.234 37.9051C89.005 37.937 88.7538 38.0392 88.4835 38.2181L87.8379 38.6462C87.6058 38.8154 87.4659 39.0039 87.4182 39.2147C87.3705 39.4256 87.4277 39.6044 87.5899 39.7546C87.7648 39.9143 88.0001 39.9877 88.2927 39.9718C88.5757 39.959 88.8428 39.8696 89.0909 39.7067L91.1451 38.3459C91.3296 38.2245 91.4631 38.084 91.549 37.9306C91.6349 37.7741 91.6571 37.6208 91.6126 37.4707C91.5872 37.3716 91.5299 37.2854 91.4441 37.2055C91.2692 37.0458 91.0338 36.9755 90.7381 36.9883C90.4551 37.0011 90.1911 37.0905 89.9399 37.2534L89.8604 37.3077L90.277 37.6847H90.2802ZM88.7156 39.3457C88.6234 39.4064 88.5312 39.4415 88.439 39.4511C88.3372 39.4639 88.2545 39.4383 88.1909 39.3808C88.1273 39.3233 88.1114 39.2563 88.14 39.1796C88.1655 39.1093 88.2259 39.0422 88.3181 38.9815L89.0145 38.5216C89.1227 38.4513 89.2403 38.4162 89.3707 38.4194C89.4311 38.4194 89.4852 38.4449 89.5329 38.4864C89.6028 38.5503 89.6156 38.6238 89.571 38.7068C89.5361 38.7739 89.4788 38.8346 89.3993 38.8857L88.7124 39.3425L88.7156 39.3457Z" fill="#7A7A7A"/>
</g>
<g id="Group_22">
<path id="Vector_110" d="M92.9291 52.0749C90.3215 49.9411 87.7171 47.8105 85.1095 45.6768C84.782 45.4084 85.2622 44.9613 85.5865 45.2296C88.1941 47.3634 90.7985 49.4939 93.4061 51.6277C93.7337 51.896 93.2535 52.3432 92.9291 52.0749Z" fill="#D1D1D1"/>
<path id="Vector_111" d="M91.4059 52.8288C89.482 51.7683 87.8093 50.366 86.4578 48.7049C86.3465 48.5676 86.4356 48.3536 86.5787 48.2705C86.7504 48.1747 86.9317 48.2482 87.043 48.3855C88.3213 49.9571 89.9304 51.2827 91.7462 52.2825C92.1214 52.4902 91.7812 53.0364 91.4059 52.8288Z" fill="#D1D1D1"/>
<path id="Vector_112" d="M89.7841 53.9404C87.6535 52.1963 85.7392 50.2414 84.0569 48.1108C83.7994 47.7818 84.3845 47.4656 84.6421 47.7914C86.2893 49.8741 88.1782 51.7842 90.2611 53.4932C90.5887 53.7615 90.1085 54.2087 89.7841 53.9404Z" fill="#D1D1D1"/>
<path id="Vector_113" d="M88.016 55.1063C86.8522 54.1065 85.8473 52.9501 85.0364 51.682C84.8138 51.3306 85.3957 51.0112 85.6215 51.3626C86.4038 52.586 87.3705 53.6944 88.4962 54.6591C88.8174 54.9338 88.3372 55.381 88.0192 55.1063H88.016Z" fill="#D1D1D1"/>
<path id="Vector_114" d="M86.2003 55.726C85.8823 55.4353 85.5643 55.1478 85.2431 54.8571C85.1159 54.7422 85.1095 54.5249 85.2431 54.4099C85.3766 54.2949 85.5865 54.2854 85.7201 54.4099C86.0381 54.7006 86.3561 54.9881 86.6773 55.2788C86.8045 55.3938 86.8108 55.611 86.6773 55.726C86.5437 55.841 86.3338 55.8506 86.2003 55.726Z" fill="#D1D1D1"/>
</g>
<path id="Vector_115" d="M63.9657 85.2571L71.6613 90.8216L70.2907 91.3902L63.0308 86.0142L63.9657 85.2571Z" fill="url(#paint3_linear_1392_264)"/>
<path id="Vector_116" d="M111.112 34.0911C111.112 34.0911 111.825 38.0808 109.312 38.1255C109.312 38.1255 107.783 36.9787 106.333 36.0524C104.883 35.1261 99.6326 31.0278 99.6326 31.0278C99.6326 31.0278 98.6341 29.469 99.0602 28.5267C99.4863 27.5844 101.118 27.8016 101.757 28.1561C103.697 29.2294 111.109 34.0911 111.109 34.0911H111.112Z" fill="#002F4F"/>
<g id="Group_23">
<path id="Vector_117" d="M85.5961 -12.523C83.7326 1.50305 93.0214 20.5793 106.339 30.0791C119.657 39.5789 131.964 35.9119 133.827 21.8826C135.691 7.85648 126.402 -11.2198 113.084 -20.7196C99.7661 -30.2194 87.4595 -26.5523 85.5961 -12.523Z" fill="#003C6D"/>
<path id="Vector_118" d="M83.4782 -11.7053C81.6147 2.3208 90.9035 21.397 104.221 30.8968C117.539 40.3966 129.846 36.7296 131.709 22.7003C133.573 8.67423 124.284 -10.402 110.966 -19.9018C97.6451 -29.4048 85.3385 -25.7346 83.4782 -11.7053Z" fill="#0B59B5"/>
<path id="Vector_119" d="M86.2257 -9.74722C84.5753 2.68173 92.8051 19.5827 104.606 28.0028C116.407 36.4229 127.311 33.1712 128.962 20.7422C130.612 8.31325 122.382 -8.5877 110.581 -17.0078C98.7803 -25.4279 87.8761 -22.1762 86.2257 -9.74722Z" fill="#054172"/>
<path id="Vector_120" d="M86.2257 -9.74722C87.3292 -18.0492 92.5571 -22.2528 99.4259 -21.6236C93.8704 -21.0773 89.7968 -16.9567 88.8397 -9.74722C87.1892 2.68173 95.4191 19.5827 107.22 28.0028C111.141 30.7978 114.96 32.3055 118.375 32.6185C114.356 33.0114 109.561 31.5357 104.606 28.0028C92.8051 19.5827 84.5753 2.68493 86.2257 -9.74722Z" fill="#003356"/>
</g>
<path id="Vector_121" d="M103.048 29.2326L103.258 29.8906C103.258 29.8906 102.24 30.3091 101.782 32.692C101.579 32.5355 101.385 32.3854 101.2 32.2448C101.776 29.6958 102.994 29.2518 103.048 29.2326Z" fill="#0B59B5"/>
<path id="Vector_122" d="M108.549 33.1137L108.753 33.7749C108.753 33.7749 107.716 34.1933 107.268 36.6689C107.074 36.5347 106.873 36.4038 106.67 36.2696C107.233 33.5896 108.492 33.1296 108.549 33.1105V33.1137Z" fill="#0B59B5"/>
<path id="Vector_123" d="M34.4638 106.122C32.3441 102.891 31.0288 100.006 31.5259 99.6768C32.0231 99.3477 34.1443 101.7 36.2639 104.93C38.3835 108.16 39.6988 111.045 39.2017 111.375C38.7046 111.704 36.5834 109.352 34.4638 106.122Z" fill="#7F5630"/>
</g>
<path id="Vector_124" d="M32.595 101.011L35.6287 105.272L38.3921 109.847L12.4879 127H3.8147e-06V122.589L32.595 101.011Z" fill="#9B7954"/>
</g>
<defs>
<linearGradient id="paint0_linear_1392_264" x1="63.8353" y1="87.5283" x2="59.4975" y2="84.4609" gradientUnits="userSpaceOnUse">
<stop stop-color="#044382"/>
<stop offset="1" stop-color="#044382" stop-opacity="0"/>
</linearGradient>
<linearGradient id="paint1_linear_1392_264" x1="62.576" y1="108.272" x2="62.1461" y2="97.6415" gradientUnits="userSpaceOnUse">
<stop stop-color="#044382"/>
<stop offset="1" stop-color="#044382" stop-opacity="0"/>
</linearGradient>
<linearGradient id="paint2_linear_1392_264" x1="126.042" y1="66.8676" x2="116.724" y2="62.1865" gradientUnits="userSpaceOnUse">
<stop stop-color="#044382"/>
<stop offset="1" stop-color="#044382" stop-opacity="0"/>
</linearGradient>
<linearGradient id="paint3_linear_1392_264" x1="70.8822" y1="91.0643" x2="63.178" y2="85.3541" gradientUnits="userSpaceOnUse">
<stop stop-color="#3483D1" stop-opacity="0"/>
<stop offset="1" stop-color="#3483D1"/>
</linearGradient>
</defs>
</svg>
