<svg id="Layer_1" viewBox="0 0 512 512" xmlns="http://www.w3.org/2000/svg" data-name="Layer 1"><path d="m44.969 2.2h305.691a45.088 45.088 0 0 1 44.97 44.969v405.975a12.221 12.221 0 0 1 -12.212 12.183h-281.298a12.239 12.239 0 0 1 -12.211-12.183v-379.544z" fill="#eaf6ff" fill-rule="evenodd"/><path d="m135.869 150.309a7.195 7.195 0 1 1 13.552-4.837 17.719 17.719 0 0 0 6.441 8.451 17.585 17.585 0 1 0 10.113-31.971 31.981 31.981 0 0 1 -7.2-63.126v-11.541a7.2 7.2 0 0 1 14.4 0v11.541a32.085 32.085 0 0 1 22.935 20.459 7.185 7.185 0 0 1 -13.552 4.78 17.586 17.586 0 1 0 -16.583 23.519 31.976 31.976 0 0 1 7.2 63.126v11.541a7.2 7.2 0 1 1 -14.4 0v-11.541a32.183 32.183 0 0 1 -22.907-20.4z" fill="#45bf64"/><path d="m242.07 73.632a7.2 7.2 0 1 1 0-14.4h108.561a7.2 7.2 0 1 1 0 14.4zm0 96.67a7.2 7.2 0 1 1 0-14.4h108.561a7.2 7.2 0 1 1 0 14.4zm0-48.35a7.184 7.184 0 1 1 0-14.368h108.561a7.184 7.184 0 1 1 0 14.368z" fill="#d3dde6"/><path d="m207.942 302.179 129.428-74.551 128.321 74.551v195.177a12.474 12.474 0 0 1 -12.444 12.444h-232.889a12.45 12.45 0 0 1 -12.416-12.444z" fill="#fea832" fill-rule="evenodd"/><path d="m336.817 263.65-139.454 80.5a23.842 23.842 0 1 1 -23.84-41.3l163.294-94.281 163.294 94.281a23.842 23.842 0 0 1 -23.84 41.3z" fill="#e64c3c" fill-rule="evenodd"/><path d="m293.625 391.68h86.354v118.121h-86.354z" fill="#e64c3c"/><path d="m240 465.327v-145.808l-32.059 18.536v159.3a12.45 12.45 0 0 0 12.417 12.445h19.642z" fill="#e5972d" fill-rule="evenodd"/><path d="m207.942 338.055 32.058-18.536v-55.082l-66.478 38.412a23.842 23.842 0 1 0 23.84 41.3z" fill="#cf4436" fill-rule="evenodd"/><path d="m293.625 391.68h30.659v118.121h-30.659z" fill="#cf4436"/><path d="m0 227.366h89.909v-180.197a45.081 45.081 0 0 0 -44.94-44.969 45.088 45.088 0 0 0 -44.969 44.969z" fill="#d3dde6" fill-rule="evenodd"/></svg>