<svg width="143" height="154" viewBox="0 0 143 154" fill="none" xmlns="http://www.w3.org/2000/svg">
<circle cx="72" cy="89" r="65" fill="#DCDBDB"/>
<mask id="mask0_1634_1006" style="mask-type:alpha" maskUnits="userSpaceOnUse" x="4" y="-16" width="137" height="170">
<path d="M137.042 88.8492C137.042 124.827 107.876 153.994 71.8972 153.994C35.919 153.994 6.75277 124.827 6.75277 88.8492C6.75277 52.8709 -12.3139 -15.2166 71.8972 -15.2166C162.067 -15.2166 137.042 52.8709 137.042 88.8492Z" fill="#F3F3F3"/>
</mask>
<g mask="url(#mask0_1634_1006)">
<rect x="118.518" y="30.8811" width="6.8462" height="23.5813" rx="2" fill="#999798"/>
<rect x="123.843" y="32.4026" width="0.380344" height="19.7779" rx="0.190172" fill="#EFEFEF"/>
<path d="M38.8682 4.45361H103.082C111.919 4.45361 119.082 11.6171 119.082 20.4536V150.848C119.082 159.684 111.919 166.848 103.082 166.848H38.8682C30.0316 166.848 22.8682 159.684 22.8682 150.848V20.4536C22.8682 11.6171 30.0316 4.45361 38.8682 4.45361Z" fill="#777474" stroke="#777474" stroke-width="8"/>
<path d="M99.1983 5.01782H43.5129C36.679 5.01782 33.2621 5.01782 30.6612 6.36886C28.4695 7.50737 26.6825 9.29441 25.544 11.4861C24.1929 14.087 24.1929 17.5039 24.1929 24.3378V141.639C24.1929 148.473 24.1929 151.89 25.544 154.491C26.6825 156.682 28.4695 158.469 30.6612 159.608C33.2621 160.959 36.679 160.959 43.5129 160.959H99.1983C106.032 160.959 109.449 160.959 112.05 159.608C114.242 158.469 116.029 156.682 117.167 154.491C118.518 151.89 118.518 148.473 118.518 141.639V24.3378C118.518 17.5039 118.518 14.087 117.167 11.4861C116.029 9.29441 114.242 7.50737 112.05 6.36886C109.449 5.01782 106.032 5.01782 99.1983 5.01782Z" fill="#F3F3F3"/>
<path d="M82.3857 7.2998H60.3257C58.0151 7.2998 56.1419 9.17295 56.1419 11.4836C56.1419 13.7942 58.015 15.6674 60.3257 15.6674H82.3857C84.6963 15.6674 86.5694 13.7942 86.5694 11.4836C86.5694 9.17295 84.6963 7.2998 82.3857 7.2998Z" fill="#777474"/>
<path d="M105.194 27.0776H37.5178C33.0995 27.0776 29.5178 30.6594 29.5178 35.0776V105.035C29.5178 109.454 33.0995 113.035 37.5178 113.035H105.194C109.612 113.035 113.194 109.454 113.194 105.035V35.0776C113.194 30.6594 109.612 27.0776 105.194 27.0776Z" fill="#FFD7D7"/>
<g filter="url(#filter0_d_1634_1006)">
<circle cx="71.0631" cy="70.0566" r="32.3293" fill="#FFAEAE"/>
<circle cx="71.0631" cy="70.0565" r="29.0963" fill="#FF5353"/>
<rect x="61.0189" y="55.5083" width="34.0834" height="6.36936" transform="rotate(45 61.0189 55.5083)" fill="white"/>
<rect x="56.515" y="79.6089" width="34.0834" height="6.36936" transform="rotate(-45 56.515 79.6089)" fill="white"/>
</g>
</g>
<defs>
<filter id="filter0_d_1634_1006" x="26.7339" y="31.7273" width="88.6585" height="88.6584" filterUnits="userSpaceOnUse" color-interpolation-filters="sRGB">
<feFlood flood-opacity="0" result="BackgroundImageFix"/>
<feColorMatrix in="SourceAlpha" type="matrix" values="0 0 0 0 0 0 0 0 0 0 0 0 0 0 0 0 0 0 127 0" result="hardAlpha"/>
<feOffset dy="6"/>
<feGaussianBlur stdDeviation="6"/>
<feComposite in2="hardAlpha" operator="out"/>
<feColorMatrix type="matrix" values="0 0 0 0 0.160784 0 0 0 0 0.160784 0 0 0 0 0.160784 0 0 0 0.08 0"/>
<feBlend mode="normal" in2="BackgroundImageFix" result="effect1_dropShadow_1634_1006"/>
<feBlend mode="normal" in="SourceGraphic" in2="effect1_dropShadow_1634_1006" result="shape"/>
</filter>
</defs>
</svg>
